<svg id="my-svg" width="276" xmlns="http://www.w3.org/2000/svg" xmlns:xlink="http://www.w3.org/1999/xlink" class="flowchart" height="567" viewBox="0 0 276 567" role="graphics-document document" aria-roledescription="flowchart-v2" style="background-color: white;"><style>#my-svg{font-family:Segoe UI,Arial,sans-serif;font-size:16px;fill:#333;}@keyframes edge-animation-frame{from{stroke-dashoffset:0;}}@keyframes dash{to{stroke-dashoffset:0;}}#my-svg .edge-animation-slow{stroke-dasharray:9,5!important;stroke-dashoffset:900;animation:dash 50s linear infinite;stroke-linecap:round;}#my-svg .edge-animation-fast{stroke-dasharray:9,5!important;stroke-dashoffset:900;animation:dash 20s linear infinite;stroke-linecap:round;}#my-svg .error-icon{fill:#552222;}#my-svg .error-text{fill:#552222;stroke:#552222;}#my-svg .edge-thickness-normal{stroke-width:1px;}#my-svg .edge-thickness-thick{stroke-width:3.5px;}#my-svg .edge-pattern-solid{stroke-dasharray:0;}#my-svg .edge-thickness-invisible{stroke-width:0;fill:none;}#my-svg .edge-pattern-dashed{stroke-dasharray:3;}#my-svg .edge-pattern-dotted{stroke-dasharray:2;}#my-svg .marker{fill:#444444;stroke:#444444;}#my-svg .marker.cross{stroke:#444444;}#my-svg svg{font-family:Segoe UI,Arial,sans-serif;font-size:16px;}#my-svg p{margin:0;}#my-svg .label{font-family:Segoe UI,Arial,sans-serif;color:#333;}#my-svg .cluster-label text{fill:#333;}#my-svg .cluster-label span{color:#333;}#my-svg .cluster-label span p{background-color:transparent;}#my-svg .label text,#my-svg span{fill:#333;color:#333;}#my-svg .node rect,#my-svg .node circle,#my-svg .node ellipse,#my-svg .node polygon,#my-svg .node path{fill:#ECECFF;stroke:#9370DB;stroke-width:1px;}#my-svg .rough-node .label text,#my-svg .node .label text,#my-svg .image-shape .label,#my-svg .icon-shape .label{text-anchor:middle;}#my-svg .node .katex path{fill:#000;stroke:#000;stroke-width:1px;}#my-svg .rough-node .label,#my-svg .node .label,#my-svg .image-shape .label,#my-svg .icon-shape .label{text-align:center;}#my-svg .node.clickable{cursor:pointer;}#my-svg .root .anchor path{fill:#444444!important;stroke-width:0;stroke:#444444;}#my-svg .arrowheadPath{fill:#333333;}#my-svg .edgePath .path{stroke:#444444;stroke-width:1px;}#my-svg .flowchart-link{stroke:#444444;fill:none;}#my-svg .edgeLabel{background-color:rgba(232,232,232, 0.8);text-align:center;}#my-svg .edgeLabel p{background-color:rgba(232,232,232, 0.8);}#my-svg .edgeLabel rect{opacity:0.5;background-color:rgba(232,232,232, 0.8);fill:rgba(232,232,232, 0.8);}#my-svg .labelBkg{background-color:rgba(232, 232, 232, 0.5);}#my-svg .cluster rect{fill:#ffffde;stroke:#aaaa33;stroke-width:1px;}#my-svg .cluster text{fill:#333;}#my-svg .cluster span{color:#333;}#my-svg div.mermaidTooltip{position:absolute;text-align:center;max-width:200px;padding:2px;font-family:Segoe UI,Arial,sans-serif;font-size:12px;background:hsl(80, 100%, 96.2745098039%);border:1px solid #aaaa33;border-radius:2px;pointer-events:none;z-index:100;}#my-svg .flowchartTitleText{text-anchor:middle;font-size:18px;fill:#333;}#my-svg rect.text{fill:none;stroke-width:0;}#my-svg .icon-shape,#my-svg .image-shape{background-color:rgba(232,232,232, 0.8);text-align:center;}#my-svg .icon-shape p,#my-svg .image-shape p{background-color:rgba(232,232,232, 0.8);padding:2px;}#my-svg .icon-shape .label rect,#my-svg .image-shape .label rect{opacity:0.5;background-color:rgba(232,232,232, 0.8);fill:rgba(232,232,232, 0.8);}#my-svg .label-icon{display:inline-block;height:1em;overflow:visible;vertical-align:-0.125em;}#my-svg .node .label-icon path{fill:currentColor;stroke:revert;stroke-width:revert;}#my-svg .node .neo-node{stroke:#9370DB;}#my-svg [data-look="neo"].node rect,#my-svg [data-look="neo"].cluster rect,#my-svg [data-look="neo"].node polygon{stroke:#9370DB;filter:drop-shadow(1px 2px 2px rgba(185, 185, 185, 1));}#my-svg [data-look="neo"].node path{stroke:#9370DB;stroke-width:1px;}#my-svg [data-look="neo"].node .outer-path{filter:drop-shadow(1px 2px 2px rgba(185, 185, 185, 1));}#my-svg [data-look="neo"].node .neo-line path{stroke:#9370DB;filter:none;}#my-svg [data-look="neo"].node circle{stroke:#9370DB;filter:drop-shadow(1px 2px 2px rgba(185, 185, 185, 1));}#my-svg [data-look="neo"].node circle .state-start{fill:#000000;}#my-svg [data-look="neo"].icon-shape .icon{fill:#9370DB;filter:drop-shadow(1px 2px 2px rgba(185, 185, 185, 1));}#my-svg [data-look="neo"].icon-shape .icon-neo path{stroke:#9370DB;filter:drop-shadow(1px 2px 2px rgba(185, 185, 185, 1));}#my-svg :root{--mermaid-font-family:"trebuchet ms",verdana,arial,sans-serif;}</style><g><marker id="my-svg_flowchart-v2-pointEnd" class="marker flowchart-v2" viewBox="0 0 10 10" refX="5" refY="5" markerUnits="userSpaceOnUse" markerWidth="8" markerHeight="8" orient="auto"><path d="M 0 0 L 10 5 L 0 10 z" class="arrowMarkerPath" style="stroke-width: 1; stroke-dasharray: 1, 0;"/></marker><marker id="my-svg_flowchart-v2-pointStart" class="marker flowchart-v2" viewBox="0 0 10 10" refX="4.5" refY="5" markerUnits="userSpaceOnUse" markerWidth="8" markerHeight="8" orient="auto"><path d="M 0 5 L 10 10 L 10 0 z" class="arrowMarkerPath" style="stroke-width: 1; stroke-dasharray: 1, 0;"/></marker><marker id="my-svg_flowchart-v2-pointEnd-margin" class="marker flowchart-v2" viewBox="0 0 11.5 14" refX="11.5" refY="7" markerUnits="userSpaceOnUse" markerWidth="10.5" markerHeight="14" orient="auto"><path d="M 0 0 L 11.5 7 L 0 14 z" class="arrowMarkerPath" style="stroke-width: 0; stroke-dasharray: 1, 0;"/></marker><marker id="my-svg_flowchart-v2-pointStart-margin" class="marker flowchart-v2" viewBox="0 0 11.5 14" refX="1" refY="7" markerUnits="userSpaceOnUse" markerWidth="11.5" markerHeight="14" orient="auto"><polygon points="0,7 11.5,14 11.5,0" class="arrowMarkerPath" style="stroke-width: 0; stroke-dasharray: 1, 0;"/></marker><marker id="my-svg_flowchart-v2-circleEnd" class="marker flowchart-v2" viewBox="0 0 10 10" refX="11" refY="5" markerUnits="userSpaceOnUse" markerWidth="11" markerHeight="11" orient="auto"><circle cx="5" cy="5" r="5" class="arrowMarkerPath" style="stroke-width: 1; stroke-dasharray: 1, 0;"/></marker><marker id="my-svg_flowchart-v2-circleStart" class="marker flowchart-v2" viewBox="0 0 10 10" refX="-1" refY="5" markerUnits="userSpaceOnUse" markerWidth="11" markerHeight="11" orient="auto"><circle cx="5" cy="5" r="5" class="arrowMarkerPath" style="stroke-width: 1; stroke-dasharray: 1, 0;"/></marker><marker id="my-svg_flowchart-v2-circleEnd-margin" class="marker flowchart-v2" viewBox="0 0 10 10" refY="5" refX="12.25" markerUnits="userSpaceOnUse" markerWidth="14" markerHeight="14" orient="auto"><circle cx="5" cy="5" r="5" class="arrowMarkerPath" style="stroke-width: 0; stroke-dasharray: 1, 0;"/></marker><marker id="my-svg_flowchart-v2-circleStart-margin" class="marker flowchart-v2" viewBox="0 0 10 10" refX="-2" refY="5" markerUnits="userSpaceOnUse" markerWidth="14" markerHeight="14" orient="auto"><circle cx="5" cy="5" r="5" class="arrowMarkerPath" style="stroke-width: 0; stroke-dasharray: 1, 0;"/></marker><marker id="my-svg_flowchart-v2-crossEnd" class="marker cross flowchart-v2" viewBox="0 0 11 11" refX="12" refY="5.2" markerUnits="userSpaceOnUse" markerWidth="11" markerHeight="11" orient="auto"><path d="M 1,1 l 9,9 M 10,1 l -9,9" class="arrowMarkerPath" style="stroke-width: 2; stroke-dasharray: 1, 0;"/></marker><marker id="my-svg_flowchart-v2-crossStart" class="marker cross flowchart-v2" viewBox="0 0 11 11" refX="-1" refY="5.2" markerUnits="userSpaceOnUse" markerWidth="11" markerHeight="11" orient="auto"><path d="M 1,1 l 9,9 M 10,1 l -9,9" class="arrowMarkerPath" style="stroke-width: 2; stroke-dasharray: 1, 0;"/></marker><marker id="my-svg_flowchart-v2-crossEnd-margin" class="marker cross flowchart-v2" viewBox="0 0 15 15" refX="17.7" refY="7.5" markerUnits="userSpaceOnUse" markerWidth="12" markerHeight="12" orient="auto"><path d="M 1,1 L 14,14 M 1,14 L 14,1" class="arrowMarkerPath" style="stroke-width: 2.5;"/></marker><marker id="my-svg_flowchart-v2-crossStart-margin" class="marker cross flowchart-v2" viewBox="0 0 15 15" refX="-3.5" refY="7.5" markerUnits="userSpaceOnUse" markerWidth="12" markerHeight="12" orient="auto"><path d="M 1,1 L 14,14 M 1,14 L 14,1" class="arrowMarkerPath" style="stroke-width: 2.5; stroke-dasharray: 1, 0;"/></marker><g class="root"><g class="clusters"/><g class="edgePaths"><path d="M138.5,47.5L138.417,51.583C138.333,55.667,138.167,63.833,138.083,71.417C138,79,138,86,138,89.5L138,93" id="my-svg-L_A_B_0" class="edge-thickness-normal edge-pattern-solid edge-thickness-normal edge-pattern-solid flowchart-link" style=";" data-edge="true" data-et="edge" data-id="L_A_B_0" data-points="W3sieCI6MTM4LjUsInkiOjQ3LjV9LHsieCI6MTM4LCJ5Ijo3Mn0seyJ4IjoxMzgsInkiOjk3fV0=" data-look="classic" marker-end="url(#my-svg_flowchart-v2-pointEnd)"/><path d="M138,151L138,155.167C138,159.333,138,167.667,138,175.333C138,183,138,190,138,193.5L138,197" id="my-svg-L_B_C_0" class="edge-thickness-normal edge-pattern-solid edge-thickness-normal edge-pattern-solid flowchart-link" style=";" data-edge="true" data-et="edge" data-id="L_B_C_0" data-points="W3sieCI6MTM4LCJ5IjoxNTF9LHsieCI6MTM4LCJ5IjoxNzZ9LHsieCI6MTM4LCJ5IjoyMDF9XQ==" data-look="classic" marker-end="url(#my-svg_flowchart-v2-pointEnd)"/><path d="M138,303L138,307.167C138,311.333,138,319.667,138,327.333C138,335,138,342,138,345.5L138,349" id="my-svg-L_C_D_0" class="edge-thickness-normal edge-pattern-solid edge-thickness-normal edge-pattern-solid flowchart-link" style=";" data-edge="true" data-et="edge" data-id="L_C_D_0" data-points="W3sieCI6MTM4LCJ5IjozMDN9LHsieCI6MTM4LCJ5IjozMjh9LHsieCI6MTM4LCJ5IjozNTN9XQ==" data-look="classic" marker-end="url(#my-svg_flowchart-v2-pointEnd)"/><path d="M138,431L138,435.167C138,439.333,138,447.667,138,455.333C138,463,138,470,138,473.5L138,477" id="my-svg-L_D_E_0" class="edge-thickness-normal edge-pattern-solid edge-thickness-normal edge-pattern-solid flowchart-link" style=";" data-edge="true" data-et="edge" data-id="L_D_E_0" data-points="W3sieCI6MTM4LCJ5Ijo0MzF9LHsieCI6MTM4LCJ5Ijo0NTZ9LHsieCI6MTM4LCJ5Ijo0ODF9XQ==" data-look="classic" marker-end="url(#my-svg_flowchart-v2-pointEnd)"/></g><g class="edgeLabels"><g class="edgeLabel"><g class="label" data-id="L_A_B_0" transform="translate(0, 0)"><foreignObject width="0" height="0"><div xmlns="http://www.w3.org/1999/xhtml" class="labelBkg" style="display: table-cell; white-space: nowrap; line-height: 1.5; max-width: 200px; text-align: center;"><span class="edgeLabel"></span></div></foreignObject></g></g><g class="edgeLabel"><g class="label" data-id="L_B_C_0" transform="translate(0, 0)"><foreignObject width="0" height="0"><div xmlns="http://www.w3.org/1999/xhtml" class="labelBkg" style="display: table-cell; white-space: nowrap; line-height: 1.5; max-width: 200px; text-align: center;"><span class="edgeLabel"></span></div></foreignObject></g></g><g class="edgeLabel"><g class="label" data-id="L_C_D_0" transform="translate(0, 0)"><foreignObject width="0" height="0"><div xmlns="http://www.w3.org/1999/xhtml" class="labelBkg" style="display: table-cell; white-space: nowrap; line-height: 1.5; max-width: 200px; text-align: center;"><span class="edgeLabel"></span></div></foreignObject></g></g><g class="edgeLabel"><g class="label" data-id="L_D_E_0" transform="translate(0, 0)"><foreignObject width="0" height="0"><div xmlns="http://www.w3.org/1999/xhtml" class="labelBkg" style="display: table-cell; white-space: nowrap; line-height: 1.5; max-width: 200px; text-align: center;"><span class="edgeLabel"></span></div></foreignObject></g></g></g><g class="nodes"><g class="node default" id="my-svg-flowchart-A-0" data-look="classic" transform="translate(138, 27.5)"><g class="basic label-container outer-path"><path d="M-82.1796875 -19.5 C-38.24539398984012 -19.5, 5.688899520319765 -19.5, 82.1796875 -19.5 C82.1796875 -19.5, 82.1796875 -19.5, 82.1796875 -19.5 C82.48735615893007 -19.49013366494883, 82.79502481786014 -19.480267329897657, 83.4290567896239 -19.45993515863156 C83.87598817557065 -19.416820225342907, 84.32291956151741 -19.373705292054257, 84.67329215284786 -19.3399052695533 C84.99873118334801 -19.287290810919412, 85.32417021384815 -19.234676352285522, 85.90728075967675 -19.140403561325776 C86.30834797976712 -19.048862585548353, 86.70941519985749 -18.957321609770926, 87.12595188623538 -18.862249829261074 C87.49638263481398 -18.752307927513623, 87.86681338339258 -18.642366025766176, 88.3242977514606 -18.50658706670804 C88.65576165307625 -18.38460528689476, 88.9872255546919 -18.262623507081486, 89.4973940951478 -18.074876768247425 C89.82873851815104 -17.928200421166974, 90.16008294115429 -17.78152407408652, 90.64042041279238 -17.568892924097174 C90.885134923414 -17.441225520652996, 91.12984943403563 -17.31355811720882, 91.74867976407678 -16.990714730406097 C92.15908434888074 -16.741925059292896, 92.56948893368468 -16.493135388179695, 92.8176180736057 -16.342718045390892 C93.16723976251292 -16.098837090088196, 93.51686145142014 -15.854956134785501, 93.84284284457871 -15.627565626425154 C94.22645395269082 -15.321645976026057, 94.61006506080292 -15.015726325626959, 94.82014120850187 -14.848196188198123 C95.0568067188977 -14.633262833482892, 95.29347222929354 -14.418329478767658, 95.74549723676799 -14.007812326905688 C96.06717947703315 -13.675649003228806, 96.38886171729833 -13.343485679551922, 96.61510844296865 -13.10986736009568 C96.84587989905289 -12.838790076511279, 97.07665135513714 -12.567712792926876, 97.42540140812658 -12.158051136245305 C97.71995386198543 -11.76337768235502, 98.01450631584429 -11.368704228464736, 98.17304646464063 -11.156274872382312 C98.3757935269168 -10.844800939516867, 98.57854058919294 -10.533327006651424, 98.85497137860425 -10.108655082055241 C99.04934102621358 -9.76353209066379, 99.24371067382293 -9.418409099272342, 99.4683739742735 -9.019496659696287 C99.57912261347073 -8.789524740761966, 99.68987125266797 -8.559552821827642, 100.01073364880834 -7.893275190886684 C100.17602249557979 -7.4850085437187674, 100.34131134235122 -7.076741896550851, 100.47982172997033 -6.734618561215508 C100.57377944637685 -6.451632889528199, 100.66773716278337 -6.16864721784089, 100.87371063421489 -5.548287939305138 C100.99260967724562 -5.0948743570577175, 101.11150872027636 -4.641460774810297, 101.19078178754556 -4.339158212148133 C101.24867440075604 -4.041891878920395, 101.30656701396654 -3.744625545692656, 101.42973227658177 -3.1121979531509023 C101.46442747970126 -2.8431088090990144, 101.49912268282074 -2.5740196650471265, 101.58958020250937 -1.872449005199798 C101.60576908845715 -1.6202940391294407, 101.62195797440495 -1.3681390730590834, 101.66966871591342 -0.6250057626472757 C101.66966871591342 -0.2363053801079737, 101.66966871591342 0.1523950024313283, 101.66966871591342 0.625005762647271 C101.63855710278492 1.1095942499657656, 101.60744548965641 1.5941827372842603, 101.58958020250937 1.8724490051997846 C101.55286823913308 2.1571797435491336, 101.51615627575679 2.441910481898483, 101.42973227658177 3.1121979531508885 C101.37059562699835 3.4158521502264834, 101.31145897741492 3.719506347302078, 101.19078178754556 4.339158212148129 C101.09362863212453 4.709645300212439, 100.9964754767035 5.080132388276749, 100.87371063421489 5.548287939305125 C100.72378704370223 5.999833906849025, 100.57386345318957 6.451379874392925, 100.47982172997033 6.734618561215495 C100.37343034167382 6.997407347245401, 100.26703895337734 7.260196133275308, 100.01073364880834 7.893275190886679 C99.8040004438231 8.322561114420516, 99.59726723883786 8.751847037954354, 99.4683739742735 9.019496659696284 C99.34259270402153 9.242834041763416, 99.21681143376954 9.466171423830547, 98.85497137860425 10.108655082055236 C98.61428725004886 10.478410536254271, 98.37360312149347 10.848165990453305, 98.17304646464065 11.156274872382301 C97.9379938201765 11.471224002227826, 97.70294117571235 11.78617313207335, 97.42540140812659 12.158051136245302 C97.15186670194872 12.47936056668753, 96.87833199577085 12.80066999712976, 96.61510844296866 13.10986736009567 C96.32580354190316 13.40859842281991, 96.03649864083766 13.70732948554415, 95.74549723676799 14.007812326905684 C95.44070302226338 14.284618368105777, 95.13590880775877 14.56142440930587, 94.8201412085019 14.848196188198111 C94.43565018954115 15.154817544083578, 94.05115917058042 15.461438899969044, 93.84284284457871 15.627565626425152 C93.55588760744303 15.827733177759002, 93.26893237030734 16.027900729092853, 92.8176180736057 16.34271804539089 C92.42796642339555 16.578927165595555, 92.03831477318538 16.81513628580022, 91.74867976407678 16.990714730406093 C91.49485099816324 17.123137034998106, 91.24102223224969 17.255559339590114, 90.64042041279238 17.56889292409717 C90.25987326381605 17.7373498584189, 89.87932611483971 17.90580679274063, 89.4973940951478 18.07487676824742 C89.06506702041527 18.23397712813666, 88.63273994568274 18.393077488025902, 88.32429775146062 18.506587066708033 C88.07341341054251 18.581048222173745, 87.82252906962442 18.65550937763946, 87.12595188623541 18.86224982926107 C86.64590425616441 18.97181756822123, 86.16585662609343 19.081385307181392, 85.90728075967677 19.140403561325773 C85.54229077960929 19.199412310763513, 85.17730079954181 19.258421060201254, 84.67329215284788 19.3399052695533 C84.33764315687311 19.372284924518006, 84.00199416089835 19.404664579482713, 83.4290567896239 19.45993515863156 C82.94818204808261 19.475355875626885, 82.46730730654133 19.49077659262221, 82.1796875 19.5 C82.1796875 19.5, 82.1796875 19.5, 82.1796875 19.5 C30.951962328716142 19.5, -20.275762842567715 19.5, -82.1796875 19.5 C-82.6035489158908 19.48640758938858, -83.02741033178161 19.472815178777157, -83.4290567896239 19.45993515863156 C-83.88356049733258 19.416089732569585, -84.33806420504126 19.37224430650761, -84.67329215284786 19.3399052695533 C-84.9566320769906 19.29409706795183, -85.23997200113332 19.24828886635036, -85.90728075967675 19.140403561325773 C-86.30013730101639 19.05073661939352, -86.69299384235602 18.96106967746126, -87.12595188623538 18.862249829261074 C-87.4674863734466 18.76088418620789, -87.80902086065784 18.659518543154707, -88.32429775146059 18.506587066708043 C-88.60137215538812 18.404621124814998, -88.87844655931566 18.302655182921953, -89.4973940951478 18.074876768247425 C-89.74854886244738 17.963698003005362, -89.99970362974696 17.8525192377633, -90.64042041279238 17.568892924097174 C-91.05306816807324 17.353614854480654, -91.4657159233541 17.138336784864137, -91.74867976407678 16.990714730406097 C-92.00237682515413 16.836922081091593, -92.25607388623148 16.683129431777086, -92.81761807360569 16.3427180453909 C-93.12932547769708 16.125284453892785, -93.44103288178847 15.907850862394675, -93.84284284457871 15.627565626425156 C-94.08825405059498 15.431856720293645, -94.33366525661124 15.236147814162132, -94.82014120850187 14.848196188198125 C-95.15775696050014 14.541582495056588, -95.49537271249841 14.23496880191505, -95.74549723676797 14.007812326905697 C-95.95865148108655 13.787713069357855, -96.17180572540511 13.567613811810013, -96.61510844296865 13.109867360095677 C-96.89342203642231 12.782944376732916, -97.17173562987597 12.456021393370154, -97.42540140812658 12.158051136245307 C-97.66438602830512 11.837833517152845, -97.90337064848367 11.517615898060384, -98.17304646464063 11.156274872382316 C-98.37302313182423 10.849057010334295, -98.57299979900782 10.541839148286275, -98.85497137860425 10.108655082055249 C-99.03028325470066 9.797371093793632, -99.20559513079706 9.486087105532016, -99.4683739742735 9.019496659696289 C-99.6349020667813 8.673697512473497, -99.80143015928907 8.327898365250707, -100.01073364880834 7.893275190886686 C-100.14934023827976 7.550914235116158, -100.2879468277512 7.208553279345631, -100.47982172997033 6.73461856121551 C-100.58723226013383 6.411115157906946, -100.69464279029734 6.087611754598383, -100.87371063421489 5.5482879393051325 C-100.98520856175463 5.123098018088601, -101.09670648929438 4.69790809687207, -101.19078178754556 4.339158212148136 C-101.25570384910496 4.005797147323145, -101.32062591066438 3.6724360824981543, -101.42973227658177 3.112197953150904 C-101.48934199353155 2.649876759758413, -101.54895171048135 2.187555566365922, -101.58958020250937 1.872449005199809 C-101.61625592987987 1.4569530191446871, -101.64293165725037 1.041457033089565, -101.66966871591342 0.6250057626472781 C-101.66966871591342 0.28005200140050196, -101.66966871591342 -0.06490175984627422, -101.66966871591342 -0.6250057626472687 C-101.64045665407448 -1.0800072053404715, -101.61124459223556 -1.535008648033674, -101.58958020250937 -1.8724490051997822 C-101.55492079354305 -2.1412605368681668, -101.52026138457671 -2.4100720685365515, -101.42973227658177 -3.112197953150895 C-101.3397001780329 -3.5744937509085877, -101.24966807948404 -4.03678954866628, -101.19078178754556 -4.339158212148126 C-101.0766849280815 -4.77425898717625, -100.96258806861746 -5.2093597622043735, -100.87371063421489 -5.548287939305123 C-100.77712591532853 -5.839185723905708, -100.68054119644216 -6.130083508506294, -100.47982172997033 -6.734618561215485 C-100.31746906432984 -7.135632784222734, -100.15511639868936 -7.536647007229984, -100.01073364880834 -7.893275190886676 C-99.88601337081616 -8.152259516723896, -99.76129309282398 -8.411243842561117, -99.4683739742735 -9.019496659696282 C-99.28033574689223 -9.353377573346986, -99.09229751951095 -9.687258486997692, -98.85497137860425 -10.108655082055243 C-98.59619678211786 -10.506202352967119, -98.33742218563145 -10.903749623878994, -98.17304646464063 -11.156274872382308 C-97.87458691272742 -11.556183481721492, -97.5761273608142 -11.956092091060674, -97.42540140812659 -12.158051136245302 C-97.15672432468119 -12.473654526619402, -96.8880472412358 -12.789257916993503, -96.61510844296866 -13.10986736009567 C-96.3529993286401 -13.380516540198412, -96.09089021431151 -13.651165720301154, -95.74549723676799 -14.007812326905677 C-95.5012797046236 -14.229604227957402, -95.25706217247921 -14.451396129009126, -94.8201412085019 -14.848196188198107 C-94.46455506645766 -15.131766673933736, -94.10896892441343 -15.415337159669363, -93.84284284457871 -15.627565626425149 C-93.48607400921935 -15.876432121697874, -93.12930517386 -16.1252986169706, -92.81761807360571 -16.342718045390885 C-92.51085590574641 -16.52867907428179, -92.2040937378871 -16.714640103172698, -91.74867976407678 -16.99071473040609 C-91.51558225579625 -17.11232155116997, -91.2824847475157 -17.23392837193385, -90.6404204127924 -17.56889292409717 C-90.32664031286019 -17.707794066381208, -90.01286021292798 -17.846695208665242, -89.49739409514781 -18.07487676824742 C-89.0487551635764 -18.23998004223852, -88.60011623200499 -18.40508331622962, -88.32429775146062 -18.506587066708033 C-87.93392299194389 -18.622448246213672, -87.54354823242716 -18.73830942571931, -87.12595188623541 -18.862249829261067 C-86.7053478257575 -18.95824996136715, -86.28474376527959 -19.054250093473236, -85.90728075967677 -19.140403561325773 C-85.50935631732811 -19.204736899214563, -85.11143187497947 -19.269070237103353, -84.67329215284788 -19.3399052695533 C-84.35020925630691 -19.371072688018575, -84.02712635976593 -19.402240106483852, -83.4290567896239 -19.45993515863156 C-82.95304215752118 -19.47520002137682, -82.47702752541846 -19.49046488412208, -82.1796875 -19.5 C-82.1796875 -19.5, -82.1796875 -19.5, -82.1796875 -19.5" stroke="none" stroke-width="0" fill="#ECECFF" style=""/><path d="M-82.1796875 -19.5 C-19.300061248384687 -19.5, 43.57956500323063 -19.5, 82.1796875 -19.5 M-82.1796875 -19.5 C-45.40252611369366 -19.5, -8.625364727387321 -19.5, 82.1796875 -19.5 M82.1796875 -19.5 C82.1796875 -19.5, 82.1796875 -19.5, 82.1796875 -19.5 M82.1796875 -19.5 C82.1796875 -19.5, 82.1796875 -19.5, 82.1796875 -19.5 M82.1796875 -19.5 C82.6039029359955 -19.48639623665288, 83.028118371991 -19.47279247330576, 83.4290567896239 -19.45993515863156 M82.1796875 -19.5 C82.59305332808572 -19.486744162461065, 83.00641915617143 -19.47348832492213, 83.4290567896239 -19.45993515863156 M83.4290567896239 -19.45993515863156 C83.88473452498043 -19.41597647553437, 84.34041226033696 -19.372017792437184, 84.67329215284786 -19.3399052695533 M83.4290567896239 -19.45993515863156 C83.73094193468297 -19.430812661757717, 84.03282707974206 -19.40169016488387, 84.67329215284786 -19.3399052695533 M84.67329215284786 -19.3399052695533 C85.11969771244948 -19.26773388060373, 85.5661032720511 -19.19556249165416, 85.90728075967675 -19.140403561325776 M84.67329215284786 -19.3399052695533 C85.06594749930979 -19.276423798225025, 85.45860284577172 -19.21294232689675, 85.90728075967675 -19.140403561325776 M85.90728075967675 -19.140403561325776 C86.34250891814038 -19.04106557428561, 86.77773707660401 -18.941727587245445, 87.12595188623538 -18.862249829261074 M85.90728075967675 -19.140403561325776 C86.22099430815162 -19.06880049105861, 86.53470785662648 -18.997197420791444, 87.12595188623538 -18.862249829261074 M87.12595188623538 -18.862249829261074 C87.43815510766282 -18.769589551929563, 87.75035832909026 -18.67692927459805, 88.3242977514606 -18.50658706670804 M87.12595188623538 -18.862249829261074 C87.50516878601476 -18.749700243956685, 87.88438568579413 -18.637150658652292, 88.3242977514606 -18.50658706670804 M88.3242977514606 -18.50658706670804 C88.67022331787504 -18.379283260566645, 89.01614888428948 -18.251979454425246, 89.4973940951478 -18.074876768247425 M88.3242977514606 -18.50658706670804 C88.58278596043495 -18.411461016366673, 88.84127416940927 -18.31633496602531, 89.4973940951478 -18.074876768247425 M89.4973940951478 -18.074876768247425 C89.81150068945142 -17.935831096590274, 90.12560728375504 -17.796785424933123, 90.64042041279238 -17.568892924097174 M89.4973940951478 -18.074876768247425 C89.87791466592007 -17.906431599308213, 90.25843523669235 -17.737986430369006, 90.64042041279238 -17.568892924097174 M90.64042041279238 -17.568892924097174 C90.88933824240907 -17.439032651825624, 91.13825607202577 -17.309172379554074, 91.74867976407678 -16.990714730406097 M90.64042041279238 -17.568892924097174 C90.89905308197267 -17.433964426247954, 91.15768575115294 -17.299035928398734, 91.74867976407678 -16.990714730406097 M91.74867976407678 -16.990714730406097 C92.11067862433279 -16.771268893977474, 92.47267748458879 -16.55182305754885, 92.8176180736057 -16.342718045390892 M91.74867976407678 -16.990714730406097 C92.17597004909173 -16.731688848593603, 92.60326033410666 -16.47266296678111, 92.8176180736057 -16.342718045390892 M92.8176180736057 -16.342718045390892 C93.13826521922492 -16.11904847719814, 93.45891236484414 -15.89537890900539, 93.84284284457871 -15.627565626425154 M92.8176180736057 -16.342718045390892 C93.03387998981096 -16.19186309447357, 93.25014190601621 -16.04100814355625, 93.84284284457871 -15.627565626425154 M93.84284284457871 -15.627565626425154 C94.0985652657652 -15.423633800588352, 94.35428768695168 -15.219701974751551, 94.82014120850187 -14.848196188198123 M93.84284284457871 -15.627565626425154 C94.0438742969533 -15.46724839282803, 94.24490574932791 -15.306931159230905, 94.82014120850187 -14.848196188198123 M94.82014120850187 -14.848196188198123 C95.09167565178869 -14.601595791212704, 95.36321009507553 -14.354995394227284, 95.74549723676799 -14.007812326905688 M94.82014120850187 -14.848196188198123 C95.06046330515053 -14.629942018596047, 95.30078540179919 -14.411687848993969, 95.74549723676799 -14.007812326905688 M95.74549723676799 -14.007812326905688 C96.0226132822664 -13.721667258278115, 96.29972932776482 -13.435522189650543, 96.61510844296865 -13.10986736009568 M95.74549723676799 -14.007812326905688 C96.03057000661022 -13.713451287133902, 96.31564277645246 -13.419090247362115, 96.61510844296865 -13.10986736009568 M96.61510844296865 -13.10986736009568 C96.85777657816435 -12.824815560286744, 97.10044471336005 -12.53976376047781, 97.42540140812658 -12.158051136245305 M96.61510844296865 -13.10986736009568 C96.88579676964349 -12.791901448981289, 97.15648509631832 -12.473935537866897, 97.42540140812658 -12.158051136245305 M97.42540140812658 -12.158051136245305 C97.66328925527634 -11.839303093093337, 97.9011771024261 -11.520555049941368, 98.17304646464063 -11.156274872382312 M97.42540140812658 -12.158051136245305 C97.65538881652803 -11.849888961271294, 97.88537622492949 -11.541726786297282, 98.17304646464063 -11.156274872382312 M98.17304646464063 -11.156274872382312 C98.38650751328996 -10.828341379339504, 98.59996856193929 -10.500407886296696, 98.85497137860425 -10.108655082055241 M98.17304646464063 -11.156274872382312 C98.37400642939122 -10.847546401219027, 98.5749663941418 -10.538817930055743, 98.85497137860425 -10.108655082055241 M98.85497137860425 -10.108655082055241 C99.01926985603379 -9.816926498354192, 99.18356833346333 -9.525197914653143, 99.4683739742735 -9.019496659696287 M98.85497137860425 -10.108655082055241 C99.00808338464172 -9.836789211063873, 99.1611953906792 -9.564923340072504, 99.4683739742735 -9.019496659696287 M99.4683739742735 -9.019496659696287 C99.65462837576186 -8.632735409799949, 99.8408827772502 -8.24597415990361, 100.01073364880834 -7.893275190886684 M99.4683739742735 -9.019496659696287 C99.6838919218919 -8.571969030121346, 99.89940986951028 -8.124441400546406, 100.01073364880834 -7.893275190886684 M100.01073364880834 -7.893275190886684 C100.12802087711717 -7.603573469369585, 100.24530810542599 -7.3138717478524855, 100.47982172997033 -6.734618561215508 M100.01073364880834 -7.893275190886684 C100.19738737552997 -7.432236877179963, 100.38404110225159 -6.9711985634732425, 100.47982172997033 -6.734618561215508 M100.47982172997033 -6.734618561215508 C100.60771054498319 -6.349437826712287, 100.73559935999604 -5.964257092209065, 100.87371063421489 -5.548287939305138 M100.47982172997033 -6.734618561215508 C100.6242376386776 -6.299660853739495, 100.76865354738487 -5.8647031462634835, 100.87371063421489 -5.548287939305138 M100.87371063421489 -5.548287939305138 C100.9560090379821 -5.234448457386947, 101.03830744174931 -4.920608975468758, 101.19078178754556 -4.339158212148133 M100.87371063421489 -5.548287939305138 C100.96964210371601 -5.182459669135479, 101.06557357321712 -4.816631398965821, 101.19078178754556 -4.339158212148133 M101.19078178754556 -4.339158212148133 C101.27420008692309 -3.9108228753083267, 101.35761838630062 -3.4824875384685208, 101.42973227658177 -3.1121979531509023 M101.19078178754556 -4.339158212148133 C101.2767136067803 -3.897916482074162, 101.36264542601504 -3.4566747520001906, 101.42973227658177 -3.1121979531509023 M101.42973227658177 -3.1121979531509023 C101.48820645005078 -2.6586838107569033, 101.54668062351979 -2.2051696683629043, 101.58958020250937 -1.872449005199798 M101.42973227658177 -3.1121979531509023 C101.47520177352554 -2.75954551382286, 101.5206712704693 -2.406893074494818, 101.58958020250937 -1.872449005199798 M101.58958020250937 -1.872449005199798 C101.60801798193069 -1.5852657080050414, 101.626455761352 -1.2980824108102849, 101.66966871591342 -0.6250057626472757 M101.58958020250937 -1.872449005199798 C101.61011172533901 -1.552653964381098, 101.63064324816867 -1.232858923562398, 101.66966871591342 -0.6250057626472757 M101.66966871591342 -0.6250057626472757 C101.66966871591342 -0.22334240707093983, 101.66966871591342 0.17832094850539604, 101.66966871591342 0.625005762647271 M101.66966871591342 -0.6250057626472757 C101.66966871591342 -0.33368608217615425, 101.66966871591342 -0.04236640170503281, 101.66966871591342 0.625005762647271 M101.66966871591342 0.625005762647271 C101.64603059745475 0.9931885379867182, 101.62239247899609 1.3613713133261656, 101.58958020250937 1.8724490051997846 M101.66966871591342 0.625005762647271 C101.65244020673236 0.8933536997443761, 101.63521169755133 1.1617016368414812, 101.58958020250937 1.8724490051997846 M101.58958020250937 1.8724490051997846 C101.54199891828844 2.241480049629926, 101.49441763406752 2.610511094060068, 101.42973227658177 3.1121979531508885 M101.58958020250937 1.8724490051997846 C101.53687864271242 2.2811918958847297, 101.4841770829155 2.6899347865696748, 101.42973227658177 3.1121979531508885 M101.42973227658177 3.1121979531508885 C101.35295208552552 3.506448006725676, 101.27617189446924 3.900698060300463, 101.19078178754556 4.339158212148129 M101.42973227658177 3.1121979531508885 C101.37634520606879 3.386329276873686, 101.32295813555582 3.660460600596484, 101.19078178754556 4.339158212148129 M101.19078178754556 4.339158212148129 C101.10295667310326 4.674073437161982, 101.01513155866097 5.008988662175835, 100.87371063421489 5.548287939305125 M101.19078178754556 4.339158212148129 C101.08601983081253 4.738660957290454, 100.98125787407949 5.138163702432781, 100.87371063421489 5.548287939305125 M100.87371063421489 5.548287939305125 C100.7668978365494 5.869991067565391, 100.6600850388839 6.191694195825657, 100.47982172997033 6.734618561215495 M100.87371063421489 5.548287939305125 C100.74227285821287 5.944157578857545, 100.61083508221084 6.340027218409965, 100.47982172997033 6.734618561215495 M100.47982172997033 6.734618561215495 C100.34388180706244 7.070392799017578, 100.20794188415456 7.406167036819662, 100.01073364880834 7.893275190886679 M100.47982172997033 6.734618561215495 C100.32326880823256 7.12130730465262, 100.16671588649479 7.507996048089746, 100.01073364880834 7.893275190886679 M100.01073364880834 7.893275190886679 C99.86455676576767 8.196814616204879, 99.718379882727 8.50035404152308, 99.4683739742735 9.019496659696284 M100.01073364880834 7.893275190886679 C99.81263862206178 8.304623752480484, 99.61454359531523 8.715972314074289, 99.4683739742735 9.019496659696284 M99.4683739742735 9.019496659696284 C99.2600098385277 9.389468281869613, 99.0516457027819 9.759439904042942, 98.85497137860425 10.108655082055236 M99.4683739742735 9.019496659696284 C99.33319511384708 9.259520414727316, 99.19801625342068 9.49954416975835, 98.85497137860425 10.108655082055236 M98.85497137860425 10.108655082055236 C98.6597114240551 10.408626806882069, 98.46445146950595 10.708598531708903, 98.17304646464065 11.156274872382301 M98.85497137860425 10.108655082055236 C98.65852585951555 10.410448152383466, 98.46208034042687 10.712241222711697, 98.17304646464065 11.156274872382301 M98.17304646464065 11.156274872382301 C98.01561835266057 11.367214200439577, 97.85819024068047 11.57815352849685, 97.42540140812659 12.158051136245302 M98.17304646464065 11.156274872382301 C97.93572533190398 11.474263569849477, 97.6984041991673 11.792252267316652, 97.42540140812659 12.158051136245302 M97.42540140812659 12.158051136245302 C97.26030703483195 12.35198038125315, 97.0952126615373 12.545909626260997, 96.61510844296866 13.10986736009567 M97.42540140812659 12.158051136245302 C97.16126969495959 12.468315276051511, 96.89713798179258 12.77857941585772, 96.61510844296866 13.10986736009567 M96.61510844296866 13.10986736009567 C96.43285141915486 13.298062700763362, 96.25059439534105 13.486258041431054, 95.74549723676799 14.007812326905684 M96.61510844296866 13.10986736009567 C96.40137463039234 13.330565069453074, 96.18764081781603 13.55126277881048, 95.74549723676799 14.007812326905684 M95.74549723676799 14.007812326905684 C95.44936001764071 14.276756313955627, 95.15322279851344 14.545700301005569, 94.8201412085019 14.848196188198111 M95.74549723676799 14.007812326905684 C95.42039563711381 14.303060997994644, 95.09529403745964 14.598309669083603, 94.8201412085019 14.848196188198111 M94.8201412085019 14.848196188198111 C94.43622729994227 15.154357313896233, 94.05231339138267 15.460518439594354, 93.84284284457871 15.627565626425152 M94.8201412085019 14.848196188198111 C94.46694917335145 15.12985743739581, 94.113757138201 15.41151868659351, 93.84284284457871 15.627565626425152 M93.84284284457871 15.627565626425152 C93.56412171324992 15.821989421996806, 93.28540058192112 16.01641321756846, 92.8176180736057 16.34271804539089 M93.84284284457871 15.627565626425152 C93.45272434083873 15.899695406676328, 93.06260583709873 16.171825186927503, 92.8176180736057 16.34271804539089 M92.8176180736057 16.34271804539089 C92.4296494444443 16.57790690834527, 92.04168081528289 16.81309577129965, 91.74867976407678 16.990714730406093 M92.8176180736057 16.34271804539089 C92.40534257660666 16.59264187447146, 91.9930670796076 16.842565703552033, 91.74867976407678 16.990714730406093 M91.74867976407678 16.990714730406093 C91.45750129411907 17.142622351674323, 91.16632282416134 17.294529972942556, 90.64042041279238 17.56889292409717 M91.74867976407678 16.990714730406093 C91.32701720242311 17.210695818733054, 90.90535464076943 17.430676907060015, 90.64042041279238 17.56889292409717 M90.64042041279238 17.56889292409717 C90.40279714981148 17.674081693775168, 90.16517388683057 17.779270463453162, 89.4973940951478 18.07487676824742 M90.64042041279238 17.56889292409717 C90.26858516220896 17.733493359429644, 89.89674991162553 17.898093794762115, 89.4973940951478 18.07487676824742 M89.4973940951478 18.07487676824742 C89.23139382650562 18.17276732598727, 88.96539355786345 18.27065788372712, 88.32429775146062 18.506587066708033 M89.4973940951478 18.07487676824742 C89.08028371833487 18.228377242640633, 88.66317334152195 18.381877717033845, 88.32429775146062 18.506587066708033 M88.32429775146062 18.506587066708033 C87.87974597873087 18.63852769935435, 87.43519420600113 18.770468332000668, 87.12595188623541 18.86224982926107 M88.32429775146062 18.506587066708033 C88.08260492969347 18.57832022753701, 87.84091210792634 18.650053388365986, 87.12595188623541 18.86224982926107 M87.12595188623541 18.86224982926107 C86.68104187387536 18.963797636273092, 86.2361318615153 19.065345443285118, 85.90728075967677 19.140403561325773 M87.12595188623541 18.86224982926107 C86.72076307740087 18.95473153077347, 86.31557426856635 19.04721323228587, 85.90728075967677 19.140403561325773 M85.90728075967677 19.140403561325773 C85.45130602542892 19.21412202022209, 84.99533129118106 19.287840479118408, 84.67329215284788 19.3399052695533 M85.90728075967677 19.140403561325773 C85.56370792193754 19.195949753284303, 85.2201350841983 19.25149594524283, 84.67329215284788 19.3399052695533 M84.67329215284788 19.3399052695533 C84.39878600221016 19.366386547763373, 84.12427985157242 19.392867825973447, 83.4290567896239 19.45993515863156 M84.67329215284788 19.3399052695533 C84.23066294297178 19.382605177090536, 83.78803373309569 19.425305084627777, 83.4290567896239 19.45993515863156 M83.4290567896239 19.45993515863156 C83.14851789168364 19.468931495052665, 82.86797899374338 19.47792783147377, 82.1796875 19.5 M83.4290567896239 19.45993515863156 C83.17256382378854 19.468160388812628, 82.91607085795319 19.476385618993696, 82.1796875 19.5 M82.1796875 19.5 C82.1796875 19.5, 82.1796875 19.5, 82.1796875 19.5 M82.1796875 19.5 C82.1796875 19.5, 82.1796875 19.5, 82.1796875 19.5 M82.1796875 19.5 C22.236666408989855 19.5, -37.70635468202029 19.5, -82.1796875 19.5 M82.1796875 19.5 C22.70130375196485 19.5, -36.7770799960703 19.5, -82.1796875 19.5 M-82.1796875 19.5 C-82.48218915335846 19.49029936076054, -82.78469080671691 19.480598721521087, -83.4290567896239 19.45993515863156 M-82.1796875 19.5 C-82.55822098613466 19.487861167870395, -82.93675447226931 19.47572233574079, -83.4290567896239 19.45993515863156 M-83.4290567896239 19.45993515863156 C-83.71338832582462 19.432506037292978, -83.99771986202535 19.405076915954396, -84.67329215284786 19.3399052695533 M-83.4290567896239 19.45993515863156 C-83.69840357276792 19.433951598398554, -83.96775035591193 19.407968038165553, -84.67329215284786 19.3399052695533 M-84.67329215284786 19.3399052695533 C-84.98586905610026 19.289370259905542, -85.29844595935263 19.238835250257782, -85.90728075967675 19.140403561325773 M-84.67329215284786 19.3399052695533 C-85.0668012187469 19.276285775487125, -85.46031028464594 19.21266628142095, -85.90728075967675 19.140403561325773 M-85.90728075967675 19.140403561325773 C-86.33076553295055 19.043745925322437, -86.75425030622435 18.947088289319097, -87.12595188623538 18.862249829261074 M-85.90728075967675 19.140403561325773 C-86.31027734608584 19.048422220276393, -86.71327393249493 18.956440879227014, -87.12595188623538 18.862249829261074 M-87.12595188623538 18.862249829261074 C-87.47892882236543 18.757488127431422, -87.83190575849548 18.65272642560177, -88.32429775146059 18.506587066708043 M-87.12595188623538 18.862249829261074 C-87.50642469460225 18.749327496880316, -87.8868975029691 18.636405164499557, -88.32429775146059 18.506587066708043 M-88.32429775146059 18.506587066708043 C-88.77498901488444 18.3407285156237, -89.22568027830829 18.174869964539354, -89.4973940951478 18.074876768247425 M-88.32429775146059 18.506587066708043 C-88.64844861958827 18.38729655081928, -88.97259948771594 18.26800603493052, -89.4973940951478 18.074876768247425 M-89.4973940951478 18.074876768247425 C-89.82184889818578 17.931250251552278, -90.14630370122377 17.787623734857128, -90.64042041279238 17.568892924097174 M-89.4973940951478 18.074876768247425 C-89.75122945623151 17.962511383654114, -90.00506481731524 17.850145999060807, -90.64042041279238 17.568892924097174 M-90.64042041279238 17.568892924097174 C-90.9592729102499 17.402547780408362, -91.2781254077074 17.236202636719547, -91.74867976407678 16.990714730406097 M-90.64042041279238 17.568892924097174 C-91.04052861482073 17.36015673138052, -91.44063681684908 17.151420538663867, -91.74867976407678 16.990714730406097 M-91.74867976407678 16.990714730406097 C-92.07526336064979 16.792737834945296, -92.40184695722279 16.594760939484498, -92.81761807360569 16.3427180453909 M-91.74867976407678 16.990714730406097 C-92.12725053125033 16.76122290661673, -92.50582129842385 16.53173108282736, -92.81761807360569 16.3427180453909 M-92.81761807360569 16.3427180453909 C-93.1772512824348 16.091853487182405, -93.53688449126392 15.840988928973909, -93.84284284457871 15.627565626425156 M-92.81761807360569 16.3427180453909 C-93.03724245441319 16.189517584725802, -93.25686683522068 16.036317124060705, -93.84284284457871 15.627565626425156 M-93.84284284457871 15.627565626425156 C-94.20996162717171 15.334798166748335, -94.5770804097647 15.042030707071513, -94.82014120850187 14.848196188198125 M-93.84284284457871 15.627565626425156 C-94.1512632846893 15.381608532849553, -94.4596837247999 15.135651439273952, -94.82014120850187 14.848196188198125 M-94.82014120850187 14.848196188198125 C-95.14419386626427 14.553900138381788, -95.4682465240267 14.259604088565451, -95.74549723676797 14.007812326905697 M-94.82014120850187 14.848196188198125 C-95.17183049249721 14.528801285662098, -95.52351977649256 14.209406383126069, -95.74549723676797 14.007812326905697 M-95.74549723676797 14.007812326905697 C-96.06295302406122 13.680013162920563, -96.38040881135447 13.352213998935431, -96.61510844296865 13.109867360095677 M-95.74549723676797 14.007812326905697 C-96.05017903904104 13.69320335121757, -96.35486084131412 13.378594375529442, -96.61510844296865 13.109867360095677 M-96.61510844296865 13.109867360095677 C-96.81578794359545 12.874137799672367, -97.01646744422224 12.638408239249058, -97.42540140812658 12.158051136245307 M-96.61510844296865 13.109867360095677 C-96.81847190977628 12.870985060274368, -97.0218353765839 12.632102760453057, -97.42540140812658 12.158051136245307 M-97.42540140812658 12.158051136245307 C-97.63808668599759 11.87307223992556, -97.85077196386861 11.588093343605815, -98.17304646464063 11.156274872382316 M-97.42540140812658 12.158051136245307 C-97.62018956535661 11.897052751123244, -97.81497772258665 11.63605436600118, -98.17304646464063 11.156274872382316 M-98.17304646464063 11.156274872382316 C-98.3403088313224 10.89931496092479, -98.50757119800419 10.642355049467266, -98.85497137860425 10.108655082055249 M-98.17304646464063 11.156274872382316 C-98.32431102025443 10.923891894738981, -98.47557557586822 10.691508917095646, -98.85497137860425 10.108655082055249 M-98.85497137860425 10.108655082055249 C-99.05077275944777 9.76098990332779, -99.2465741402913 9.413324724600331, -99.4683739742735 9.019496659696289 M-98.85497137860425 10.108655082055249 C-99.0407165444686 9.778845731325513, -99.22646171033294 9.449036380595775, -99.4683739742735 9.019496659696289 M-99.4683739742735 9.019496659696289 C-99.64160394096797 8.659780927327729, -99.81483390766242 8.300065194959167, -100.01073364880834 7.893275190886686 M-99.4683739742735 9.019496659696289 C-99.65902011779495 8.623615863499998, -99.8496662613164 8.227735067303705, -100.01073364880834 7.893275190886686 M-100.01073364880834 7.893275190886686 C-100.15468567553577 7.53771090174684, -100.29863770226319 7.182146612606996, -100.47982172997033 6.73461856121551 M-100.01073364880834 7.893275190886686 C-100.1897433997659 7.451117645103423, -100.36875315072346 7.008960099320159, -100.47982172997033 6.73461856121551 M-100.47982172997033 6.73461856121551 C-100.60828070379998 6.347720599198572, -100.73673967762964 5.960822637181634, -100.87371063421489 5.5482879393051325 M-100.47982172997033 6.73461856121551 C-100.60010722324137 6.372337820373845, -100.7203927165124 6.0100570795321815, -100.87371063421489 5.5482879393051325 M-100.87371063421489 5.5482879393051325 C-100.98800679914922 5.112427126139296, -101.10230296408355 4.676566312973459, -101.19078178754556 4.339158212148136 M-100.87371063421489 5.5482879393051325 C-100.98020073593354 5.142195028349901, -101.08669083765217 4.73610211739467, -101.19078178754556 4.339158212148136 M-101.19078178754556 4.339158212148136 C-101.25906820324542 3.9885218998683953, -101.3273546189453 3.6378855875886553, -101.42973227658177 3.112197953150904 M-101.19078178754556 4.339158212148136 C-101.27142511474344 3.925071770960292, -101.35206844194131 3.5109853297724483, -101.42973227658177 3.112197953150904 M-101.42973227658177 3.112197953150904 C-101.46624152048004 2.8290394670416044, -101.5027507643783 2.5458809809323046, -101.58958020250937 1.872449005199809 M-101.42973227658177 3.112197953150904 C-101.47784061372363 2.7390791903443734, -101.52594895086548 2.365960427537843, -101.58958020250937 1.872449005199809 M-101.58958020250937 1.872449005199809 C-101.61921651247297 1.4108395555177329, -101.6488528224366 0.9492301058356568, -101.66966871591342 0.6250057626472781 M-101.58958020250937 1.872449005199809 C-101.62159903878184 1.373729785116687, -101.6536178750543 0.8750105650335648, -101.66966871591342 0.6250057626472781 M-101.66966871591342 0.6250057626472781 C-101.66966871591342 0.22423576517501997, -101.66966871591342 -0.1765342322972382, -101.66966871591342 -0.6250057626472687 M-101.66966871591342 0.6250057626472781 C-101.66966871591342 0.2529577863465898, -101.66966871591342 -0.11909018995409859, -101.66966871591342 -0.6250057626472687 M-101.66966871591342 -0.6250057626472687 C-101.65142409160899 -0.9091805129845094, -101.63317946730454 -1.1933552633217501, -101.58958020250937 -1.8724490051997822 M-101.66966871591342 -0.6250057626472687 C-101.63817850108326 -1.1154912770707912, -101.60668828625312 -1.605976791494314, -101.58958020250937 -1.8724490051997822 M-101.58958020250937 -1.8724490051997822 C-101.54744862575679 -2.199213194671879, -101.50531704900422 -2.525977384143976, -101.42973227658177 -3.112197953150895 M-101.58958020250937 -1.8724490051997822 C-101.54223566644052 -2.2396438777136254, -101.49489113037167 -2.6068387502274684, -101.42973227658177 -3.112197953150895 M-101.42973227658177 -3.112197953150895 C-101.37019225078 -3.417923401854128, -101.31065222497821 -3.7236488505573604, -101.19078178754556 -4.339158212148126 M-101.42973227658177 -3.112197953150895 C-101.37009584122553 -3.418418444540141, -101.31045940586928 -3.724638935929387, -101.19078178754556 -4.339158212148126 M-101.19078178754556 -4.339158212148126 C-101.123186595357 -4.596927975904716, -101.05559140316845 -4.854697739661306, -100.87371063421489 -5.548287939305123 M-101.19078178754556 -4.339158212148126 C-101.10952918926877 -4.649009584476383, -101.02827659099198 -4.958860956804641, -100.87371063421489 -5.548287939305123 M-100.87371063421489 -5.548287939305123 C-100.73544066133913 -5.9647350672784905, -100.59717068846338 -6.381182195251858, -100.47982172997033 -6.734618561215485 M-100.87371063421489 -5.548287939305123 C-100.71989408572534 -6.011558876016771, -100.5660775372358 -6.47482981272842, -100.47982172997033 -6.734618561215485 M-100.47982172997033 -6.734618561215485 C-100.3134594065957 -7.145536716347531, -100.14709708322107 -7.556454871479578, -100.01073364880834 -7.893275190886676 M-100.47982172997033 -6.734618561215485 C-100.36493143447666 -7.018399812337585, -100.25004113898301 -7.3021810634596855, -100.01073364880834 -7.893275190886676 M-100.01073364880834 -7.893275190886676 C-99.82317984007832 -8.28273468772318, -99.63562603134832 -8.672194184559682, -99.4683739742735 -9.019496659696282 M-100.01073364880834 -7.893275190886676 C-99.79449375574755 -8.34230195561993, -99.57825386268675 -8.791328720353185, -99.4683739742735 -9.019496659696282 M-99.4683739742735 -9.019496659696282 C-99.30643368642096 -9.307038039010777, -99.14449339856843 -9.59457941832527, -98.85497137860425 -10.108655082055243 M-99.4683739742735 -9.019496659696282 C-99.27986549759855 -9.354212548585814, -99.0913570209236 -9.688928437475344, -98.85497137860425 -10.108655082055243 M-98.85497137860425 -10.108655082055243 C-98.62762330998079 -10.457922766965316, -98.40027524135733 -10.807190451875389, -98.17304646464063 -11.156274872382308 M-98.85497137860425 -10.108655082055243 C-98.66746124779607 -10.39672099649688, -98.47995111698789 -10.684786910938517, -98.17304646464063 -11.156274872382308 M-98.17304646464063 -11.156274872382308 C-97.95404807846792 -11.449712758690334, -97.7350496922952 -11.743150644998357, -97.42540140812659 -12.158051136245302 M-98.17304646464063 -11.156274872382308 C-98.01021916448786 -11.374448620714823, -97.8473918643351 -11.592622369047335, -97.42540140812659 -12.158051136245302 M-97.42540140812659 -12.158051136245302 C-97.1754435721798 -12.451665833352175, -96.92548573623303 -12.745280530459047, -96.61510844296866 -13.10986736009567 M-97.42540140812659 -12.158051136245302 C-97.23935338016214 -12.376593736325027, -97.0533053521977 -12.595136336404753, -96.61510844296866 -13.10986736009567 M-96.61510844296866 -13.10986736009567 C-96.2944970263034 -13.440924970489382, -95.97388560963816 -13.771982580883094, -95.74549723676799 -14.007812326905677 M-96.61510844296866 -13.10986736009567 C-96.34481503009737 -13.388967500387187, -96.07452161722607 -13.668067640678704, -95.74549723676799 -14.007812326905677 M-95.74549723676799 -14.007812326905677 C-95.53788582647182 -14.19635951663975, -95.33027441617567 -14.384906706373826, -94.8201412085019 -14.848196188198107 M-95.74549723676799 -14.007812326905677 C-95.42062037730895 -14.30285689489571, -95.09574351784993 -14.597901462885742, -94.8201412085019 -14.848196188198107 M-94.8201412085019 -14.848196188198107 C-94.45390237808097 -15.140261909434205, -94.08766354766006 -15.432327630670303, -93.84284284457871 -15.627565626425149 M-94.8201412085019 -14.848196188198107 C-94.49816522267541 -15.104963468753901, -94.17618923684894 -15.361730749309693, -93.84284284457871 -15.627565626425149 M-93.84284284457871 -15.627565626425149 C-93.5425935651302 -15.837006526186606, -93.2423442856817 -16.046447425948063, -92.81761807360571 -16.342718045390885 M-93.84284284457871 -15.627565626425149 C-93.45147059656063 -15.900569964411014, -93.06009834854254 -16.17357430239688, -92.81761807360571 -16.342718045390885 M-92.81761807360571 -16.342718045390885 C-92.46301391390679 -16.557681170885722, -92.10840975420786 -16.77264429638056, -91.74867976407678 -16.99071473040609 M-92.81761807360571 -16.342718045390885 C-92.47641045258236 -16.549560110413793, -92.135202831559 -16.756402175436698, -91.74867976407678 -16.99071473040609 M-91.74867976407678 -16.99071473040609 C-91.38085261904897 -17.182609916362576, -91.01302547402113 -17.374505102319063, -90.6404204127924 -17.56889292409717 M-91.74867976407678 -16.99071473040609 C-91.46044993621351 -17.141084046982346, -91.17222010835023 -17.291453363558606, -90.6404204127924 -17.56889292409717 M-90.6404204127924 -17.56889292409717 C-90.35544234826017 -17.69504425969166, -90.07046428372793 -17.821195595286152, -89.49739409514781 -18.07487676824742 M-90.6404204127924 -17.56889292409717 C-90.37459873420472 -17.686564295888004, -90.10877705561704 -17.80423566767884, -89.49739409514781 -18.07487676824742 M-89.49739409514781 -18.07487676824742 C-89.21026640329357 -18.180542413029066, -88.92313871143935 -18.28620805781071, -88.32429775146062 -18.506587066708033 M-89.49739409514781 -18.07487676824742 C-89.21971503442911 -18.177065229428997, -88.94203597371043 -18.279253690610577, -88.32429775146062 -18.506587066708033 M-88.32429775146062 -18.506587066708033 C-88.01917897543659 -18.597144717830826, -87.71406019941257 -18.687702368953616, -87.12595188623541 -18.862249829261067 M-88.32429775146062 -18.506587066708033 C-87.92556380507655 -18.624929208997628, -87.52682985869248 -18.743271351287227, -87.12595188623541 -18.862249829261067 M-87.12595188623541 -18.862249829261067 C-86.74510788230518 -18.94917498791876, -86.36426387837494 -19.036100146576455, -85.90728075967677 -19.140403561325773 M-87.12595188623541 -18.862249829261067 C-86.78864050550732 -18.93923895074979, -86.4513291247792 -19.01622807223851, -85.90728075967677 -19.140403561325773 M-85.90728075967677 -19.140403561325773 C-85.58739939847044 -19.19211949908861, -85.2675180372641 -19.24383543685144, -84.67329215284788 -19.3399052695533 M-85.90728075967677 -19.140403561325773 C-85.4614072492562 -19.212488932689855, -85.01553373883564 -19.284574304053937, -84.67329215284788 -19.3399052695533 M-84.67329215284788 -19.3399052695533 C-84.26317165636807 -19.379469100606645, -83.85305115988828 -19.41903293165999, -83.4290567896239 -19.45993515863156 M-84.67329215284788 -19.3399052695533 C-84.28248970472451 -19.37760551171505, -83.89168725660114 -19.415305753876805, -83.4290567896239 -19.45993515863156 M-83.4290567896239 -19.45993515863156 C-82.99959833262466 -19.47370705545735, -82.57013987562543 -19.487478952283137, -82.1796875 -19.5 M-83.4290567896239 -19.45993515863156 C-83.12591213806726 -19.469656417571713, -82.82276748651061 -19.479377676511863, -82.1796875 -19.5 M-82.1796875 -19.5 C-82.1796875 -19.5, -82.1796875 -19.5, -82.1796875 -19.5 M-82.1796875 -19.5 C-82.1796875 -19.5, -82.1796875 -19.5, -82.1796875 -19.5" stroke="#9370DB" stroke-width="1.3" fill="none" stroke-dasharray="0 0" style=""/></g><g class="label" style="" transform="translate(-89.3046875, -12)"><rect/><foreignObject width="178.609375" height="24"><div xmlns="http://www.w3.org/1999/xhtml" style="display: table-cell; white-space: nowrap; line-height: 1.5; max-width: 200px; text-align: center;"><span class="nodeLabel"><p>Nhân viên mở Nghỉ phép</p></span></div></foreignObject></g></g><g class="node default" id="my-svg-flowchart-B-1" data-look="classic" transform="translate(138, 124)"><rect class="basic label-container" style="" x="-87.109375" y="-27" width="174.21875" height="54"/><g class="label" style="" transform="translate(-57.109375, -12)"><rect/><foreignObject width="114.21875" height="24"><div xmlns="http://www.w3.org/1999/xhtml" style="display: table-cell; white-space: nowrap; line-height: 1.5; max-width: 200px; text-align: center;"><span class="nodeLabel"><p>leave_view · GET</p></span></div></foreignObject></g></g><g class="node default" id="my-svg-flowchart-C-3" data-look="classic" transform="translate(138, 252)"><rect class="basic label-container" style="" x="-130" y="-51" width="260" height="102"/><g class="label" style="" transform="translate(-100, -36)"><rect/><foreignObject width="200" height="72"><div xmlns="http://www.w3.org/1999/xhtml" style="display: table; white-space: break-spaces; line-height: 1.5; max-width: 200px; text-align: center; width: 200px;"><span class="nodeLabel"><p>get_user_leave_stats<br />used · remaining · pending_count</p></span></div></foreignObject></g></g><g class="node default" id="my-svg-flowchart-D-5" data-look="classic" transform="translate(138, 392)"><rect class="basic label-container" style="" x="-130" y="-39" width="260" height="78"/><g class="label" style="" transform="translate(-100, -24)"><rect/><foreignObject width="200" height="48"><div xmlns="http://www.w3.org/1999/xhtml" style="display: table; white-space: break-spaces; line-height: 1.5; max-width: 200px; text-align: center; width: 200px;"><span class="nodeLabel"><p>get_user_leave_requests danh sách</p></span></div></foreignObject></g></g><g class="node default" id="my-svg-flowchart-E-7" data-look="classic" transform="translate(138, 520)"><rect class="basic label-container" style="" x="-130" y="-39" width="260" height="78"/><g class="label" style="" transform="translate(-100, -24)"><rect/><foreignObject width="200" height="48"><div xmlns="http://www.w3.org/1999/xhtml" style="display: table; white-space: break-spaces; line-height: 1.5; max-width: 200px; text-align: center; width: 200px;"><span class="nodeLabel"><p>Hiển thị quỹ phép + bảng đơn + trạng thái</p></span></div></foreignObject></g></g></g></g></g><defs><filter id="my-svg-drop-shadow" height="130%" width="130%"><feDropShadow dx="4" dy="4" stdDeviation="0" flood-opacity="0.06" flood-color="#000000"/></filter></defs><defs><filter id="my-svg-drop-shadow-small" height="150%" width="150%"><feDropShadow dx="2" dy="2" stdDeviation="0" flood-opacity="0.06" flood-color="#000000"/></filter></defs></svg>