<svg id="my-svg" width="276" xmlns="http://www.w3.org/2000/svg" xmlns:xlink="http://www.w3.org/1999/xlink" class="flowchart" height="671" viewBox="0 0 276 671" role="graphics-document document" aria-roledescription="flowchart-v2" style="background-color: white;"><style>#my-svg{font-family:Segoe UI,Arial,sans-serif;font-size:16px;fill:#333;}@keyframes edge-animation-frame{from{stroke-dashoffset:0;}}@keyframes dash{to{stroke-dashoffset:0;}}#my-svg .edge-animation-slow{stroke-dasharray:9,5!important;stroke-dashoffset:900;animation:dash 50s linear infinite;stroke-linecap:round;}#my-svg .edge-animation-fast{stroke-dasharray:9,5!important;stroke-dashoffset:900;animation:dash 20s linear infinite;stroke-linecap:round;}#my-svg .error-icon{fill:#552222;}#my-svg .error-text{fill:#552222;stroke:#552222;}#my-svg .edge-thickness-normal{stroke-width:1px;}#my-svg .edge-thickness-thick{stroke-width:3.5px;}#my-svg .edge-pattern-solid{stroke-dasharray:0;}#my-svg .edge-thickness-invisible{stroke-width:0;fill:none;}#my-svg .edge-pattern-dashed{stroke-dasharray:3;}#my-svg .edge-pattern-dotted{stroke-dasharray:2;}#my-svg .marker{fill:#444444;stroke:#444444;}#my-svg .marker.cross{stroke:#444444;}#my-svg svg{font-family:Segoe UI,Arial,sans-serif;font-size:16px;}#my-svg p{margin:0;}#my-svg .label{font-family:Segoe UI,Arial,sans-serif;color:#333;}#my-svg .cluster-label text{fill:#333;}#my-svg .cluster-label span{color:#333;}#my-svg .cluster-label span p{background-color:transparent;}#my-svg .label text,#my-svg span{fill:#333;color:#333;}#my-svg .node rect,#my-svg .node circle,#my-svg .node ellipse,#my-svg .node polygon,#my-svg .node path{fill:#ECECFF;stroke:#9370DB;stroke-width:1px;}#my-svg .rough-node .label text,#my-svg .node .label text,#my-svg .image-shape .label,#my-svg .icon-shape .label{text-anchor:middle;}#my-svg .node .katex path{fill:#000;stroke:#000;stroke-width:1px;}#my-svg .rough-node .label,#my-svg .node .label,#my-svg .image-shape .label,#my-svg .icon-shape .label{text-align:center;}#my-svg .node.clickable{cursor:pointer;}#my-svg .root .anchor path{fill:#444444!important;stroke-width:0;stroke:#444444;}#my-svg .arrowheadPath{fill:#333333;}#my-svg .edgePath .path{stroke:#444444;stroke-width:1px;}#my-svg .flowchart-link{stroke:#444444;fill:none;}#my-svg .edgeLabel{background-color:rgba(232,232,232, 0.8);text-align:center;}#my-svg .edgeLabel p{background-color:rgba(232,232,232, 0.8);}#my-svg .edgeLabel rect{opacity:0.5;background-color:rgba(232,232,232, 0.8);fill:rgba(232,232,232, 0.8);}#my-svg .labelBkg{background-color:rgba(232, 232, 232, 0.5);}#my-svg .cluster rect{fill:#ffffde;stroke:#aaaa33;stroke-width:1px;}#my-svg .cluster text{fill:#333;}#my-svg .cluster span{color:#333;}#my-svg div.mermaidTooltip{position:absolute;text-align:center;max-width:200px;padding:2px;font-family:Segoe UI,Arial,sans-serif;font-size:12px;background:hsl(80, 100%, 96.2745098039%);border:1px solid #aaaa33;border-radius:2px;pointer-events:none;z-index:100;}#my-svg .flowchartTitleText{text-anchor:middle;font-size:18px;fill:#333;}#my-svg rect.text{fill:none;stroke-width:0;}#my-svg .icon-shape,#my-svg .image-shape{background-color:rgba(232,232,232, 0.8);text-align:center;}#my-svg .icon-shape p,#my-svg .image-shape p{background-color:rgba(232,232,232, 0.8);padding:2px;}#my-svg .icon-shape .label rect,#my-svg .image-shape .label rect{opacity:0.5;background-color:rgba(232,232,232, 0.8);fill:rgba(232,232,232, 0.8);}#my-svg .label-icon{display:inline-block;height:1em;overflow:visible;vertical-align:-0.125em;}#my-svg .node .label-icon path{fill:currentColor;stroke:revert;stroke-width:revert;}#my-svg .node .neo-node{stroke:#9370DB;}#my-svg [data-look="neo"].node rect,#my-svg [data-look="neo"].cluster rect,#my-svg [data-look="neo"].node polygon{stroke:#9370DB;filter:drop-shadow(1px 2px 2px rgba(185, 185, 185, 1));}#my-svg [data-look="neo"].node path{stroke:#9370DB;stroke-width:1px;}#my-svg [data-look="neo"].node .outer-path{filter:drop-shadow(1px 2px 2px rgba(185, 185, 185, 1));}#my-svg [data-look="neo"].node .neo-line path{stroke:#9370DB;filter:none;}#my-svg [data-look="neo"].node circle{stroke:#9370DB;filter:drop-shadow(1px 2px 2px rgba(185, 185, 185, 1));}#my-svg [data-look="neo"].node circle .state-start{fill:#000000;}#my-svg [data-look="neo"].icon-shape .icon{fill:#9370DB;filter:drop-shadow(1px 2px 2px rgba(185, 185, 185, 1));}#my-svg [data-look="neo"].icon-shape .icon-neo path{stroke:#9370DB;filter:drop-shadow(1px 2px 2px rgba(185, 185, 185, 1));}#my-svg :root{--mermaid-font-family:"trebuchet ms",verdana,arial,sans-serif;}</style><g><marker id="my-svg_flowchart-v2-pointEnd" class="marker flowchart-v2" viewBox="0 0 10 10" refX="5" refY="5" markerUnits="userSpaceOnUse" markerWidth="8" markerHeight="8" orient="auto"><path d="M 0 0 L 10 5 L 0 10 z" class="arrowMarkerPath" style="stroke-width: 1; stroke-dasharray: 1, 0;"/></marker><marker id="my-svg_flowchart-v2-pointStart" class="marker flowchart-v2" viewBox="0 0 10 10" refX="4.5" refY="5" markerUnits="userSpaceOnUse" markerWidth="8" markerHeight="8" orient="auto"><path d="M 0 5 L 10 10 L 10 0 z" class="arrowMarkerPath" style="stroke-width: 1; stroke-dasharray: 1, 0;"/></marker><marker id="my-svg_flowchart-v2-pointEnd-margin" class="marker flowchart-v2" viewBox="0 0 11.5 14" refX="11.5" refY="7" markerUnits="userSpaceOnUse" markerWidth="10.5" markerHeight="14" orient="auto"><path d="M 0 0 L 11.5 7 L 0 14 z" class="arrowMarkerPath" style="stroke-width: 0; stroke-dasharray: 1, 0;"/></marker><marker id="my-svg_flowchart-v2-pointStart-margin" class="marker flowchart-v2" viewBox="0 0 11.5 14" refX="1" refY="7" markerUnits="userSpaceOnUse" markerWidth="11.5" markerHeight="14" orient="auto"><polygon points="0,7 11.5,14 11.5,0" class="arrowMarkerPath" style="stroke-width: 0; stroke-dasharray: 1, 0;"/></marker><marker id="my-svg_flowchart-v2-circleEnd" class="marker flowchart-v2" viewBox="0 0 10 10" refX="11" refY="5" markerUnits="userSpaceOnUse" markerWidth="11" markerHeight="11" orient="auto"><circle cx="5" cy="5" r="5" class="arrowMarkerPath" style="stroke-width: 1; stroke-dasharray: 1, 0;"/></marker><marker id="my-svg_flowchart-v2-circleStart" class="marker flowchart-v2" viewBox="0 0 10 10" refX="-1" refY="5" markerUnits="userSpaceOnUse" markerWidth="11" markerHeight="11" orient="auto"><circle cx="5" cy="5" r="5" class="arrowMarkerPath" style="stroke-width: 1; stroke-dasharray: 1, 0;"/></marker><marker id="my-svg_flowchart-v2-circleEnd-margin" class="marker flowchart-v2" viewBox="0 0 10 10" refY="5" refX="12.25" markerUnits="userSpaceOnUse" markerWidth="14" markerHeight="14" orient="auto"><circle cx="5" cy="5" r="5" class="arrowMarkerPath" style="stroke-width: 0; stroke-dasharray: 1, 0;"/></marker><marker id="my-svg_flowchart-v2-circleStart-margin" class="marker flowchart-v2" viewBox="0 0 10 10" refX="-2" refY="5" markerUnits="userSpaceOnUse" markerWidth="14" markerHeight="14" orient="auto"><circle cx="5" cy="5" r="5" class="arrowMarkerPath" style="stroke-width: 0; stroke-dasharray: 1, 0;"/></marker><marker id="my-svg_flowchart-v2-crossEnd" class="marker cross flowchart-v2" viewBox="0 0 11 11" refX="12" refY="5.2" markerUnits="userSpaceOnUse" markerWidth="11" markerHeight="11" orient="auto"><path d="M 1,1 l 9,9 M 10,1 l -9,9" class="arrowMarkerPath" style="stroke-width: 2; stroke-dasharray: 1, 0;"/></marker><marker id="my-svg_flowchart-v2-crossStart" class="marker cross flowchart-v2" viewBox="0 0 11 11" refX="-1" refY="5.2" markerUnits="userSpaceOnUse" markerWidth="11" markerHeight="11" orient="auto"><path d="M 1,1 l 9,9 M 10,1 l -9,9" class="arrowMarkerPath" style="stroke-width: 2; stroke-dasharray: 1, 0;"/></marker><marker id="my-svg_flowchart-v2-crossEnd-margin" class="marker cross flowchart-v2" viewBox="0 0 15 15" refX="17.7" refY="7.5" markerUnits="userSpaceOnUse" markerWidth="12" markerHeight="12" orient="auto"><path d="M 1,1 L 14,14 M 1,14 L 14,1" class="arrowMarkerPath" style="stroke-width: 2.5;"/></marker><marker id="my-svg_flowchart-v2-crossStart-margin" class="marker cross flowchart-v2" viewBox="0 0 15 15" refX="-3.5" refY="7.5" markerUnits="userSpaceOnUse" markerWidth="12" markerHeight="12" orient="auto"><path d="M 1,1 L 14,14 M 1,14 L 14,1" class="arrowMarkerPath" style="stroke-width: 2.5; stroke-dasharray: 1, 0;"/></marker><g class="root"><g class="clusters"/><g class="edgePaths"><path d="M138.5,47.5L138.417,51.583C138.333,55.667,138.167,63.833,138.083,71.417C138,79,138,86,138,89.5L138,93" id="my-svg-L_A_B_0" class="edge-thickness-normal edge-pattern-solid edge-thickness-normal edge-pattern-solid flowchart-link" style=";" data-edge="true" data-et="edge" data-id="L_A_B_0" data-points="W3sieCI6MTM4LjUsInkiOjQ3LjV9LHsieCI6MTM4LCJ5Ijo3Mn0seyJ4IjoxMzgsInkiOjk3fV0=" data-look="classic" marker-end="url(#my-svg_flowchart-v2-pointEnd)"/><path d="M138,151L138,155.167C138,159.333,138,167.667,138,175.333C138,183,138,190,138,193.5L138,197" id="my-svg-L_B_C_0" class="edge-thickness-normal edge-pattern-solid edge-thickness-normal edge-pattern-solid flowchart-link" style=";" data-edge="true" data-et="edge" data-id="L_B_C_0" data-points="W3sieCI6MTM4LCJ5IjoxNTF9LHsieCI6MTM4LCJ5IjoxNzZ9LHsieCI6MTM4LCJ5IjoyMDF9XQ==" data-look="classic" marker-end="url(#my-svg_flowchart-v2-pointEnd)"/><path d="M138,279L138,283.167C138,287.333,138,295.667,138,303.333C138,311,138,318,138,321.5L138,325" id="my-svg-L_C_D_0" class="edge-thickness-normal edge-pattern-solid edge-thickness-normal edge-pattern-solid flowchart-link" style=";" data-edge="true" data-et="edge" data-id="L_C_D_0" data-points="W3sieCI6MTM4LCJ5IjoyNzl9LHsieCI6MTM4LCJ5IjozMDR9LHsieCI6MTM4LCJ5IjozMjl9XQ==" data-look="classic" marker-end="url(#my-svg_flowchart-v2-pointEnd)"/><path d="M138,407L138,411.167C138,415.333,138,423.667,138,431.333C138,439,138,446,138,449.5L138,453" id="my-svg-L_D_E_0" class="edge-thickness-normal edge-pattern-solid edge-thickness-normal edge-pattern-solid flowchart-link" style=";" data-edge="true" data-et="edge" data-id="L_D_E_0" data-points="W3sieCI6MTM4LCJ5Ijo0MDd9LHsieCI6MTM4LCJ5Ijo0MzJ9LHsieCI6MTM4LCJ5Ijo0NTd9XQ==" data-look="classic" marker-end="url(#my-svg_flowchart-v2-pointEnd)"/><path d="M138,535L138,539.167C138,543.333,138,551.667,138,559.333C138,567,138,574,138,577.5L138,581" id="my-svg-L_E_F_0" class="edge-thickness-normal edge-pattern-solid edge-thickness-normal edge-pattern-solid flowchart-link" style=";" data-edge="true" data-et="edge" data-id="L_E_F_0" data-points="W3sieCI6MTM4LCJ5Ijo1MzV9LHsieCI6MTM4LCJ5Ijo1NjB9LHsieCI6MTM4LCJ5Ijo1ODV9XQ==" data-look="classic" marker-end="url(#my-svg_flowchart-v2-pointEnd)"/></g><g class="edgeLabels"><g class="edgeLabel"><g class="label" data-id="L_A_B_0" transform="translate(0, 0)"><foreignObject width="0" height="0"><div xmlns="http://www.w3.org/1999/xhtml" class="labelBkg" style="display: table-cell; white-space: nowrap; line-height: 1.5; max-width: 200px; text-align: center;"><span class="edgeLabel"></span></div></foreignObject></g></g><g class="edgeLabel"><g class="label" data-id="L_B_C_0" transform="translate(0, 0)"><foreignObject width="0" height="0"><div xmlns="http://www.w3.org/1999/xhtml" class="labelBkg" style="display: table-cell; white-space: nowrap; line-height: 1.5; max-width: 200px; text-align: center;"><span class="edgeLabel"></span></div></foreignObject></g></g><g class="edgeLabel"><g class="label" data-id="L_C_D_0" transform="translate(0, 0)"><foreignObject width="0" height="0"><div xmlns="http://www.w3.org/1999/xhtml" class="labelBkg" style="display: table-cell; white-space: nowrap; line-height: 1.5; max-width: 200px; text-align: center;"><span class="edgeLabel"></span></div></foreignObject></g></g><g class="edgeLabel"><g class="label" data-id="L_D_E_0" transform="translate(0, 0)"><foreignObject width="0" height="0"><div xmlns="http://www.w3.org/1999/xhtml" class="labelBkg" style="display: table-cell; white-space: nowrap; line-height: 1.5; max-width: 200px; text-align: center;"><span class="edgeLabel"></span></div></foreignObject></g></g><g class="edgeLabel"><g class="label" data-id="L_E_F_0" transform="translate(0, 0)"><foreignObject width="0" height="0"><div xmlns="http://www.w3.org/1999/xhtml" class="labelBkg" style="display: table-cell; white-space: nowrap; line-height: 1.5; max-width: 200px; text-align: center;"><span class="edgeLabel"></span></div></foreignObject></g></g></g><g class="nodes"><g class="node default" id="my-svg-flowchart-A-0" data-look="classic" transform="translate(138, 27.5)"><g class="basic label-container outer-path"><path d="M-82.1796875 -19.5 C-41.85676440137159 -19.5, -1.533841302743184 -19.5, 82.1796875 -19.5 C82.1796875 -19.5, 82.1796875 -19.5, 82.1796875 -19.5 C82.63544958558214 -19.485384597002465, 83.09121167116427 -19.47076919400493, 83.4290567896239 -19.45993515863156 C83.83262877643014 -19.421003054430685, 84.23620076323638 -19.382070950229814, 84.67329215284786 -19.3399052695533 C84.94543246209632 -19.295907734833627, 85.21757277134478 -19.251910200113954, 85.90728075967675 -19.140403561325776 C86.2830770094481 -19.05463051961517, 86.65887325921948 -18.968857477904567, 87.12595188623538 -18.862249829261074 C87.5528813290198 -18.73553941164104, 87.97981077180421 -18.608828994021, 88.3242977514606 -18.50658706670804 C88.65728210234448 -18.384045747509177, 88.99026645322834 -18.261504428310317, 89.4973940951478 -18.074876768247425 C89.76253675295578 -17.957505978813323, 90.02767941076377 -17.840135189379225, 90.64042041279238 -17.568892924097174 C91.0802761062561 -17.339420490558172, 91.5201317997198 -17.10994805701917, 91.74867976407678 -16.990714730406097 C92.06812635837738 -16.797064327664508, 92.38757295267798 -16.603413924922922, 92.8176180736057 -16.342718045390892 C93.06267711573346 -16.171775466037516, 93.30773615786124 -16.00083288668414, 93.84284284457871 -15.627565626425154 C94.06117482309989 -15.453451683612467, 94.27950680162107 -15.279337740799782, 94.82014120850187 -14.848196188198123 C95.0080987585924 -14.677498114290158, 95.19605630868294 -14.506800040382194, 95.74549723676799 -14.007812326905688 C95.98917098953021 -13.75619917119153, 96.23284474229243 -13.504586015477374, 96.61510844296865 -13.10986736009568 C96.88813300313798 -12.789157176183197, 97.16115756330733 -12.468446992270716, 97.42540140812658 -12.158051136245305 C97.59490211782146 -11.930935627086479, 97.76440282751635 -11.703820117927654, 98.17304646464063 -11.156274872382312 C98.41517676467389 -10.784297710441859, 98.65730706470715 -10.412320548501407, 98.85497137860425 -10.108655082055241 C99.03314503813488 -9.792289707519163, 99.21131869766552 -9.475924332983084, 99.4683739742735 -9.019496659696287 C99.65667246997567 -8.62849080442834, 99.84497096567785 -8.237484949160393, 100.01073364880834 -7.893275190886684 C100.15779865123474 -7.530021791585067, 100.30486365366116 -7.1667683922834495, 100.47982172997033 -6.734618561215508 C100.58991459176929 -6.403036402392451, 100.70000745356826 -6.071454243569393, 100.87371063421489 -5.548287939305138 C100.93880481133793 -5.300055629940162, 101.00389898846096 -5.051823320575186, 101.19078178754556 -4.339158212148133 C101.27769796429317 -3.8928620142895967, 101.36461414104079 -3.4465658164310597, 101.42973227658177 -3.1121979531509023 C101.48712221755906 -2.6670929038568083, 101.54451215853634 -2.2219878545627143, 101.58958020250937 -1.872449005199798 C101.60998859068903 -1.5545718859470894, 101.6303969788687 -1.2366947666943808, 101.66966871591342 -0.6250057626472757 C101.66966871591342 -0.1661719165313455, 101.66966871591342 0.2926619295845847, 101.66966871591342 0.625005762647271 C101.65353617794118 0.8762830635152004, 101.63740363996894 1.1275603643831296, 101.58958020250937 1.8724490051997846 C101.54518895645205 2.2167387435773263, 101.50079771039472 2.5610284819548674, 101.42973227658177 3.1121979531508885 C101.34202113133546 3.5625761462336234, 101.25430998608914 4.012954339316359, 101.19078178754556 4.339158212148129 C101.10884618734265 4.6516141668355715, 101.02691058713975 4.964070121523014, 100.87371063421489 5.548287939305125 C100.76405907075082 5.878540977854794, 100.65440750728676 6.208794016404463, 100.47982172997033 6.734618561215495 C100.3118892871863 7.149414941644922, 100.1439568444023 7.5642113220743505, 100.01073364880834 7.893275190886679 C99.81111347853108 8.307790745654819, 99.61149330825383 8.722306300422959, 99.4683739742735 9.019496659696284 C99.3369967866256 9.25277015974794, 99.20561959897772 9.486043659799595, 98.85497137860425 10.108655082055236 C98.70938942937933 10.332308050291783, 98.56380748015442 10.555961018528327, 98.17304646464065 11.156274872382301 C97.88284476711802 11.5451187091441, 97.5926430695954 11.933962545905901, 97.42540140812659 12.158051136245302 C97.24877869910348 12.365522220380685, 97.07215599008039 12.57299330451607, 96.61510844296866 13.10986736009567 C96.37283872320587 13.36003073646466, 96.13056900344309 13.61019411283365, 95.74549723676799 14.007812326905684 C95.43960869775248 14.28561220467233, 95.13372015873698 14.563412082438976, 94.8201412085019 14.848196188198111 C94.51029595770082 15.095289530383566, 94.20045070689973 15.34238287256902, 93.84284284457871 15.627565626425152 C93.45215934236687 15.900089525151905, 93.06147584015503 16.17261342387866, 92.8176180736057 16.34271804539089 C92.42360633499263 16.58157027680813, 92.02959459637954 16.820422508225366, 91.74867976407678 16.990714730406093 C91.43393361222857 17.154917596220773, 91.11918746038036 17.31912046203545, 90.64042041279238 17.56889292409717 C90.27998933131938 17.728445072057113, 89.9195582498464 17.887997220017052, 89.4973940951478 18.07487676824742 C89.13558109559446 18.208027296645756, 88.77376809604111 18.34117782504409, 88.32429775146062 18.506587066708033 C88.04967999250702 18.58809217606743, 87.77506223355343 18.669597285426825, 87.12595188623541 18.86224982926107 C86.83083577447599 18.929608155957553, 86.53571966271657 18.996966482654035, 85.90728075967677 19.140403561325773 C85.51959811579414 19.20308108466491, 85.13191547191153 19.265758608004045, 84.67329215284788 19.3399052695533 C84.18137611412416 19.38735981819338, 83.68946007540043 19.434814366833468, 83.4290567896239 19.45993515863156 C82.99517698609307 19.473848839434986, 82.56129718256226 19.487762520238416, 82.1796875 19.5 C82.1796875 19.5, 82.1796875 19.5, 82.1796875 19.5 C30.6833411803635 19.5, -20.813005139273002 19.5, -82.1796875 19.5 C-82.638501260524 19.485286735726802, -83.09731502104799 19.47057347145361, -83.4290567896239 19.45993515863156 C-83.91306629904912 19.41324334336391, -84.39707580847434 19.366551528096256, -84.67329215284786 19.3399052695533 C-85.06814317662138 19.276068818145017, -85.46299420039489 19.21223236673674, -85.90728075967675 19.140403561325773 C-86.24445908149761 19.06344480966434, -86.58163740331847 18.986486058002907, -87.12595188623538 18.862249829261074 C-87.53286797964392 18.74147926868358, -87.93978407305246 18.62070870810609, -88.32429775146059 18.506587066708043 C-88.77479492022273 18.3407999442534, -89.22529208898486 18.175012821798756, -89.4973940951478 18.074876768247425 C-89.91508731512012 17.889976370194816, -90.33278053509244 17.705075972142208, -90.64042041279238 17.568892924097174 C-91.02195449544642 17.369846837560804, -91.40348857810046 17.170800751024437, -91.74867976407678 16.990714730406097 C-92.1252022412129 16.762464592074505, -92.50172471834901 16.53421445374291, -92.81761807360569 16.3427180453909 C-93.06857045471723 16.167664527880973, -93.31952283582878 15.992611010371046, -93.84284284457871 15.627565626425156 C-94.10128071767048 15.421468299955107, -94.35971859076224 15.215370973485058, -94.82014120850187 14.848196188198125 C-95.1861102092081 14.515832824765873, -95.55207920991433 14.183469461333623, -95.74549723676797 14.007812326905697 C-96.08098613419287 13.661392496163769, -96.41647503161775 13.31497266542184, -96.61510844296865 13.109867360095677 C-96.81899047707515 12.870375921617793, -97.02287251118165 12.630884483139909, -97.42540140812658 12.158051136245307 C-97.62432413817018 11.891512800220394, -97.82324686821379 11.62497446419548, -98.17304646464063 11.156274872382316 C-98.33890116629979 10.901477512410528, -98.50475586795893 10.64668015243874, -98.85497137860425 10.108655082055249 C-98.98527247079743 9.877292298449923, -99.1155735629906 9.645929514844598, -99.4683739742735 9.019496659696289 C-99.62171250013054 8.701085929835292, -99.77505102598758 8.382675199974296, -100.01073364880834 7.893275190886686 C-100.1251744172364 7.61060428030767, -100.23961518566443 7.327933369728655, -100.47982172997033 6.73461856121551 C-100.5595750577283 6.494414244975646, -100.63932838548627 6.254209928735782, -100.87371063421489 5.5482879393051325 C-100.97438789566115 5.164361907609377, -101.07506515710743 4.780435875913623, -101.19078178754556 4.339158212148136 C-101.23889611517225 4.092101308751832, -101.28701044279894 3.845044405355527, -101.42973227658177 3.112197953150904 C-101.4807952367433 2.7161637176601285, -101.53185819690482 2.3201294821693534, -101.58958020250937 1.872449005199809 C-101.60816769583957 1.5829337930273504, -101.62675518916977 1.2934185808548917, -101.66966871591342 0.6250057626472781 C-101.66966871591342 0.2236498976264345, -101.66966871591342 -0.17770596739440914, -101.66966871591342 -0.6250057626472687 C-101.64475754540017 -1.0130173513260288, -101.61984637488692 -1.401028940004789, -101.58958020250937 -1.8724490051997822 C-101.53295683263188 -2.3116086804204232, -101.4763334627544 -2.750768355641064, -101.42973227658177 -3.112197953150895 C-101.35735850437153 -3.4838219772483505, -101.28498473216128 -3.855446001345806, -101.19078178754556 -4.339158212148126 C-101.07824529465394 -4.7683086331684486, -100.9657088017623 -5.197459054188771, -100.87371063421489 -5.548287939305123 C-100.73561107206726 -5.964221817316652, -100.59751150991961 -6.380155695328181, -100.47982172997033 -6.734618561215485 C-100.33760219398113 -7.08590356473647, -100.19538265799194 -7.437188568257455, -100.01073364880834 -7.893275190886676 C-99.88794361821799 -8.148251316693303, -99.76515358762765 -8.403227442499931, -99.4683739742735 -9.019496659696282 C-99.27917788946024 -9.355433466463246, -99.089981804647 -9.691370273230211, -98.85497137860425 -10.108655082055243 C-98.66769797823433 -10.396357314972702, -98.4804245778644 -10.684059547890161, -98.17304646464063 -11.156274872382308 C-97.94588166983047 -11.460655002289396, -97.71871687502029 -11.765035132196482, -97.42540140812659 -12.158051136245302 C-97.2461876894057 -12.36856576780434, -97.0669739706848 -12.579080399363377, -96.61510844296866 -13.10986736009567 C-96.39661881269573 -13.335475841684712, -96.17812918242282 -13.561084323273754, -95.74549723676799 -14.007812326905677 C-95.42579948978063 -14.298153361980741, -95.10610174279327 -14.588494397055804, -94.8201412085019 -14.848196188198107 C-94.51726505835043 -15.089731858071044, -94.21438890819898 -15.33126752794398, -93.84284284457871 -15.627565626425149 C-93.4652326249558 -15.890970169151148, -93.08762240533288 -16.154374711877146, -92.81761807360571 -16.342718045390885 C-92.50426831788513 -16.532672508756256, -92.19091856216457 -16.72262697212163, -91.74867976407678 -16.99071473040609 C-91.37993469043235 -17.183088799133905, -91.0111896167879 -17.37546286786172, -90.6404204127924 -17.56889292409717 C-90.27441493078054 -17.73091269381695, -89.9084094487687 -17.892932463536727, -89.49739409514781 -18.07487676824742 C-89.05427486964662 -18.23794873938108, -88.61115564414541 -18.401020710514736, -88.32429775146062 -18.506587066708033 C-88.06013620817603 -18.584988826142663, -87.79597466489145 -18.663390585577293, -87.12595188623541 -18.862249829261067 C-86.64871895311938 -18.971175132008874, -86.17148602000336 -19.080100434756677, -85.90728075967677 -19.140403561325773 C-85.51421983621 -19.203950603198894, -85.12115891274323 -19.267497645072012, -84.67329215284788 -19.3399052695533 C-84.2868657013025 -19.377183364588078, -83.90043924975713 -19.41446145962286, -83.4290567896239 -19.45993515863156 C-83.02321191124531 -19.472949813952027, -82.61736703286672 -19.485964469272496, -82.1796875 -19.5 C-82.1796875 -19.5, -82.1796875 -19.5, -82.1796875 -19.5" stroke="none" stroke-width="0" fill="#ECECFF" style=""/><path d="M-82.1796875 -19.5 C-16.960701380925045 -19.5, 48.25828473814991 -19.5, 82.1796875 -19.5 M-82.1796875 -19.5 C-20.150235087180405 -19.5, 41.87921732563919 -19.5, 82.1796875 -19.5 M82.1796875 -19.5 C82.1796875 -19.5, 82.1796875 -19.5, 82.1796875 -19.5 M82.1796875 -19.5 C82.1796875 -19.5, 82.1796875 -19.5, 82.1796875 -19.5 M82.1796875 -19.5 C82.63679424702687 -19.485341476327157, 83.09390099405374 -19.470682952654315, 83.4290567896239 -19.45993515863156 M82.1796875 -19.5 C82.58574196699571 -19.48697862358052, 82.99179643399141 -19.473957247161042, 83.4290567896239 -19.45993515863156 M83.4290567896239 -19.45993515863156 C83.79883926924379 -19.424262687551124, 84.16862174886367 -19.388590216470693, 84.67329215284786 -19.3399052695533 M83.4290567896239 -19.45993515863156 C83.77097580888577 -19.42695064206115, 84.11289482814765 -19.393966125490742, 84.67329215284786 -19.3399052695533 M84.67329215284786 -19.3399052695533 C85.04790122514937 -19.279341379880336, 85.42251029745087 -19.218777490207373, 85.90728075967675 -19.140403561325776 M84.67329215284786 -19.3399052695533 C85.0386589007798 -19.280835607209113, 85.40402564871172 -19.221765944864927, 85.90728075967675 -19.140403561325776 M85.90728075967675 -19.140403561325776 C86.36652682627884 -19.035583643484504, 86.82577289288092 -18.930763725643235, 87.12595188623538 -18.862249829261074 M85.90728075967675 -19.140403561325776 C86.35640105346533 -19.037894785052345, 86.80552134725393 -18.93538600877891, 87.12595188623538 -18.862249829261074 M87.12595188623538 -18.862249829261074 C87.43603580965893 -18.770218548452696, 87.74611973308248 -18.678187267644315, 88.3242977514606 -18.50658706670804 M87.12595188623538 -18.862249829261074 C87.42980330441421 -18.77206832329424, 87.73365472259304 -18.681886817327406, 88.3242977514606 -18.50658706670804 M88.3242977514606 -18.50658706670804 C88.71426950129704 -18.363073857908894, 89.10424125113347 -18.21956064910975, 89.4973940951478 -18.074876768247425 M88.3242977514606 -18.50658706670804 C88.69942447412504 -18.36853696513412, 89.07455119678946 -18.230486863560195, 89.4973940951478 -18.074876768247425 M89.4973940951478 -18.074876768247425 C89.87934576858902 -17.90579809260883, 90.26129744203023 -17.73671941697023, 90.64042041279238 -17.568892924097174 M89.4973940951478 -18.074876768247425 C89.94305170376306 -17.8775973648767, 90.38870931237832 -17.680317961505974, 90.64042041279238 -17.568892924097174 M90.64042041279238 -17.568892924097174 C90.9197538996967 -17.423164822900823, 91.19908738660104 -17.277436721704476, 91.74867976407678 -16.990714730406097 M90.64042041279238 -17.568892924097174 C90.99597501573977 -17.38340031548311, 91.35152961868717 -17.197907706869053, 91.74867976407678 -16.990714730406097 M91.74867976407678 -16.990714730406097 C91.99807442345355 -16.839530222286204, 92.24746908283032 -16.68834571416631, 92.8176180736057 -16.342718045390892 M91.74867976407678 -16.990714730406097 C92.10071921166089 -16.77730634846719, 92.45275865924498 -16.563897966528277, 92.8176180736057 -16.342718045390892 M92.8176180736057 -16.342718045390892 C93.22474621863554 -16.058723075711413, 93.6318743636654 -15.774728106031937, 93.84284284457871 -15.627565626425154 M92.8176180736057 -16.342718045390892 C93.06865410587969 -16.167606176451248, 93.31969013815367 -15.9924943075116, 93.84284284457871 -15.627565626425154 M93.84284284457871 -15.627565626425154 C94.05662319227821 -15.457081488068773, 94.27040353997772 -15.286597349712393, 94.82014120850187 -14.848196188198123 M93.84284284457871 -15.627565626425154 C94.13577847088521 -15.393957259790113, 94.42871409719173 -15.160348893155073, 94.82014120850187 -14.848196188198123 M94.82014120850187 -14.848196188198123 C95.10610530196595 -14.588491164709344, 95.39206939543003 -14.328786141220565, 95.74549723676799 -14.007812326905688 M94.82014120850187 -14.848196188198123 C95.1482488858071 -14.550217476922935, 95.47635656311233 -14.252238765647748, 95.74549723676799 -14.007812326905688 M95.74549723676799 -14.007812326905688 C95.94313773116542 -13.80373228985398, 96.14077822556284 -13.599652252802269, 96.61510844296865 -13.10986736009568 M95.74549723676799 -14.007812326905688 C96.00430631885864 -13.740570701026284, 96.26311540094927 -13.47332907514688, 96.61510844296865 -13.10986736009568 M96.61510844296865 -13.10986736009568 C96.82963049637924 -12.857877549508968, 97.04415254978981 -12.605887738922258, 97.42540140812658 -12.158051136245305 M96.61510844296865 -13.10986736009568 C96.86479547913125 -12.816570759824256, 97.11448251529384 -12.52327415955283, 97.42540140812658 -12.158051136245305 M97.42540140812658 -12.158051136245305 C97.64605146817327 -11.862400157416744, 97.86670152821995 -11.566749178588182, 98.17304646464063 -11.156274872382312 M97.42540140812658 -12.158051136245305 C97.70535513119955 -11.782938651636364, 97.98530885427253 -11.407826167027423, 98.17304646464063 -11.156274872382312 M98.17304646464063 -11.156274872382312 C98.3818688321302 -10.835467639261214, 98.59069119961974 -10.514660406140118, 98.85497137860425 -10.108655082055241 M98.17304646464063 -11.156274872382312 C98.37893883176953 -10.83996890663044, 98.58483119889844 -10.523662940878568, 98.85497137860425 -10.108655082055241 M98.85497137860425 -10.108655082055241 C99.03868936447627 -9.782445194676114, 99.22240735034829 -9.456235307296987, 99.4683739742735 -9.019496659696287 M98.85497137860425 -10.108655082055241 C98.9782428492311 -9.889774103367301, 99.10151431985796 -9.67089312467936, 99.4683739742735 -9.019496659696287 M99.4683739742735 -9.019496659696287 C99.63009109560016 -8.683687597069405, 99.79180821692681 -8.347878534442522, 100.01073364880834 -7.893275190886684 M99.4683739742735 -9.019496659696287 C99.65137624414712 -8.639488530682415, 99.83437851402074 -8.259480401668542, 100.01073364880834 -7.893275190886684 M100.01073364880834 -7.893275190886684 C100.17745535302302 -7.481469358131541, 100.34417705723772 -7.069663525376399, 100.47982172997033 -6.734618561215508 M100.01073364880834 -7.893275190886684 C100.10764243025612 -7.653908627106846, 100.2045512117039 -7.414542063327008, 100.47982172997033 -6.734618561215508 M100.47982172997033 -6.734618561215508 C100.58607229317818 -6.414608793561754, 100.69232285638603 -6.094599025908001, 100.87371063421489 -5.548287939305138 M100.47982172997033 -6.734618561215508 C100.60990022896252 -6.342842847445296, 100.73997872795472 -5.951067133675084, 100.87371063421489 -5.548287939305138 M100.87371063421489 -5.548287939305138 C100.9935500089192 -5.0912884648440615, 101.1133893836235 -4.634288990382986, 101.19078178754556 -4.339158212148133 M100.87371063421489 -5.548287939305138 C100.95649640734563 -5.232589906776602, 101.03928218047636 -4.916891874248067, 101.19078178754556 -4.339158212148133 M101.19078178754556 -4.339158212148133 C101.26899554484437 -3.9375470989021717, 101.34720930214318 -3.5359359856562103, 101.42973227658177 -3.1121979531509023 M101.19078178754556 -4.339158212148133 C101.27149365236235 -3.924719844772608, 101.35220551717913 -3.510281477397083, 101.42973227658177 -3.1121979531509023 M101.42973227658177 -3.1121979531509023 C101.47145831994125 -2.788579000594014, 101.51318436330074 -2.464960048037126, 101.58958020250937 -1.872449005199798 M101.42973227658177 -3.1121979531509023 C101.47877266251523 -2.7318504039706593, 101.52781304844866 -2.3515028547904167, 101.58958020250937 -1.872449005199798 M101.58958020250937 -1.872449005199798 C101.61528630966237 -1.4720556366955206, 101.64099241681538 -1.0716622681912433, 101.66966871591342 -0.6250057626472757 M101.58958020250937 -1.872449005199798 C101.6119580022797 -1.5238967107420134, 101.63433580205003 -1.1753444162842288, 101.66966871591342 -0.6250057626472757 M101.66966871591342 -0.6250057626472757 C101.66966871591342 -0.1540370162173536, 101.66966871591342 0.3169317302125685, 101.66966871591342 0.625005762647271 M101.66966871591342 -0.6250057626472757 C101.66966871591342 -0.21261655728229445, 101.66966871591342 0.1997726480826868, 101.66966871591342 0.625005762647271 M101.66966871591342 0.625005762647271 C101.64144434063893 1.0646231898532217, 101.61321996536442 1.5042406170591724, 101.58958020250937 1.8724490051997846 M101.66966871591342 0.625005762647271 C101.63982772203896 1.0898033294586926, 101.6099867281645 1.5546008962701143, 101.58958020250937 1.8724490051997846 M101.58958020250937 1.8724490051997846 C101.53782571816333 2.2738465657087, 101.4860712338173 2.675244126217615, 101.42973227658177 3.1121979531508885 M101.58958020250937 1.8724490051997846 C101.54938886705173 2.18416506633236, 101.50919753159408 2.4958811274649353, 101.42973227658177 3.1121979531508885 M101.42973227658177 3.1121979531508885 C101.36967030511737 3.4206034825184597, 101.30960833365296 3.7290090118860313, 101.19078178754556 4.339158212148129 M101.42973227658177 3.1121979531508885 C101.3489300195905 3.5271004652380373, 101.26812776259922 3.942002977325186, 101.19078178754556 4.339158212148129 M101.19078178754556 4.339158212148129 C101.11178226199489 4.640417641683795, 101.03278273644422 4.941677071219463, 100.87371063421489 5.548287939305125 M101.19078178754556 4.339158212148129 C101.07068334071792 4.797145640898055, 100.95058489389027 5.255133069647981, 100.87371063421489 5.548287939305125 M100.87371063421489 5.548287939305125 C100.75814147215061 5.896363841997319, 100.64257231008635 6.2444397446895135, 100.47982172997033 6.734618561215495 M100.87371063421489 5.548287939305125 C100.71986740542278 6.011639232837188, 100.56602417663066 6.474990526369252, 100.47982172997033 6.734618561215495 M100.47982172997033 6.734618561215495 C100.38460491317853 6.969805939583125, 100.28938809638676 7.2049933179507555, 100.01073364880834 7.893275190886679 M100.47982172997033 6.734618561215495 C100.34970037844464 7.056020815209118, 100.21957902691896 7.3774230692027425, 100.01073364880834 7.893275190886679 M100.01073364880834 7.893275190886679 C99.8280917970119 8.272534904051604, 99.64544994521545 8.651794617216527, 99.4683739742735 9.019496659696284 M100.01073364880834 7.893275190886679 C99.87417808515305 8.176835740637879, 99.73762252149777 8.46039629038908, 99.4683739742735 9.019496659696284 M99.4683739742735 9.019496659696284 C99.22374011590982 9.453868847085326, 98.97910625754614 9.888241034474369, 98.85497137860425 10.108655082055236 M99.4683739742735 9.019496659696284 C99.29498437939561 9.327367443002345, 99.12159478451771 9.635238226308406, 98.85497137860425 10.108655082055236 M98.85497137860425 10.108655082055236 C98.71643280458164 10.321487534569972, 98.57789423055904 10.534319987084707, 98.17304646464065 11.156274872382301 M98.85497137860425 10.108655082055236 C98.64595251968288 10.429764178780943, 98.43693366076151 10.750873275506649, 98.17304646464065 11.156274872382301 M98.17304646464065 11.156274872382301 C98.01152829695064 11.372694502479126, 97.85001012926064 11.58911413257595, 97.42540140812659 12.158051136245302 M98.17304646464065 11.156274872382301 C98.00848057653671 11.376778170180758, 97.84391468843276 11.597281467979215, 97.42540140812659 12.158051136245302 M97.42540140812659 12.158051136245302 C97.22836782215845 12.389497997852128, 97.0313342361903 12.620944859458957, 96.61510844296866 13.10986736009567 M97.42540140812659 12.158051136245302 C97.2147012096933 12.405551578505973, 97.00400101126002 12.653052020766644, 96.61510844296866 13.10986736009567 M96.61510844296866 13.10986736009567 C96.33465237780622 13.399461273247063, 96.05419631264378 13.689055186398456, 95.74549723676799 14.007812326905684 M96.61510844296866 13.10986736009567 C96.36280819561176 13.37038807972721, 96.11050794825486 13.63090879935875, 95.74549723676799 14.007812326905684 M95.74549723676799 14.007812326905684 C95.38587895248041 14.334408137717265, 95.02626066819285 14.661003948528846, 94.8201412085019 14.848196188198111 M95.74549723676799 14.007812326905684 C95.5074584250356 14.223992877559215, 95.2694196133032 14.440173428212745, 94.8201412085019 14.848196188198111 M94.8201412085019 14.848196188198111 C94.55005077051409 15.063586125084974, 94.27996033252629 15.27897606197184, 93.84284284457871 15.627565626425152 M94.8201412085019 14.848196188198111 C94.58026161990844 15.039493776637443, 94.340382031315 15.230791365076774, 93.84284284457871 15.627565626425152 M93.84284284457871 15.627565626425152 C93.45873816818948 15.895500421050828, 93.07463349180026 16.163435215676504, 92.8176180736057 16.34271804539089 M93.84284284457871 15.627565626425152 C93.43699707054645 15.910666069609654, 93.03115129651421 16.193766512794156, 92.8176180736057 16.34271804539089 M92.8176180736057 16.34271804539089 C92.43315509748625 16.575781760869734, 92.04869212136678 16.80884547634858, 91.74867976407678 16.990714730406093 M92.8176180736057 16.34271804539089 C92.48822776309513 16.542396387334723, 92.15883745258455 16.74207472927856, 91.74867976407678 16.990714730406093 M91.74867976407678 16.990714730406093 C91.38818875004752 17.178782661519644, 91.02769773601825 17.366850592633195, 90.64042041279238 17.56889292409717 M91.74867976407678 16.990714730406093 C91.44510788396227 17.14908798581477, 91.14153600384773 17.307461241223447, 90.64042041279238 17.56889292409717 M90.64042041279238 17.56889292409717 C90.27557609735025 17.730398679821317, 89.91073178190811 17.891904435545463, 89.4973940951478 18.07487676824742 M90.64042041279238 17.56889292409717 C90.31522890481793 17.712845558214116, 89.99003739684348 17.856798192331063, 89.4973940951478 18.07487676824742 M89.4973940951478 18.07487676824742 C89.17022502894848 18.195278008926465, 88.84305596274916 18.31567924960551, 88.32429775146062 18.506587066708033 M89.4973940951478 18.07487676824742 C89.15102132880916 18.202345148094793, 88.80464856247052 18.329813527942168, 88.32429775146062 18.506587066708033 M88.32429775146062 18.506587066708033 C88.01736296597032 18.59768369990799, 87.71042818048001 18.688780333107946, 87.12595188623541 18.86224982926107 M88.32429775146062 18.506587066708033 C87.99564205412729 18.604130352527605, 87.66698635679397 18.701673638347177, 87.12595188623541 18.86224982926107 M87.12595188623541 18.86224982926107 C86.81115046448873 18.93410119950349, 86.49634904274204 19.005952569745915, 85.90728075967677 19.140403561325773 M87.12595188623541 18.86224982926107 C86.85333751720526 18.92447228001719, 86.5807231481751 18.986694730773312, 85.90728075967677 19.140403561325773 M85.90728075967677 19.140403561325773 C85.43354545307312 19.21699341182528, 84.95981014646948 19.293583262324784, 84.67329215284788 19.3399052695533 M85.90728075967677 19.140403561325773 C85.61757200143909 19.187241426632667, 85.3278632432014 19.23407929193956, 84.67329215284788 19.3399052695533 M84.67329215284788 19.3399052695533 C84.25100854273303 19.380642461550732, 83.82872493261819 19.421379653548165, 83.4290567896239 19.45993515863156 M84.67329215284788 19.3399052695533 C84.37339469028451 19.368836017087318, 84.07349722772115 19.397766764621338, 83.4290567896239 19.45993515863156 M83.4290567896239 19.45993515863156 C83.08336874716456 19.471020701312273, 82.73768070470521 19.482106243992988, 82.1796875 19.5 M83.4290567896239 19.45993515863156 C82.99265457166949 19.47392972835597, 82.55625235371508 19.48792429808038, 82.1796875 19.5 M82.1796875 19.5 C82.1796875 19.5, 82.1796875 19.5, 82.1796875 19.5 M82.1796875 19.5 C82.1796875 19.5, 82.1796875 19.5, 82.1796875 19.5 M82.1796875 19.5 C24.314502933993495 19.5, -33.55068163201301 19.5, -82.1796875 19.5 M82.1796875 19.5 C45.44153627299385 19.5, 8.703385045987702 19.5, -82.1796875 19.5 M-82.1796875 19.5 C-82.65700095892316 19.48469348640662, -83.13431441784634 19.469386972813243, -83.4290567896239 19.45993515863156 M-82.1796875 19.5 C-82.46604859267657 19.490816957125915, -82.75240968535314 19.48163391425183, -83.4290567896239 19.45993515863156 M-83.4290567896239 19.45993515863156 C-83.79228240870525 19.424895220001503, -84.15550802778658 19.389855281371442, -84.67329215284786 19.3399052695533 M-83.4290567896239 19.45993515863156 C-83.92422307214787 19.412167062881053, -84.41938935467182 19.36439896713055, -84.67329215284786 19.3399052695533 M-84.67329215284786 19.3399052695533 C-85.1060791973298 19.269935616515113, -85.53886624181175 19.19996596347693, -85.90728075967675 19.140403561325773 M-84.67329215284786 19.3399052695533 C-85.13118811443044 19.265876201520843, -85.58908407601301 19.19184713348839, -85.90728075967675 19.140403561325773 M-85.90728075967675 19.140403561325773 C-86.36993242225694 19.03480633842609, -86.83258408483712 18.92920911552641, -87.12595188623538 18.862249829261074 M-85.90728075967675 19.140403561325773 C-86.26706488557456 19.058285182400436, -86.62684901147236 18.9761668034751, -87.12595188623538 18.862249829261074 M-87.12595188623538 18.862249829261074 C-87.48489681479884 18.75571685860382, -87.8438417433623 18.649183887946563, -88.32429775146059 18.506587066708043 M-87.12595188623538 18.862249829261074 C-87.42453970682737 18.773630531428825, -87.72312752741936 18.68501123359658, -88.32429775146059 18.506587066708043 M-88.32429775146059 18.506587066708043 C-88.66307771772725 18.381912907474234, -89.0018576839939 18.25723874824043, -89.4973940951478 18.074876768247425 M-88.32429775146059 18.506587066708043 C-88.62057104337896 18.397555756561797, -88.91684433529733 18.28852444641555, -89.4973940951478 18.074876768247425 M-89.4973940951478 18.074876768247425 C-89.87131021167636 17.90935519528773, -90.24522632820494 17.743833622328037, -90.64042041279238 17.568892924097174 M-89.4973940951478 18.074876768247425 C-89.84074790154672 17.92288422338341, -90.18410170794563 17.77089167851939, -90.64042041279238 17.568892924097174 M-90.64042041279238 17.568892924097174 C-91.08244696369104 17.338287955624864, -91.5244735145897 17.10768298715255, -91.74867976407678 16.990714730406097 M-90.64042041279238 17.568892924097174 C-90.9140010383315 17.426166086990165, -91.18758166387065 17.283439249883152, -91.74867976407678 16.990714730406097 M-91.74867976407678 16.990714730406097 C-92.05918902490968 16.80248219173423, -92.36969828574257 16.61424965306237, -92.81761807360569 16.3427180453909 M-91.74867976407678 16.990714730406097 C-92.04463424146904 16.811305386989353, -92.34058871886128 16.631896043572606, -92.81761807360569 16.3427180453909 M-92.81761807360569 16.3427180453909 C-93.05753849529876 16.17535994520547, -93.29745891699184 16.008001845020043, -93.84284284457871 15.627565626425156 M-92.81761807360569 16.3427180453909 C-93.04723116505886 16.182549892583694, -93.27684425651204 16.022381739776492, -93.84284284457871 15.627565626425156 M-93.84284284457871 15.627565626425156 C-94.07345129504738 15.443661523924993, -94.30405974551603 15.259757421424828, -94.82014120850187 14.848196188198125 M-93.84284284457871 15.627565626425156 C-94.06617710924411 15.44946249352888, -94.2895113739095 15.271359360632605, -94.82014120850187 14.848196188198125 M-94.82014120850187 14.848196188198125 C-95.10907015604526 14.585798562680251, -95.39799910358866 14.323400937162376, -95.74549723676797 14.007812326905697 M-94.82014120850187 14.848196188198125 C-95.11209668696681 14.58304994737492, -95.40405216543176 14.317903706551714, -95.74549723676797 14.007812326905697 M-95.74549723676797 14.007812326905697 C-96.04616736117478 13.697345737979363, -96.34683748558159 13.38687914905303, -96.61510844296865 13.109867360095677 M-95.74549723676797 14.007812326905697 C-96.02826591807597 13.715830447714703, -96.31103459938396 13.42384856852371, -96.61510844296865 13.109867360095677 M-96.61510844296865 13.109867360095677 C-96.81883581232881 12.87055759962951, -97.02256318168898 12.631247839163345, -97.42540140812658 12.158051136245307 M-96.61510844296865 13.109867360095677 C-96.84986241788108 12.834111983283945, -97.08461639279352 12.558356606472213, -97.42540140812658 12.158051136245307 M-97.42540140812658 12.158051136245307 C-97.62895651075162 11.885305842979097, -97.83251161337665 11.612560549712885, -98.17304646464063 11.156274872382316 M-97.42540140812658 12.158051136245307 C-97.5799850999017 11.950923072130676, -97.73456879167682 11.743795008016043, -98.17304646464063 11.156274872382316 M-98.17304646464063 11.156274872382316 C-98.35729426580849 10.873220772326379, -98.54154206697635 10.59016667227044, -98.85497137860425 10.108655082055249 M-98.17304646464063 11.156274872382316 C-98.33430301655868 10.908541505188959, -98.49555956847672 10.660808137995602, -98.85497137860425 10.108655082055249 M-98.85497137860425 10.108655082055249 C-99.09549557161358 9.681580021651595, -99.33601976462292 9.254504961247939, -99.4683739742735 9.019496659696289 M-98.85497137860425 10.108655082055249 C-99.09211971574926 9.687574195581165, -99.32926805289428 9.266493309107084, -99.4683739742735 9.019496659696289 M-99.4683739742735 9.019496659696289 C-99.6403733106116 8.662336357593997, -99.81237264694968 8.305176055491703, -100.01073364880834 7.893275190886686 M-99.4683739742735 9.019496659696289 C-99.67397909904588 8.592553218861514, -99.87958422381827 8.165609778026738, -100.01073364880834 7.893275190886686 M-100.01073364880834 7.893275190886686 C-100.10984633860224 7.64846493088227, -100.20895902839612 7.403654670877853, -100.47982172997033 6.73461856121551 M-100.01073364880834 7.893275190886686 C-100.17487272893882 7.487848489551181, -100.33901180906929 7.082421788215678, -100.47982172997033 6.73461856121551 M-100.47982172997033 6.73461856121551 C-100.58389577399635 6.421164122556181, -100.68796981802237 6.107709683896852, -100.87371063421489 5.5482879393051325 M-100.47982172997033 6.73461856121551 C-100.62984325001776 6.282777645515816, -100.77986477006519 5.8309367298161225, -100.87371063421489 5.5482879393051325 M-100.87371063421489 5.5482879393051325 C-100.97888350442871 5.147218202969522, -101.08405637464254 4.746148466633911, -101.19078178754556 4.339158212148136 M-100.87371063421489 5.5482879393051325 C-100.97114480400718 5.176729221650814, -101.06857897379948 4.805170503996495, -101.19078178754556 4.339158212148136 M-101.19078178754556 4.339158212148136 C-101.24802319723895 4.0452356713487925, -101.30526460693234 3.7513131305494487, -101.42973227658177 3.112197953150904 M-101.19078178754556 4.339158212148136 C-101.26577323267496 3.95409299085622, -101.34076467780436 3.569027769564304, -101.42973227658177 3.112197953150904 M-101.42973227658177 3.112197953150904 C-101.46969994106227 2.802216639948181, -101.50966760554279 2.4922353267454582, -101.58958020250937 1.872449005199809 M-101.42973227658177 3.112197953150904 C-101.48547957627763 2.6798329052594125, -101.54122687597346 2.247467857367921, -101.58958020250937 1.872449005199809 M-101.58958020250937 1.872449005199809 C-101.614336436271 1.4868506814900442, -101.63909267003265 1.1012523577802793, -101.66966871591342 0.6250057626472781 M-101.58958020250937 1.872449005199809 C-101.61224964436848 1.5193541498000773, -101.63491908622758 1.1662592944003456, -101.66966871591342 0.6250057626472781 M-101.66966871591342 0.6250057626472781 C-101.66966871591342 0.2502656546306409, -101.66966871591342 -0.12447445338599639, -101.66966871591342 -0.6250057626472687 M-101.66966871591342 0.6250057626472781 C-101.66966871591342 0.3551218245309794, -101.66966871591342 0.08523788641468066, -101.66966871591342 -0.6250057626472687 M-101.66966871591342 -0.6250057626472687 C-101.64337014360022 -1.0346272542506623, -101.61707157128704 -1.4442487458540558, -101.58958020250937 -1.8724490051997822 M-101.66966871591342 -0.6250057626472687 C-101.65171295043208 -0.9046813036520585, -101.63375718495075 -1.1843568446568482, -101.58958020250937 -1.8724490051997822 M-101.58958020250937 -1.8724490051997822 C-101.54406574337409 -2.2254501624064678, -101.4985512842388 -2.578451319613153, -101.42973227658177 -3.112197953150895 M-101.58958020250937 -1.8724490051997822 C-101.54667355446747 -2.2052244945367008, -101.50376690642558 -2.537999983873619, -101.42973227658177 -3.112197953150895 M-101.42973227658177 -3.112197953150895 C-101.35739622695122 -3.4836282797743032, -101.28506017732066 -3.8550586063977113, -101.19078178754556 -4.339158212148126 M-101.42973227658177 -3.112197953150895 C-101.3501233015853 -3.520973214394953, -101.27051432658884 -3.929748475639011, -101.19078178754556 -4.339158212148126 M-101.19078178754556 -4.339158212148126 C-101.10110571351514 -4.681131948282444, -101.01142963948473 -5.0231056844167625, -100.87371063421489 -5.548287939305123 M-101.19078178754556 -4.339158212148126 C-101.11854535017527 -4.614627055311038, -101.04630891280499 -4.890095898473949, -100.87371063421489 -5.548287939305123 M-100.87371063421489 -5.548287939305123 C-100.78151454734818 -5.825967863496084, -100.68931846048146 -6.103647787687045, -100.47982172997033 -6.734618561215485 M-100.87371063421489 -5.548287939305123 C-100.74910792564363 -5.923571444776192, -100.62450521707237 -6.298854950247261, -100.47982172997033 -6.734618561215485 M-100.47982172997033 -6.734618561215485 C-100.34154185698989 -7.076172520936628, -100.20326198400946 -7.4177264806577705, -100.01073364880834 -7.893275190886676 M-100.47982172997033 -6.734618561215485 C-100.31337660121405 -7.145741247241142, -100.14693147245777 -7.556863933266801, -100.01073364880834 -7.893275190886676 M-100.01073364880834 -7.893275190886676 C-99.8090213733134 -8.31213504690321, -99.60730909781847 -8.730994902919743, -99.4683739742735 -9.019496659696282 M-100.01073364880834 -7.893275190886676 C-99.86036206339527 -8.20552500543343, -99.70999047798219 -8.517774819980183, -99.4683739742735 -9.019496659696282 M-99.4683739742735 -9.019496659696282 C-99.26164038263994 -9.38657308568784, -99.05490679100637 -9.753649511679397, -98.85497137860425 -10.108655082055243 M-99.4683739742735 -9.019496659696282 C-99.29140735086455 -9.333718819372674, -99.11444072745557 -9.647940979049068, -98.85497137860425 -10.108655082055243 M-98.85497137860425 -10.108655082055243 C-98.68958404340644 -10.362734441636933, -98.52419670820865 -10.616813801218623, -98.17304646464063 -11.156274872382308 M-98.85497137860425 -10.108655082055243 C-98.70409884730635 -10.340435805076096, -98.55322631600845 -10.572216528096948, -98.17304646464063 -11.156274872382308 M-98.17304646464063 -11.156274872382308 C-97.95326796118844 -11.450758044774693, -97.73348945773624 -11.745241217167079, -97.42540140812659 -12.158051136245302 M-98.17304646464063 -11.156274872382308 C-97.94839141414062 -11.457292173556207, -97.72373636364058 -11.758309474730105, -97.42540140812659 -12.158051136245302 M-97.42540140812659 -12.158051136245302 C-97.13683978035905 -12.497012043842815, -96.84827815259152 -12.83597295144033, -96.61510844296866 -13.10986736009567 M-97.42540140812659 -12.158051136245302 C-97.24822655748414 -12.366170797344516, -97.0710517068417 -12.574290458443729, -96.61510844296866 -13.10986736009567 M-96.61510844296866 -13.10986736009567 C-96.36028028606248 -13.372998353882076, -96.10545212915629 -13.636129347668481, -95.74549723676799 -14.007812326905677 M-96.61510844296866 -13.10986736009567 C-96.27119388329265 -13.464987378871614, -95.92727932361665 -13.820107397647558, -95.74549723676799 -14.007812326905677 M-95.74549723676799 -14.007812326905677 C-95.45727555124398 -14.269567635770668, -95.16905386571999 -14.531322944635658, -94.8201412085019 -14.848196188198107 M-95.74549723676799 -14.007812326905677 C-95.48764938658788 -14.241982922158988, -95.22980153640778 -14.4761535174123, -94.8201412085019 -14.848196188198107 M-94.8201412085019 -14.848196188198107 C-94.5242820800884 -15.084135969965816, -94.22842295167489 -15.320075751733524, -93.84284284457871 -15.627565626425149 M-94.8201412085019 -14.848196188198107 C-94.55081717893309 -15.06297493476581, -94.28149314936427 -15.277753681333511, -93.84284284457871 -15.627565626425149 M-93.84284284457871 -15.627565626425149 C-93.6082988796406 -15.79117334312138, -93.37375491470247 -15.954781059817613, -92.81761807360571 -16.342718045390885 M-93.84284284457871 -15.627565626425149 C-93.59613622152358 -15.799657486910824, -93.34942959846845 -15.971749347396502, -92.81761807360571 -16.342718045390885 M-92.81761807360571 -16.342718045390885 C-92.52276279295158 -16.52146104928538, -92.22790751229745 -16.700204053179874, -91.74867976407678 -16.99071473040609 M-92.81761807360571 -16.342718045390885 C-92.46507954520254 -16.556428973055244, -92.11254101679936 -16.7701399007196, -91.74867976407678 -16.99071473040609 M-91.74867976407678 -16.99071473040609 C-91.38028616794092 -17.182905433542814, -91.01189257180505 -17.375096136679538, -90.6404204127924 -17.56889292409717 M-91.74867976407678 -16.99071473040609 C-91.48285868785423 -17.129393415604873, -91.21703761163168 -17.268072100803654, -90.6404204127924 -17.56889292409717 M-90.6404204127924 -17.56889292409717 C-90.37361572432586 -17.686999445201423, -90.10681103585932 -17.80510596630568, -89.49739409514781 -18.07487676824742 M-90.6404204127924 -17.56889292409717 C-90.38602810854226 -17.681504850909118, -90.13163580429215 -17.79411677772106, -89.49739409514781 -18.07487676824742 M-89.49739409514781 -18.07487676824742 C-89.14655651544952 -18.203988240683426, -88.79571893575122 -18.33309971311943, -88.32429775146062 -18.506587066708033 M-89.49739409514781 -18.07487676824742 C-89.21522972670616 -18.17871586413278, -88.9330653582645 -18.28255496001814, -88.32429775146062 -18.506587066708033 M-88.32429775146062 -18.506587066708033 C-88.0273319199803 -18.59472496668593, -87.73036608849999 -18.682862866663832, -87.12595188623541 -18.862249829261067 M-88.32429775146062 -18.506587066708033 C-87.86034995198452 -18.644284338280844, -87.39640215250841 -18.78198160985366, -87.12595188623541 -18.862249829261067 M-87.12595188623541 -18.862249829261067 C-86.75256697326746 -18.947472499081737, -86.3791820602995 -19.032695168902407, -85.90728075967677 -19.140403561325773 M-87.12595188623541 -18.862249829261067 C-86.73435022478739 -18.95163035304692, -86.34274856333937 -19.04101087683277, -85.90728075967677 -19.140403561325773 M-85.90728075967677 -19.140403561325773 C-85.44374146568053 -19.21534499957817, -84.9802021716843 -19.29028643783057, -84.67329215284788 -19.3399052695533 M-85.90728075967677 -19.140403561325773 C-85.44899126011514 -19.214496253526747, -84.99070176055352 -19.28858894572772, -84.67329215284788 -19.3399052695533 M-84.67329215284788 -19.3399052695533 C-84.27693154107367 -19.378141701077777, -83.88057092929947 -19.416378132602258, -83.4290567896239 -19.45993515863156 M-84.67329215284788 -19.3399052695533 C-84.21729968100898 -19.383894314900413, -83.76130720917008 -19.42788336024753, -83.4290567896239 -19.45993515863156 M-83.4290567896239 -19.45993515863156 C-83.02377418060681 -19.472931783067995, -82.61849157158971 -19.48592840750443, -82.1796875 -19.5 M-83.4290567896239 -19.45993515863156 C-83.09980604905664 -19.47049358903386, -82.77055530848938 -19.481052019436166, -82.1796875 -19.5 M-82.1796875 -19.5 C-82.1796875 -19.5, -82.1796875 -19.5, -82.1796875 -19.5 M-82.1796875 -19.5 C-82.1796875 -19.5, -82.1796875 -19.5, -82.1796875 -19.5" stroke="#9370DB" stroke-width="1.3" fill="none" stroke-dasharray="0 0" style=""/></g><g class="label" style="" transform="translate(-89.3046875, -12)"><rect/><foreignObject width="178.609375" height="24"><div xmlns="http://www.w3.org/1999/xhtml" style="display: table-cell; white-space: nowrap; line-height: 1.5; max-width: 200px; text-align: center;"><span class="nodeLabel"><p>Nhân viên mở Nghỉ phép</p></span></div></foreignObject></g></g><g class="node default" id="my-svg-flowchart-B-1" data-look="classic" transform="translate(138, 124)"><rect class="basic label-container" style="" x="-100.9453125" y="-27" width="201.890625" height="54"/><g class="label" style="" transform="translate(-70.9453125, -12)"><rect/><foreignObject width="141.890625" height="24"><div xmlns="http://www.w3.org/1999/xhtml" style="display: table-cell; white-space: nowrap; line-height: 1.5; max-width: 200px; text-align: center;"><span class="nodeLabel"><p>get_user_leave_stats</p></span></div></foreignObject></g></g><g class="node default" id="my-svg-flowchart-C-3" data-look="classic" transform="translate(138, 240)"><rect class="basic label-container" style="" x="-126.7578125" y="-39" width="253.515625" height="78"/><g class="label" style="" transform="translate(-96.7578125, -24)"><rect/><foreignObject width="193.515625" height="48"><div xmlns="http://www.w3.org/1999/xhtml" style="display: table-cell; white-space: nowrap; line-height: 1.5; max-width: 200px; text-align: center;"><span class="nodeLabel"><p>total_allowed = HĐ active<br />contract_annual_leave_days</p></span></div></foreignObject></g></g><g class="node default" id="my-svg-flowchart-D-5" data-look="classic" transform="translate(138, 368)"><rect class="basic label-container" style="" x="-130" y="-39" width="260" height="78"/><g class="label" style="" transform="translate(-100, -24)"><rect/><foreignObject width="200" height="48"><div xmlns="http://www.w3.org/1999/xhtml" style="display: table; white-space: break-spaces; line-height: 1.5; max-width: 200px; text-align: center; width: 200px;"><span class="nodeLabel"><p>used_days = Σ days đơn APPROVED trong năm</p></span></div></foreignObject></g></g><g class="node default" id="my-svg-flowchart-E-7" data-look="classic" transform="translate(138, 496)"><rect class="basic label-container" style="" x="-130" y="-39" width="260" height="78"/><g class="label" style="" transform="translate(-100, -24)"><rect/><foreignObject width="200" height="48"><div xmlns="http://www.w3.org/1999/xhtml" style="display: table; white-space: break-spaces; line-height: 1.5; max-width: 200px; text-align: center; width: 200px;"><span class="nodeLabel"><p>remaining_days = max total − used, 0</p></span></div></foreignObject></g></g><g class="node default" id="my-svg-flowchart-F-9" data-look="classic" transform="translate(138, 624)"><rect class="basic label-container" style="" x="-130" y="-39" width="260" height="78"/><g class="label" style="" transform="translate(-100, -24)"><rect/><foreignObject width="200" height="48"><div xmlns="http://www.w3.org/1999/xhtml" style="display: table; white-space: break-spaces; line-height: 1.5; max-width: 200px; text-align: center; width: 200px;"><span class="nodeLabel"><p>Hiển thị: tổng · đã dùng · còn lại · pending_count</p></span></div></foreignObject></g></g></g></g></g><defs><filter id="my-svg-drop-shadow" height="130%" width="130%"><feDropShadow dx="4" dy="4" stdDeviation="0" flood-opacity="0.06" flood-color="#000000"/></filter></defs><defs><filter id="my-svg-drop-shadow-small" height="150%" width="150%"><feDropShadow dx="2" dy="2" stdDeviation="0" flood-opacity="0.06" flood-color="#000000"/></filter></defs></svg>