<svg id="my-svg" width="1526.2957763671875" xmlns="http://www.w3.org/2000/svg" xmlns:xlink="http://www.w3.org/1999/xlink" class="flowchart" height="598.0458374023438" viewBox="0 0 1526.2957763671875 598.0458374023438" role="graphics-document document" aria-roledescription="flowchart-v2" style="background-color: white;"><style>#my-svg{font-family:Segoe UI,Arial,sans-serif;font-size:16px;fill:#333;}@keyframes edge-animation-frame{from{stroke-dashoffset:0;}}@keyframes dash{to{stroke-dashoffset:0;}}#my-svg .edge-animation-slow{stroke-dasharray:9,5!important;stroke-dashoffset:900;animation:dash 50s linear infinite;stroke-linecap:round;}#my-svg .edge-animation-fast{stroke-dasharray:9,5!important;stroke-dashoffset:900;animation:dash 20s linear infinite;stroke-linecap:round;}#my-svg .error-icon{fill:#552222;}#my-svg .error-text{fill:#552222;stroke:#552222;}#my-svg .edge-thickness-normal{stroke-width:1px;}#my-svg .edge-thickness-thick{stroke-width:3.5px;}#my-svg .edge-pattern-solid{stroke-dasharray:0;}#my-svg .edge-thickness-invisible{stroke-width:0;fill:none;}#my-svg .edge-pattern-dashed{stroke-dasharray:3;}#my-svg .edge-pattern-dotted{stroke-dasharray:2;}#my-svg .marker{fill:#444444;stroke:#444444;}#my-svg .marker.cross{stroke:#444444;}#my-svg svg{font-family:Segoe UI,Arial,sans-serif;font-size:16px;}#my-svg p{margin:0;}#my-svg .label{font-family:Segoe UI,Arial,sans-serif;color:#333;}#my-svg .cluster-label text{fill:#333;}#my-svg .cluster-label span{color:#333;}#my-svg .cluster-label span p{background-color:transparent;}#my-svg .label text,#my-svg span{fill:#333;color:#333;}#my-svg .node rect,#my-svg .node circle,#my-svg .node ellipse,#my-svg .node polygon,#my-svg .node path{fill:#ECECFF;stroke:#9370DB;stroke-width:1px;}#my-svg .rough-node .label text,#my-svg .node .label text,#my-svg .image-shape .label,#my-svg .icon-shape .label{text-anchor:middle;}#my-svg .node .katex path{fill:#000;stroke:#000;stroke-width:1px;}#my-svg .rough-node .label,#my-svg .node .label,#my-svg .image-shape .label,#my-svg .icon-shape .label{text-align:center;}#my-svg .node.clickable{cursor:pointer;}#my-svg .root .anchor path{fill:#444444!important;stroke-width:0;stroke:#444444;}#my-svg .arrowheadPath{fill:#333333;}#my-svg .edgePath .path{stroke:#444444;stroke-width:1px;}#my-svg .flowchart-link{stroke:#444444;fill:none;}#my-svg .edgeLabel{background-color:rgba(232,232,232, 0.8);text-align:center;}#my-svg .edgeLabel p{background-color:rgba(232,232,232, 0.8);}#my-svg .edgeLabel rect{opacity:0.5;background-color:rgba(232,232,232, 0.8);fill:rgba(232,232,232, 0.8);}#my-svg .labelBkg{background-color:rgba(232, 232, 232, 0.5);}#my-svg .cluster rect{fill:#ffffde;stroke:#aaaa33;stroke-width:1px;}#my-svg .cluster text{fill:#333;}#my-svg .cluster span{color:#333;}#my-svg div.mermaidTooltip{position:absolute;text-align:center;max-width:200px;padding:2px;font-family:Segoe UI,Arial,sans-serif;font-size:12px;background:hsl(80, 100%, 96.2745098039%);border:1px solid #aaaa33;border-radius:2px;pointer-events:none;z-index:100;}#my-svg .flowchartTitleText{text-anchor:middle;font-size:18px;fill:#333;}#my-svg rect.text{fill:none;stroke-width:0;}#my-svg .icon-shape,#my-svg .image-shape{background-color:rgba(232,232,232, 0.8);text-align:center;}#my-svg .icon-shape p,#my-svg .image-shape p{background-color:rgba(232,232,232, 0.8);padding:2px;}#my-svg .icon-shape .label rect,#my-svg .image-shape .label rect{opacity:0.5;background-color:rgba(232,232,232, 0.8);fill:rgba(232,232,232, 0.8);}#my-svg .label-icon{display:inline-block;height:1em;overflow:visible;vertical-align:-0.125em;}#my-svg .node .label-icon path{fill:currentColor;stroke:revert;stroke-width:revert;}#my-svg .node .neo-node{stroke:#9370DB;}#my-svg [data-look="neo"].node rect,#my-svg [data-look="neo"].cluster rect,#my-svg [data-look="neo"].node polygon{stroke:#9370DB;filter:drop-shadow(1px 2px 2px rgba(185, 185, 185, 1));}#my-svg [data-look="neo"].node path{stroke:#9370DB;stroke-width:1px;}#my-svg [data-look="neo"].node .outer-path{filter:drop-shadow(1px 2px 2px rgba(185, 185, 185, 1));}#my-svg [data-look="neo"].node .neo-line path{stroke:#9370DB;filter:none;}#my-svg [data-look="neo"].node circle{stroke:#9370DB;filter:drop-shadow(1px 2px 2px rgba(185, 185, 185, 1));}#my-svg [data-look="neo"].node circle .state-start{fill:#000000;}#my-svg [data-look="neo"].icon-shape .icon{fill:#9370DB;filter:drop-shadow(1px 2px 2px rgba(185, 185, 185, 1));}#my-svg [data-look="neo"].icon-shape .icon-neo path{stroke:#9370DB;filter:drop-shadow(1px 2px 2px rgba(185, 185, 185, 1));}#my-svg :root{--mermaid-font-family:"trebuchet ms",verdana,arial,sans-serif;}</style><g><marker id="my-svg_flowchart-v2-pointEnd" class="marker flowchart-v2" viewBox="0 0 10 10" refX="5" refY="5" markerUnits="userSpaceOnUse" markerWidth="8" markerHeight="8" orient="auto"><path d="M 0 0 L 10 5 L 0 10 z" class="arrowMarkerPath" style="stroke-width: 1; stroke-dasharray: 1, 0;"/></marker><marker id="my-svg_flowchart-v2-pointStart" class="marker flowchart-v2" viewBox="0 0 10 10" refX="4.5" refY="5" markerUnits="userSpaceOnUse" markerWidth="8" markerHeight="8" orient="auto"><path d="M 0 5 L 10 10 L 10 0 z" class="arrowMarkerPath" style="stroke-width: 1; stroke-dasharray: 1, 0;"/></marker><marker id="my-svg_flowchart-v2-pointEnd-margin" class="marker flowchart-v2" viewBox="0 0 11.5 14" refX="11.5" refY="7" markerUnits="userSpaceOnUse" markerWidth="10.5" markerHeight="14" orient="auto"><path d="M 0 0 L 11.5 7 L 0 14 z" class="arrowMarkerPath" style="stroke-width: 0; stroke-dasharray: 1, 0;"/></marker><marker id="my-svg_flowchart-v2-pointStart-margin" class="marker flowchart-v2" viewBox="0 0 11.5 14" refX="1" refY="7" markerUnits="userSpaceOnUse" markerWidth="11.5" markerHeight="14" orient="auto"><polygon points="0,7 11.5,14 11.5,0" class="arrowMarkerPath" style="stroke-width: 0; stroke-dasharray: 1, 0;"/></marker><marker id="my-svg_flowchart-v2-circleEnd" class="marker flowchart-v2" viewBox="0 0 10 10" refX="11" refY="5" markerUnits="userSpaceOnUse" markerWidth="11" markerHeight="11" orient="auto"><circle cx="5" cy="5" r="5" class="arrowMarkerPath" style="stroke-width: 1; stroke-dasharray: 1, 0;"/></marker><marker id="my-svg_flowchart-v2-circleStart" class="marker flowchart-v2" viewBox="0 0 10 10" refX="-1" refY="5" markerUnits="userSpaceOnUse" markerWidth="11" markerHeight="11" orient="auto"><circle cx="5" cy="5" r="5" class="arrowMarkerPath" style="stroke-width: 1; stroke-dasharray: 1, 0;"/></marker><marker id="my-svg_flowchart-v2-circleEnd-margin" class="marker flowchart-v2" viewBox="0 0 10 10" refY="5" refX="12.25" markerUnits="userSpaceOnUse" markerWidth="14" markerHeight="14" orient="auto"><circle cx="5" cy="5" r="5" class="arrowMarkerPath" style="stroke-width: 0; stroke-dasharray: 1, 0;"/></marker><marker id="my-svg_flowchart-v2-circleStart-margin" class="marker flowchart-v2" viewBox="0 0 10 10" refX="-2" refY="5" markerUnits="userSpaceOnUse" markerWidth="14" markerHeight="14" orient="auto"><circle cx="5" cy="5" r="5" class="arrowMarkerPath" style="stroke-width: 0; stroke-dasharray: 1, 0;"/></marker><marker id="my-svg_flowchart-v2-crossEnd" class="marker cross flowchart-v2" viewBox="0 0 11 11" refX="12" refY="5.2" markerUnits="userSpaceOnUse" markerWidth="11" markerHeight="11" orient="auto"><path d="M 1,1 l 9,9 M 10,1 l -9,9" class="arrowMarkerPath" style="stroke-width: 2; stroke-dasharray: 1, 0;"/></marker><marker id="my-svg_flowchart-v2-crossStart" class="marker cross flowchart-v2" viewBox="0 0 11 11" refX="-1" refY="5.2" markerUnits="userSpaceOnUse" markerWidth="11" markerHeight="11" orient="auto"><path d="M 1,1 l 9,9 M 10,1 l -9,9" class="arrowMarkerPath" style="stroke-width: 2; stroke-dasharray: 1, 0;"/></marker><marker id="my-svg_flowchart-v2-crossEnd-margin" class="marker cross flowchart-v2" viewBox="0 0 15 15" refX="17.7" refY="7.5" markerUnits="userSpaceOnUse" markerWidth="12" markerHeight="12" orient="auto"><path d="M 1,1 L 14,14 M 1,14 L 14,1" class="arrowMarkerPath" style="stroke-width: 2.5;"/></marker><marker id="my-svg_flowchart-v2-crossStart-margin" class="marker cross flowchart-v2" viewBox="0 0 15 15" refX="-3.5" refY="7.5" markerUnits="userSpaceOnUse" markerWidth="12" markerHeight="12" orient="auto"><path d="M 1,1 L 14,14 M 1,14 L 14,1" class="arrowMarkerPath" style="stroke-width: 2.5; stroke-dasharray: 1, 0;"/></marker><g class="root"><g class="clusters"><g class="cluster" id="my-svg-Server_Django" data-look="classic"><rect style="" x="378.70201110839844" y="8" width="1139.59375" height="213.0458469390869"/><g class="cluster-label" transform="translate(889.0535736083984, 8)"><foreignObject width="118.890625" height="24"><div xmlns="http://www.w3.org/1999/xhtml" style="display: table-cell; white-space: nowrap; line-height: 1.5;"><span class="nodeLabel"><p>SERVER (Django)</p></span></div></foreignObject></g></g></g><g class="edgePaths"><path d="M578.952,82.046L583.119,82.046C587.285,82.046,595.619,82.046,608.437,86.096C621.254,90.147,638.557,98.248,647.208,102.299L655.859,106.35" id="my-svg-L_URL_View_0" class="edge-thickness-normal edge-pattern-solid edge-thickness-normal edge-pattern-solid flowchart-link" style=";" data-edge="true" data-et="edge" data-id="L_URL_View_0" data-points="W3sieCI6NTc4Ljk1MjAxMTEwODM5ODQsInkiOjgyLjA0NTg0NjkzOTA4NjkxfSx7IngiOjYwMy45NTIwMTExMDgzOTg0LCJ5Ijo4Mi4wNDU4NDY5MzkwODY5MX0seyJ4Ijo2NTkuNDgxNzg3MDUxNzk0NiwieSI6MTA4LjA0NTg0NjkzOTA4NjkxfV0=" data-look="classic" marker-end="url(#my-svg_flowchart-v2-pointEnd)"/><path d="M805.343,135.046L809.509,135.046C813.676,135.046,822.009,135.046,829.676,135.046C837.343,135.046,844.343,135.046,847.843,135.046L851.343,135.046" id="my-svg-L_View_Service_0" class="edge-thickness-normal edge-pattern-solid edge-thickness-normal edge-pattern-solid flowchart-link" style=";" data-edge="true" data-et="edge" data-id="L_View_Service_0" data-points="W3sieCI6ODA1LjM0MjYzNjEwODM5ODQsInkiOjEzNS4wNDU4NDY5MzkwODY5fSx7IngiOjgzMC4zNDI2MzYxMDgzOTg0LCJ5IjoxMzUuMDQ1ODQ2OTM5MDg2OX0seyJ4Ijo4NTUuMzQyNjM2MTA4Mzk4NCwieSI6MTM1LjA0NTg0NjkzOTA4Njl9XQ==" data-look="classic" marker-end="url(#my-svg_flowchart-v2-pointEnd)"/><path d="M1035.237,108.046L1042.249,105.72C1049.262,103.394,1063.287,98.743,1077.864,96.417C1092.442,94.092,1107.572,94.092,1115.137,94.092L1122.702,94.092" id="my-svg-L_Service_ORM_0" class="edge-thickness-normal edge-pattern-solid edge-thickness-normal edge-pattern-solid flowchart-link" style=";" data-edge="true" data-et="edge" data-id="L_Service_ORM_0" data-points="W3sieCI6MTAzNS4yMzcwMjM5MTA3ODksInkiOjEwOC4wNDU4NDY5MzkwODY5MX0seyJ4IjoxMDc3LjMxMTM4NjEwODM5ODQsInkiOjk0LjA5MTY5Mzg3ODE3MzgzfSx7IngiOjExMjYuNzAyMDExMTA4Mzk4NCwieSI6OTQuMDkxNjkzODc4MTczODN9XQ==" data-look="classic" marker-end="url(#my-svg_flowchart-v2-pointEnd)"/><path d="M1282.155,94.092L1290.387,94.092C1298.619,94.092,1315.082,94.092,1326.814,94.092C1338.546,94.092,1345.546,94.092,1349.046,94.092L1352.546,94.092" id="my-svg-L_ORM_DB_0" class="edge-thickness-normal edge-pattern-solid edge-thickness-normal edge-pattern-solid flowchart-link" style=";" data-edge="true" data-et="edge" data-id="L_ORM_DB_0" data-points="W3sieCI6MTI4Mi4xNTUxMzYxMDgzOTg0LCJ5Ijo5NC4wOTE2OTM4NzgxNzM4M30seyJ4IjoxMzMxLjU0NTc2MTEwODM5ODQsInkiOjk0LjA5MTY5Mzg3ODE3MzgzfSx7IngiOjEzNTYuNTQ1NzYxMTA4Mzk4NCwieSI6OTQuMDkxNjkzODc4MTczODN9XQ==" data-look="classic" marker-end="url(#my-svg_flowchart-v2-pointEnd)"/><path d="M215.125,108.258L230.029,103.889C244.932,99.521,274.739,90.783,302.002,86.415C329.265,82.046,353.983,82.046,369.843,82.046C385.702,82.046,392.702,82.046,396.202,82.046L399.702,82.046" id="my-svg-L_User_URL_0" class="edge-thickness-normal edge-pattern-solid edge-thickness-normal edge-pattern-solid flowchart-link" style=";" data-edge="true" data-et="edge" data-id="L_User_URL_0" data-points="W3sieCI6MjE1LjEyNTIxMjQ2MjE4NTY2LCJ5IjoxMDguMjU4MDg0NDUyOTg0MjZ9LHsieCI6MzA0LjU0NTc2MTEwODM5ODQ0LCJ5Ijo4Mi4wNDU4NDY5MzkwODY5MX0seyJ4IjozNzguNzAyMDExMTA4Mzk4NDQsInkiOjgyLjA0NTg0NjkzOTA4NjkxfSx7IngiOjQwMy43MDIwMTExMDgzOTg0NCwieSI6ODIuMDQ1ODQ2OTM5MDg2OTF9XQ==" data-look="classic" marker-end="url(#my-svg_flowchart-v2-pointEnd)"/><path d="M628.952,160.758L624.785,161.972C620.619,163.187,612.285,165.616,589.348,166.831C566.41,168.046,528.869,168.046,491.327,168.046C453.785,168.046,416.244,168.046,385.113,168.046C353.983,168.046,329.265,168.046,304.26,165.86C279.256,163.673,253.966,159.301,241.321,157.115L228.675,154.929" id="my-svg-L_View_User_0" class="edge-thickness-normal edge-pattern-solid edge-thickness-normal edge-pattern-solid flowchart-link" style=";" data-edge="true" data-et="edge" data-id="L_View_User_0" data-points="W3sieCI6NjI4Ljk1MjAxMTEwODM5ODQsInkiOjE2MC43NTc1NTkyNzI1ODEzfSx7IngiOjYwMy45NTIwMTExMDgzOTg0LCJ5IjoxNjguMDQ1ODQ2OTM5MDg2OX0seyJ4Ijo0OTEuMzI3MDExMTA4Mzk4NDQsInkiOjE2OC4wNDU4NDY5MzkwODY5fSx7IngiOjM3OC43MDIwMTExMDgzOTg0NCwieSI6MTY4LjA0NTg0NjkzOTA4Njl9LHsieCI6MzA0LjU0NTc2MTEwODM5ODQ0LCJ5IjoxNjguMDQ1ODQ2OTM5MDg2OX0seyJ4IjoyMjQuNzMzOTQ1NjEzOTgyNzQsInkiOjE1NC4yNDcwODQ5NTgzMTc3NH1d" data-look="classic" marker-end="url(#my-svg_flowchart-v2-pointEnd)"/><path d="M1052.311,118.334L1056.478,117.627C1060.645,116.92,1068.978,115.506,1089.382,137.912C1109.785,160.319,1142.259,206.546,1158.496,229.659L1174.732,252.773" id="my-svg-L_Service_SMTP_0" class="edge-thickness-normal edge-pattern-solid edge-thickness-normal edge-pattern-solid flowchart-link" style=";" data-edge="true" data-et="edge" data-id="L_Service_SMTP_0" data-points="W3sieCI6MTA1Mi4zMTEzODYxMDgzOTg0LCJ5IjoxMTguMzMzOTYxOTkxMjI3MjF9LHsieCI6MTA3Ny4zMTEzODYxMDgzOTg0LCJ5IjoxMTQuMDkxNjkzODc4MTczODN9LHsieCI6MTE3Ny4wMzE3NDI4MTY1MDYzLCJ5IjoyNTYuMDQ1ODQ2OTM5MDg2OX1d" data-look="classic" marker-end="url(#my-svg_flowchart-v2-pointEnd)"/><path d="M1049.086,162.046L1053.791,163.379C1058.495,164.713,1067.903,167.379,1090.228,203.783C1112.553,240.188,1147.796,310.33,1165.417,345.401L1183.038,380.472" id="my-svg-L_Service_Cloudinary_0" class="edge-thickness-normal edge-pattern-solid edge-thickness-normal edge-pattern-solid flowchart-link" style=";" data-edge="true" data-et="edge" data-id="L_Service_Cloudinary_0" data-points="W3sieCI6MTA0OS4wODYzODYxMDgzOTg1LCJ5IjoxNjIuMDQ1ODQ2OTM5MDg2OX0seyJ4IjoxMDc3LjMxMTM4NjEwODM5ODQsInkiOjE3MC4wNDU4NDY5MzkwODY5fSx7IngiOjExODQuODMzNDM0MDMzMjk5NywieSI6Mzg0LjA0NTg0NjkzOTA4Njl9XQ==" data-look="classic" marker-end="url(#my-svg_flowchart-v2-pointEnd)"/><path d="M1014.447,162.046L1024.924,166.713C1035.402,171.379,1056.356,180.713,1085.51,238.417C1114.663,296.122,1152.015,402.197,1170.691,455.235L1189.367,508.273" id="my-svg-L_Service_FaceAPI_0" class="edge-thickness-normal edge-pattern-solid edge-thickness-normal edge-pattern-solid flowchart-link" style=";" data-edge="true" data-et="edge" data-id="L_Service_FaceAPI_0" data-points="W3sieCI6MTAxNC40NDY2MTMzODExMjU4LCJ5IjoxNjIuMDQ1ODQ2OTM5MDg2OX0seyJ4IjoxMDc3LjMxMTM4NjEwODM5ODQsInkiOjE5MC4wNDU4NDY5MzkwODY5fSx7IngiOjExOTAuNjk1NjkxODU2MzIwOCwieSI6NTEyLjA0NTg0NjkzOTA4Njl9XQ==" data-look="classic" marker-end="url(#my-svg_flowchart-v2-pointEnd)"/></g><g class="edgeLabels"><g class="edgeLabel"><g class="label" data-id="L_URL_View_0" transform="translate(0, 0)"><foreignObject width="0" height="0"><div xmlns="http://www.w3.org/1999/xhtml" class="labelBkg" style="display: table-cell; white-space: nowrap; line-height: 1.5; max-width: 200px; text-align: center;"><span class="edgeLabel"></span></div></foreignObject></g></g><g class="edgeLabel"><g class="label" data-id="L_View_Service_0" transform="translate(0, 0)"><foreignObject width="0" height="0"><div xmlns="http://www.w3.org/1999/xhtml" class="labelBkg" style="display: table-cell; white-space: nowrap; line-height: 1.5; max-width: 200px; text-align: center;"><span class="edgeLabel"></span></div></foreignObject></g></g><g class="edgeLabel"><g class="label" data-id="L_Service_ORM_0" transform="translate(0, 0)"><foreignObject width="0" height="0"><div xmlns="http://www.w3.org/1999/xhtml" class="labelBkg" style="display: table-cell; white-space: nowrap; line-height: 1.5; max-width: 200px; text-align: center;"><span class="edgeLabel"></span></div></foreignObject></g></g><g class="edgeLabel"><g class="label" data-id="L_ORM_DB_0" transform="translate(0, 0)"><foreignObject width="0" height="0"><div xmlns="http://www.w3.org/1999/xhtml" class="labelBkg" style="display: table-cell; white-space: nowrap; line-height: 1.5; max-width: 200px; text-align: center;"><span class="edgeLabel"></span></div></foreignObject></g></g><g class="edgeLabel" transform="translate(304.54576110839844, 82.04584693908691)"><g class="label" data-id="L_User_URL_0" transform="translate(-49.15625, -24)"><foreignObject width="98.3125" height="48"><div xmlns="http://www.w3.org/1999/xhtml" class="labelBkg" style="display: table-cell; white-space: nowrap; line-height: 1.5; max-width: 200px; text-align: center;"><span class="edgeLabel"><p>HTTP Request<br />(GET/POST)</p></span></div></foreignObject></g></g><g class="edgeLabel" transform="translate(491.32701110839844, 168.0458469390869)"><g class="label" data-id="L_View_User_0" transform="translate(-54.515625, -24)"><foreignObject width="109.03125" height="48"><div xmlns="http://www.w3.org/1999/xhtml" class="labelBkg" style="display: table-cell; white-space: nowrap; line-height: 1.5; max-width: 200px; text-align: center;"><span class="edgeLabel"><p>HTTP Response<br />(HTML/JSON)</p></span></div></foreignObject></g></g><g class="edgeLabel"><g class="label" data-id="L_Service_SMTP_0" transform="translate(0, 0)"><foreignObject width="0" height="0"><div xmlns="http://www.w3.org/1999/xhtml" class="labelBkg" style="display: table-cell; white-space: nowrap; line-height: 1.5; max-width: 200px; text-align: center;"><span class="edgeLabel"></span></div></foreignObject></g></g><g class="edgeLabel"><g class="label" data-id="L_Service_Cloudinary_0" transform="translate(0, 0)"><foreignObject width="0" height="0"><div xmlns="http://www.w3.org/1999/xhtml" class="labelBkg" style="display: table-cell; white-space: nowrap; line-height: 1.5; max-width: 200px; text-align: center;"><span class="edgeLabel"></span></div></foreignObject></g></g><g class="edgeLabel"><g class="label" data-id="L_Service_FaceAPI_0" transform="translate(0, 0)"><foreignObject width="0" height="0"><div xmlns="http://www.w3.org/1999/xhtml" class="labelBkg" style="display: table-cell; white-space: nowrap; line-height: 1.5; max-width: 200px; text-align: center;"><span class="edgeLabel"></span></div></foreignObject></g></g></g><g class="nodes"><g class="node default" id="my-svg-flowchart-User-0" data-look="classic" transform="translate(119.19475555419922, 135.0458469390869)"><g class="basic label-container outer-path"><path d="M-79.7109375 -31.5 C-23.241871553399136 -31.5, 33.22719439320173 -31.5, 79.7109375 -31.5 C79.7109375 -31.5, 79.7109375 -31.5, 79.7109375 -31.5 C80.17560052029283 -31.48509916135091, 80.64026354058566 -31.47019832270182, 81.72914942939245 -31.435279871635593 C82.48084173815461 -31.362765018651576, 83.23253404691677 -31.29025016566756, 83.73906809306193 -31.241385435432253 C84.24445279862891 -31.159678755553113, 84.74983750419588 -31.07797207567397, 85.73243430409322 -30.91911344521856 C86.15056374809633 -30.823678128174468, 86.56869319209946 -30.72824281113037, 87.70105689314947 -30.469788185729428 C88.43471281099485 -30.252042960351417, 89.16836872884024 -30.034297734973407, 89.63684636774406 -29.895256030836062 C90.21549713838759 -29.682307198250154, 90.79414790903112 -29.46935836566424, 91.53184815370028 -29.197877856399685 C92.06691249672019 -28.96102074386457, 92.6019768397401 -28.724163631329453, 93.37827528220308 -28.380519338926202 C93.81838300201963 -28.150915423400352, 94.2584907218362 -27.921311507874503, 95.16854038812403 -27.44653917988677 C95.8157881072198 -27.054173808921114, 96.46303582631559 -26.661808437955457, 96.89528688813228 -26.399775304092984 C97.3477480211236 -26.084158004444994, 97.80020915411494 -25.768540704797008, 98.5514192104733 -25.244529088840633 C98.89333641150365 -24.971859219817773, 99.235253612534 -24.69918935079491, 100.13013195219533 -23.985547688627737 C100.5178627497226 -23.633420837108208, 100.90559354724986 -23.28129398558868, 101.62493784400982 -22.62800452807842 C102.10343275187864 -22.133919250541325, 102.58192765974745 -21.639833973004226, 103.02969440787243 -21.177478043231485 C103.33234512286644 -20.82196729208597, 103.63499583786046 -20.466456540940452, 104.33862919774293 -19.63992875855011 C104.66430822603007 -19.20354853061519, 104.98998725431721 -18.767168302680275, 105.5463635198041 -18.02167479384835 C105.86957609153276 -17.525133488945208, 106.19278866326142 -17.028592184042065, 106.6479345346684 -16.329365901781543 C106.90871663946821 -15.866320867657874, 107.16949874426804 -15.403275833534206, 107.6388156507495 -14.56995614258631 C107.82532577306078 -14.182663882929607, 108.01183589537207 -13.795371623272901, 108.51493512499809 -12.750675308355413 C108.80515040890327 -12.033837946178812, 109.09536569280846 -11.317000584002209, 109.27269279456745 -10.878999214271206 C109.49178308932474 -10.219134153760193, 109.71087338408205 -9.559269093249178, 109.90897487065482 -8.962618978877531 C110.03488895552066 -8.482454001774467, 110.16080304038651 -8.002289024671406, 110.42116673372745 -7.009409419623907 C110.52625710747056 -6.469792561311396, 110.63134748121367 -5.930175702998884, 110.80716367755518 -5.027396693551458 C110.86916453470396 -4.546530288959582, 110.93116539185274 -4.065663884367707, 111.06537955789975 -3.024725316091981 C111.10784262557507 -2.363328761477374, 111.15030569325042 -1.7019322068627671, 111.19475331032167 -1.0096246935071378 C111.19475331032167 -0.21756988923942655, 111.19475331032167 0.5744849150282847, 111.19475331032167 1.00962469350713 C111.168741703295 1.4147764691388376, 111.14273009626832 1.8199282447705452, 111.06537955789975 3.02472531609196 C110.98217779561986 3.6700217542883906, 110.89897603333999 4.315318192484821, 110.80716367755518 5.027396693551435 C110.66986372048703 5.732402954740224, 110.53256376341886 6.437409215929012, 110.42116673372745 7.0094094196239 C110.2849435274058 7.528887544839421, 110.14872032108416 8.048365670054942, 109.90897487065482 8.96261897887751 C109.73193629462448 9.495830962614447, 109.55489771859412 10.029042946351383, 109.27269279456746 10.878999214271184 C108.99343508800847 11.568771148552367, 108.71417738144946 12.25854308283355, 108.51493512499809 12.750675308355405 C108.32210152731695 13.151098399918325, 108.1292679296358 13.551521491481246, 107.6388156507495 14.569956142586303 C107.42924528114973 14.94206955511179, 107.21967491154996 15.314182967637276, 106.64793453466841 16.329365901781536 C106.24913390140341 16.94203076744102, 105.85033326813843 17.55469563310051, 105.54636351980412 18.021674793848334 C105.09236071973173 18.629997185439386, 104.63835791965934 19.23831957703044, 104.33862919774295 19.639928758550102 C103.89933159999737 20.155952713603497, 103.46003400225179 20.67197666865689, 103.02969440787246 21.177478043231467 C102.63164766988784 21.588493980445538, 102.23360093190323 21.999509917659612, 101.62493784400982 22.628004528078414 C101.13516557398353 23.072802745052144, 100.64539330395723 23.51760096202587, 100.13013195219536 23.985547688627715 C99.66131912275009 24.359413444476985, 99.19250629330482 24.73327920032625, 98.55141921047331 25.24452908884063 C98.02737889016713 25.61007693094638, 97.50333856986094 25.975624773052132, 96.89528688813229 26.399775304092973 C96.45851964046686 26.66454617635701, 96.02175239280142 26.929317048621048, 95.16854038812404 27.446539179886766 C94.57893156406429 27.754137725736264, 93.98932274000454 28.06173627158576, 93.37827528220309 28.3805193389262 C92.64972150346672 28.703028484992814, 91.92116772473034 29.025537631059425, 91.5318481537003 29.197877856399682 C90.9734666665874 29.403367405279113, 90.4150851794745 29.60885695415854, 89.63684636774407 29.895256030836055 C88.96089553508313 30.0958746898315, 88.28494470242218 30.296493348826946, 87.70105689314951 30.46978818572942 C87.12902933651715 30.6003497427021, 86.55700177988479 30.730911299674776, 85.73243430409323 30.919113445218557 C85.10833814986623 31.02001247149602, 84.48424199563921 31.12091149777348, 83.73906809306196 31.24138543543225 C82.94361929675321 31.318121424145012, 82.14817050044446 31.394857412857775, 81.72914942939245 31.435279871635593 C80.99290285715911 31.4588898661901, 80.25665628492578 31.482499860744607, 79.7109375 31.5 C79.7109375 31.5, 79.7109375 31.5, 79.7109375 31.5 C30.960211096878368 31.5, -17.790515306243265 31.5, -79.7109375 31.5 C-80.39346744258557 31.47811259320522, -81.07599738517115 31.45622518641044, -81.72914942939244 31.435279871635593 C-82.52594885104503 31.358413589720275, -83.32274827269762 31.281547307804956, -83.73906809306195 31.24138543543225 C-84.3136574980968 31.1484902764336, -84.88824690313167 31.05559511743495, -85.73243430409323 30.919113445218557 C-86.2877370917626 30.792369207622365, -86.84303987943196 30.665624970026176, -87.70105689314947 30.469788185729428 C-88.18018007108904 30.327586941485848, -88.65930324902861 30.185385697242268, -89.63684636774403 29.89525603083607 C-90.09091267129966 29.7281554337847, -90.54497897485528 29.56105483673333, -91.53184815370028 29.197877856399685 C-91.99230059826942 28.994049218025392, -92.45275304283858 28.790220579651102, -93.37827528220308 28.380519338926206 C-94.09390402564473 28.007176281854782, -94.80953276908639 27.63383322478336, -95.16854038812403 27.446539179886773 C-95.52510198550253 27.230389444167397, -95.88166358288103 27.014239708448017, -96.89528688813226 26.399775304092994 C-97.23476838366804 26.162967708724324, -97.5742498792038 25.926160113355657, -98.5514192104733 25.244529088840636 C-98.94169246681166 24.93329655251831, -99.33196572315002 24.62206401619599, -100.13013195219533 23.98554768862774 C-100.55637540741125 23.598444660384462, -100.98261886262718 23.211341632141185, -101.6249378440098 22.628004528078435 C-101.95825849379202 22.28382359104402, -102.29157914357422 21.939642654009603, -103.02969440787244 21.177478043231478 C-103.29573330817304 20.864973612896126, -103.56177220847364 20.55246918256077, -104.33862919774293 19.639928758550113 C-104.72129644989552 19.127189502369486, -105.10396370204812 18.61445024618886, -105.5463635198041 18.021674793848355 C-105.92443994373329 17.440847878958067, -106.30251636766249 16.860020964067783, -106.6479345346684 16.329365901781557 C-106.99971159697733 15.704750106361843, -107.35148865928628 15.080134310942126, -107.6388156507495 14.569956142586314 C-107.83840715443996 14.155500114599024, -108.03799865813043 13.741044086611733, -108.51493512499809 12.750675308355417 C-108.70076903977362 12.291661946005522, -108.88660295454916 11.832648583655628, -109.27269279456745 10.878999214271209 C-109.41130288619706 10.461527702801762, -109.5499129778267 10.044056191332315, -109.90897487065482 8.962618978877522 C-110.0844949010346 8.293285032177005, -110.26001493141439 7.623951085476489, -110.42116673372743 7.009409419623911 C-110.56701299329347 6.260519701370203, -110.71285925285952 5.511629983116495, -110.80716367755518 5.027396693551461 C-110.90419318640241 4.274854983576062, -111.00122269524965 3.522313273600663, -111.06537955789975 3.024725316091999 C-111.09693174741824 2.5332744958725995, -111.12848393693672 2.0418236756532004, -111.19475331032167 1.0096246935071416 C-111.19475331032167 0.3582444700210664, -111.19475331032167 -0.29313575346500875, -111.19475331032167 -1.0096246935071262 C-111.16553714912645 -1.4646899869834868, -111.13632098793124 -1.9197552804598477, -111.06537955789975 -3.024725316091956 C-110.98013206417586 -3.685888043392673, -110.89488457045199 -4.347050770693389, -110.80716367755518 -5.027396693551446 C-110.67953453060193 -5.682745388726632, -110.55190538364867 -6.338094083901818, -110.42116673372745 -7.009409419623896 C-110.29559411409862 -7.488272241786245, -110.17002149446978 -7.967135063948593, -109.90897487065482 -8.962618978877506 C-109.74219884520457 -9.464921795382548, -109.57542281975434 -9.967224611887588, -109.27269279456746 -10.878999214271168 C-109.11081625324115 -11.278837401017173, -108.94893971191483 -11.678675587763177, -108.51493512499809 -12.750675308355401 C-108.30873785364915 -13.178848354226323, -108.1025405823002 -13.607021400097244, -107.6388156507495 -14.5699561425863 C-107.3848503753511 -15.020897205828929, -107.13088509995269 -15.471838269071558, -106.6479345346684 -16.329365901781546 C-106.40645905552363 -16.70033708299326, -106.16498357637884 -17.071308264204976, -105.54636351980412 -18.021674793848344 C-105.28704874801583 -18.36913296398294, -105.02773397622755 -18.716591134117532, -104.33862919774295 -19.639928758550102 C-103.99953678087311 -20.038246006310526, -103.66044436400328 -20.43656325407095, -103.02969440787246 -21.177478043231467 C-102.50284403419217 -21.721494309276473, -101.97599366051189 -22.265510575321482, -101.62493784400984 -22.628004528078403 C-101.23023508480921 -22.98646313072167, -100.8355323256086 -23.344921733364938, -100.13013195219536 -23.98554768862771 C-99.6418531286351 -24.374937056771824, -99.15357430507484 -24.764326424915936, -98.55141921047331 -25.244529088840626 C-98.10923185613072 -25.55297984524796, -97.66704450178814 -25.861430601655297, -96.8952868881323 -26.39977530409297 C-96.2528938502925 -26.789197738751987, -95.61050081245267 -27.178620173411005, -95.16854038812404 -27.446539179886763 C-94.71875853261923 -27.681190085804595, -94.26897667711442 -27.915840991722426, -93.37827528220309 -28.3805193389262 C-92.70683820300879 -28.677744616412227, -92.0354011238145 -28.97496989389826, -91.5318481537003 -29.19787785639968 C-90.96652013930249 -29.405923791532953, -90.40119212490467 -29.613969726666227, -89.63684636774407 -29.895256030836055 C-88.95522964192934 -30.097556297178667, -88.27361291611459 -30.299856563521274, -87.70105689314951 -30.469788185729417 C-87.15958309913229 -30.593376045767126, -86.61810930511507 -30.716963905804832, -85.73243430409325 -30.919113445218553 C-85.03234449255396 -31.03229853667065, -84.33225468101469 -31.145483628122747, -83.73906809306196 -31.24138543543225 C-83.25814803293203 -31.28777921524199, -82.77722797280211 -31.33417299505173, -81.72914942939246 -31.435279871635593 C-81.21828698948732 -31.451662235749936, -80.7074245495822 -31.468044599864275, -79.71093750000001 -31.5 C-79.71093750000001 -31.5, -79.7109375 -31.5, -79.7109375 -31.5" stroke="none" stroke-width="0" fill="#ECECFF" style=""/><path d="M-79.7109375 -31.5 C-38.09247847424214 -31.5, 3.5259805515157154 -31.5, 79.7109375 -31.5 M-79.7109375 -31.5 C-43.393997621881994 -31.5, -7.077057743763987 -31.5, 79.7109375 -31.5 M79.7109375 -31.5 C79.7109375 -31.5, 79.7109375 -31.5, 79.7109375 -31.5 M79.7109375 -31.5 C79.7109375 -31.5, 79.7109375 -31.5, 79.7109375 -31.5 M79.7109375 -31.5 C80.46654645200458 -31.475769091612815, 81.22215540400916 -31.45153818322563, 81.72914942939245 -31.435279871635593 M79.7109375 -31.5 C80.23216877197477 -31.483285127622892, 80.75340004394955 -31.466570255245784, 81.72914942939245 -31.435279871635593 M81.72914942939245 -31.435279871635593 C82.25371698294767 -31.384675470628906, 82.77828453650288 -31.33407106962222, 83.73906809306193 -31.241385435432253 M81.72914942939245 -31.435279871635593 C82.32103594911955 -31.37818129092521, 82.91292246884665 -31.32108271021482, 83.73906809306193 -31.241385435432253 M83.73906809306193 -31.241385435432253 C84.31935086997136 -31.147569816221683, 84.89963364688077 -31.053754197011113, 85.73243430409322 -30.91911344521856 M83.73906809306193 -31.241385435432253 C84.39451836480725 -31.135417318589244, 85.04996863655256 -31.029449201746235, 85.73243430409322 -30.91911344521856 M85.73243430409322 -30.91911344521856 C86.32931267366176 -30.78287985235991, 86.9261910432303 -30.646646259501257, 87.70105689314947 -30.469788185729428 M85.73243430409322 -30.91911344521856 C86.49834539418669 -30.744299236941682, 87.26425648428014 -30.5694850286648, 87.70105689314947 -30.469788185729428 M87.70105689314947 -30.469788185729428 C88.09975034308147 -30.351458062574235, 88.49844379301346 -30.233127939419045, 89.63684636774406 -29.895256030836062 M87.70105689314947 -30.469788185729428 C88.47329809787522 -30.240591049743628, 89.24553930260097 -30.01139391375783, 89.63684636774406 -29.895256030836062 M89.63684636774406 -29.895256030836062 C90.3491783317033 -29.633111283374568, 91.06151029566254 -29.370966535913073, 91.53184815370028 -29.197877856399685 M89.63684636774406 -29.895256030836062 C90.37741312925874 -29.622720616874556, 91.11797989077344 -29.35018520291305, 91.53184815370028 -29.197877856399685 M91.53184815370028 -29.197877856399685 C92.16265326038513 -28.918639147838945, 92.79345836706999 -28.63940043927821, 93.37827528220308 -28.380519338926202 M91.53184815370028 -29.197877856399685 C92.05398897374955 -28.96674160412098, 92.57612979379884 -28.735605351842274, 93.37827528220308 -28.380519338926202 M93.37827528220308 -28.380519338926202 C93.9904021718337 -28.0611731326919, 94.6025290614643 -27.74182692645759, 95.16854038812403 -27.44653917988677 M93.37827528220308 -28.380519338926202 C93.84595155933256 -28.136532924708703, 94.31362783646205 -27.892546510491204, 95.16854038812403 -27.44653917988677 M95.16854038812403 -27.44653917988677 C95.60484710208591 -27.18204748586022, 96.04115381604781 -26.91755579183367, 96.89528688813228 -26.399775304092984 M95.16854038812403 -27.44653917988677 C95.74854258013356 -27.094938442619377, 96.32854477214309 -26.743337705351983, 96.89528688813228 -26.399775304092984 M96.89528688813228 -26.399775304092984 C97.23724339674509 -26.16124124674336, 97.57919990535791 -25.92270718939373, 98.5514192104733 -25.244529088840633 M96.89528688813228 -26.399775304092984 C97.52224822007189 -25.962434219650536, 98.14920955201151 -25.525093135208085, 98.5514192104733 -25.244529088840633 M98.5514192104733 -25.244529088840633 C98.97657098464776 -24.90548186270036, 99.40172275882222 -24.56643463656009, 100.13013195219533 -23.985547688627737 M98.5514192104733 -25.244529088840633 C98.87018224784775 -24.990324049175182, 99.1889452852222 -24.73611900950973, 100.13013195219533 -23.985547688627737 M100.13013195219533 -23.985547688627737 C100.52844341892836 -23.623811753284706, 100.92675488566138 -23.26207581794167, 101.62493784400982 -22.62800452807842 M100.13013195219533 -23.985547688627737 C100.51135068849659 -23.63933491881397, 100.89256942479786 -23.293122149000205, 101.62493784400982 -22.62800452807842 M101.62493784400982 -22.62800452807842 C102.11824553887027 -22.118623831820035, 102.61155323373072 -21.60924313556165, 103.02969440787243 -21.177478043231485 M101.62493784400982 -22.62800452807842 C102.00414227394461 -22.23644482090805, 102.3833467038794 -21.844885113737686, 103.02969440787243 -21.177478043231485 M103.02969440787243 -21.177478043231485 C103.48845646305186 -20.63859002891728, 103.9472185182313 -20.09970201460308, 104.33862919774293 -19.63992875855011 M103.02969440787243 -21.177478043231485 C103.38200284077584 -20.763636511025393, 103.73431127367927 -20.3497949788193, 104.33862919774293 -19.63992875855011 M104.33862919774293 -19.63992875855011 C104.76770251050591 -19.065009608830653, 105.1967758232689 -18.490090459111197, 105.5463635198041 -18.02167479384835 M104.33862919774293 -19.63992875855011 C104.76425331628597 -19.069631214857313, 105.18987743482901 -18.499333671164514, 105.5463635198041 -18.02167479384835 M105.5463635198041 -18.02167479384835 C105.9848958744948 -17.347971334617906, 106.4234282291855 -16.674267875387464, 106.6479345346684 -16.329365901781543 M105.5463635198041 -18.02167479384835 C105.79612077133878 -17.637980586278474, 106.04587802287345 -17.254286378708592, 106.6479345346684 -16.329365901781543 M106.6479345346684 -16.329365901781543 C106.86433919090226 -15.945117521290685, 107.08074384713612 -15.560869140799827, 107.6388156507495 -14.56995614258631 M106.6479345346684 -16.329365901781543 C106.93059241765097 -15.827478208331659, 107.21325030063353 -15.325590514881775, 107.6388156507495 -14.56995614258631 M107.6388156507495 -14.56995614258631 C107.94988340278336 -13.924017299704362, 108.2609511548172 -13.278078456822412, 108.51493512499809 -12.750675308355413 M107.6388156507495 -14.56995614258631 C107.94435034087375 -13.935506821148222, 108.24988503099799 -13.301057499710135, 108.51493512499809 -12.750675308355413 M108.51493512499809 -12.750675308355413 C108.70891158704683 -12.271549696815274, 108.90288804909557 -11.792424085275135, 109.27269279456745 -10.878999214271206 M108.51493512499809 -12.750675308355413 C108.71780617798989 -12.2495798852207, 108.92067723098168 -11.748484462085985, 109.27269279456745 -10.878999214271206 M109.27269279456745 -10.878999214271206 C109.46179930815634 -10.309440525372665, 109.65090582174524 -9.739881836474124, 109.90897487065482 -8.962618978877531 M109.27269279456745 -10.878999214271206 C109.43829804158764 -10.380222595859255, 109.60390328860784 -9.881445977447303, 109.90897487065482 -8.962618978877531 M109.90897487065482 -8.962618978877531 C110.03720238215224 -8.473631903382785, 110.16542989364969 -7.984644827888038, 110.42116673372745 -7.009409419623907 M109.90897487065482 -8.962618978877531 C110.01495685047614 -8.558463756938227, 110.12093883029745 -8.154308534998924, 110.42116673372745 -7.009409419623907 M110.42116673372745 -7.009409419623907 C110.55809688481455 -6.3063020339893, 110.69502703590166 -5.603194648354693, 110.80716367755518 -5.027396693551458 M110.42116673372745 -7.009409419623907 C110.55904541072871 -6.301431553891101, 110.69692408772998 -5.593453688158296, 110.80716367755518 -5.027396693551458 M110.80716367755518 -5.027396693551458 C110.88083471209896 -4.456018697621212, 110.95450574664272 -3.8846407016909663, 111.06537955789975 -3.024725316091981 M110.80716367755518 -5.027396693551458 C110.86949651550727 -4.543955511406135, 110.93182935345936 -4.060514329260812, 111.06537955789975 -3.024725316091981 M111.06537955789975 -3.024725316091981 C111.11358152191252 -2.273940818667903, 111.1617834859253 -1.5231563212438244, 111.19475331032167 -1.0096246935071378 M111.06537955789975 -3.024725316091981 C111.09317920885839 -2.591723312936821, 111.12097885981703 -2.158721309781661, 111.19475331032167 -1.0096246935071378 M111.19475331032167 -1.0096246935071378 C111.19475331032167 -0.38071163481603487, 111.19475331032167 0.24820142387506805, 111.19475331032167 1.00962469350713 M111.19475331032167 -1.0096246935071378 C111.19475331032167 -0.5386855629939707, 111.19475331032167 -0.0677464324808037, 111.19475331032167 1.00962469350713 M111.19475331032167 1.00962469350713 C111.15891487305677 1.5678372821737243, 111.12307643579189 2.126049870840318, 111.06537955789975 3.02472531609196 M111.19475331032167 1.00962469350713 C111.15765259529155 1.58749827725948, 111.12055188026142 2.1653718610118293, 111.06537955789975 3.02472531609196 M111.06537955789975 3.02472531609196 C111.01129642142074 3.444183442699861, 110.95721328494173 3.863641569307762, 110.80716367755518 5.027396693551435 M111.06537955789975 3.02472531609196 C110.98162238502367 3.6743294091942067, 110.89786521214761 4.323933502296454, 110.80716367755518 5.027396693551435 M110.80716367755518 5.027396693551435 C110.69681300936632 5.594024052079264, 110.58646234117745 6.160651410607091, 110.42116673372745 7.0094094196239 M110.80716367755518 5.027396693551435 C110.69674019200188 5.594397953855719, 110.58631670644857 6.161399214160002, 110.42116673372745 7.0094094196239 M110.42116673372745 7.0094094196239 C110.25128821217722 7.657229848111886, 110.081409690627 8.305050276599871, 109.90897487065482 8.96261897887751 M110.42116673372745 7.0094094196239 C110.30891867014778 7.437459934671703, 110.19667060656809 7.8655104497195065, 109.90897487065482 8.96261897887751 M109.90897487065482 8.96261897887751 C109.70032384678314 9.591042618752995, 109.49167282291145 10.219466258628481, 109.27269279456746 10.878999214271184 M109.90897487065482 8.96261897887751 C109.77914905985654 9.353633636068057, 109.64932324905826 9.744648293258603, 109.27269279456746 10.878999214271184 M109.27269279456746 10.878999214271184 C109.10253821157694 11.299284323972831, 108.93238362858642 11.719569433674476, 108.51493512499809 12.750675308355405 M109.27269279456746 10.878999214271184 C109.05122239918533 11.426035372703819, 108.82975200380322 11.973071531136451, 108.51493512499809 12.750675308355405 M108.51493512499809 12.750675308355405 C108.25945335871727 13.281188662471628, 108.00397159243644 13.811702016587851, 107.6388156507495 14.569956142586303 M108.51493512499809 12.750675308355405 C108.30420217566521 13.188266786607924, 108.09346922633233 13.625858264860442, 107.6388156507495 14.569956142586303 M107.6388156507495 14.569956142586303 C107.39630546696446 15.00055753071561, 107.15379528317942 15.431158918844917, 106.64793453466841 16.329365901781536 M107.6388156507495 14.569956142586303 C107.42371531548567 14.951888569118086, 107.20861498022181 15.33382099564987, 106.64793453466841 16.329365901781536 M106.64793453466841 16.329365901781536 C106.42144848596966 16.677309292602494, 106.1949624372709 17.025252683423457, 105.54636351980412 18.021674793848334 M106.64793453466841 16.329365901781536 C106.21560994453789 16.99353256762935, 105.78328535440737 17.657699233477167, 105.54636351980412 18.021674793848334 M105.54636351980412 18.021674793848334 C105.1452788305165 18.559091737926856, 104.74419414122889 19.09650868200538, 104.33862919774295 19.639928758550102 M105.54636351980412 18.021674793848334 C105.073812065135 18.654850692781807, 104.60126061046587 19.28802659171528, 104.33862919774295 19.639928758550102 M104.33862919774295 19.639928758550102 C103.92975228026985 20.1202188515697, 103.52087536279674 20.600508944589293, 103.02969440787246 21.177478043231467 M104.33862919774295 19.639928758550102 C103.95161090199791 20.09454247069711, 103.56459260625287 20.54915618284412, 103.02969440787246 21.177478043231467 M103.02969440787246 21.177478043231467 C102.69707834748286 21.52093143387015, 102.36446228709326 21.864384824508832, 101.62493784400982 22.628004528078414 M103.02969440787246 21.177478043231467 C102.61396259145262 21.606755275901847, 102.19823077503278 22.036032508572227, 101.62493784400982 22.628004528078414 M101.62493784400982 22.628004528078414 C101.09900719942551 23.10564082412757, 100.57307655484121 23.58327712017672, 100.13013195219536 23.985547688627715 M101.62493784400982 22.628004528078414 C101.05611835266353 23.144591339980096, 100.48729886131724 23.661178151881778, 100.13013195219536 23.985547688627715 M100.13013195219536 23.985547688627715 C99.80925037253535 24.241442209389124, 99.48836879287533 24.497336730150533, 98.55141921047331 25.24452908884063 M100.13013195219536 23.985547688627715 C99.80652222431883 24.24361783499273, 99.48291249644228 24.50168798135774, 98.55141921047331 25.24452908884063 M98.55141921047331 25.24452908884063 C98.08608367871753 25.56912701174296, 97.62074814696174 25.89372493464529, 96.89528688813229 26.399775304092973 M98.55141921047331 25.24452908884063 C97.94473405114498 25.667726393010813, 97.33804889181663 26.090923697181, 96.89528688813229 26.399775304092973 M96.89528688813229 26.399775304092973 C96.38663308903652 26.708124226286344, 95.87797928994077 27.016473148479715, 95.16854038812404 27.446539179886766 M96.89528688813229 26.399775304092973 C96.22142784395179 26.808272616710497, 95.5475687997713 27.216769929328017, 95.16854038812404 27.446539179886766 M95.16854038812404 27.446539179886766 C94.63065407441063 27.727154125218426, 94.09276776069721 28.00776907055009, 93.37827528220309 28.3805193389262 M95.16854038812404 27.446539179886766 C94.55303063122082 27.767650225810364, 93.9375208743176 28.088761271733958, 93.37827528220309 28.3805193389262 M93.37827528220309 28.3805193389262 C92.69551372114785 28.68275762860325, 92.0127521600926 28.984995918280305, 91.5318481537003 29.197877856399682 M93.37827528220309 28.3805193389262 C92.83917421372877 28.619163390074775, 92.30007314525446 28.85780744122335, 91.5318481537003 29.197877856399682 M91.5318481537003 29.197877856399682 C91.0489000433351 29.375607225337472, 90.56595193296988 29.553336594275258, 89.63684636774407 29.895256030836055 M91.5318481537003 29.197877856399682 C90.84415567855532 29.450955044212584, 90.15646320341037 29.704032232025487, 89.63684636774407 29.895256030836055 M89.63684636774407 29.895256030836055 C89.01502752486421 30.079808599409088, 88.39320868198433 30.264361167982123, 87.70105689314951 30.46978818572942 M89.63684636774407 29.895256030836055 C88.99346969428673 30.08620685036512, 88.3500930208294 30.277157669894184, 87.70105689314951 30.46978818572942 M87.70105689314951 30.46978818572942 C87.26809827039136 30.568608166054915, 86.83513964763321 30.66742814638041, 85.73243430409323 30.919113445218557 M87.70105689314951 30.46978818572942 C87.19309461779449 30.58572726031558, 86.68513234243945 30.701666334901738, 85.73243430409323 30.919113445218557 M85.73243430409323 30.919113445218557 C84.97483847037763 31.041595664370256, 84.21724263666204 31.16407788352196, 83.73906809306196 31.24138543543225 M85.73243430409323 30.919113445218557 C85.32874345219564 30.984379051484048, 84.92505260029805 31.049644657749536, 83.73906809306196 31.24138543543225 M83.73906809306196 31.24138543543225 C83.32216667019594 31.281603414298818, 82.90526524732992 31.321821393165383, 81.72914942939245 31.435279871635593 M83.73906809306196 31.24138543543225 C83.2193864360407 31.291518499876457, 82.69970477901944 31.341651564320664, 81.72914942939245 31.435279871635593 M81.72914942939245 31.435279871635593 C81.30328188442387 31.448936614901847, 80.87741433945529 31.4625933581681, 79.7109375 31.5 M81.72914942939245 31.435279871635593 C81.1656919740396 31.453348855525356, 80.60223451868676 31.471417839415118, 79.7109375 31.5 M79.7109375 31.5 C79.7109375 31.5, 79.7109375 31.5, 79.7109375 31.5 M79.7109375 31.5 C79.7109375 31.5, 79.7109375 31.5, 79.7109375 31.5 M79.7109375 31.5 C37.96862857731488 31.5, -3.773680345370238 31.5, -79.7109375 31.5 M79.7109375 31.5 C30.53041932087656 31.5, -18.650098858246878 31.5, -79.7109375 31.5 M-79.7109375 31.5 C-80.31394537913312 31.480662710999834, -80.91695325826622 31.461325421999668, -81.72914942939244 31.435279871635593 M-79.7109375 31.5 C-80.17320204688677 31.4851760757247, -80.63546659377354 31.470352151449394, -81.72914942939244 31.435279871635593 M-81.72914942939244 31.435279871635593 C-82.21666871013214 31.388249472950353, -82.70418799087184 31.341219074265112, -83.73906809306195 31.24138543543225 M-81.72914942939244 31.435279871635593 C-82.17527299607299 31.39224286770001, -82.62139656275356 31.34920586376442, -83.73906809306195 31.24138543543225 M-83.73906809306195 31.24138543543225 C-84.25054011483799 31.158694605476267, -84.76201213661403 31.076003775520288, -85.73243430409323 30.919113445218557 M-83.73906809306195 31.24138543543225 C-84.30078458457989 31.150571469260083, -84.86250107609783 31.059757503087912, -85.73243430409323 30.919113445218557 M-85.73243430409323 30.919113445218557 C-86.21551071079655 30.80885440775668, -86.69858711749987 30.698595370294804, -87.70105689314947 30.469788185729428 M-85.73243430409323 30.919113445218557 C-86.45579518743396 30.754011043966937, -87.17915607077471 30.58890864271532, -87.70105689314947 30.469788185729428 M-87.70105689314947 30.469788185729428 C-88.23396709682928 30.311623234580004, -88.76687730050908 30.15345828343058, -89.63684636774403 29.89525603083607 M-87.70105689314947 30.469788185729428 C-88.43562570386861 30.251772018538357, -89.17019451458775 30.03375585134729, -89.63684636774403 29.89525603083607 M-89.63684636774403 29.89525603083607 C-90.06011866503718 29.73948791274596, -90.48339096233035 29.583719794655856, -91.53184815370028 29.197877856399685 M-89.63684636774403 29.89525603083607 C-90.0570009740619 29.740635251844484, -90.47715558037979 29.5860144728529, -91.53184815370028 29.197877856399685 M-91.53184815370028 29.197877856399685 C-92.05408388712911 28.966699588783364, -92.57631962055792 28.735521321167038, -93.37827528220308 28.380519338926206 M-91.53184815370028 29.197877856399685 C-92.25601043571675 28.877312695661853, -92.98017271773321 28.556747534924025, -93.37827528220308 28.380519338926206 M-93.37827528220308 28.380519338926206 C-93.96118984835735 28.07641318313812, -94.54410441451164 27.77230702735003, -95.16854038812403 27.446539179886773 M-93.37827528220308 28.380519338926206 C-93.98501271686781 28.063984807895487, -94.59175015153255 27.74745027686477, -95.16854038812403 27.446539179886773 M-95.16854038812403 27.446539179886773 C-95.80751757891788 27.05918745178076, -96.44649476971175 26.671835723674747, -96.89528688813226 26.399775304092994 M-95.16854038812403 27.446539179886773 C-95.80422096020413 27.061185881418115, -96.43990153228425 26.675832582949454, -96.89528688813226 26.399775304092994 M-96.89528688813226 26.399775304092994 C-97.51756488032875 25.965701114716843, -98.13984287252524 25.531626925340692, -98.5514192104733 25.244529088840636 M-96.89528688813226 26.399775304092994 C-97.3817188397324 26.060461431956536, -97.86815079133255 25.721147559820075, -98.5514192104733 25.244529088840636 M-98.5514192104733 25.244529088840636 C-99.13054794511277 24.782689334228518, -99.70967667975225 24.3208495796164, -100.13013195219533 23.98554768862774 M-98.5514192104733 25.244529088840636 C-99.09689590863847 24.809525937798472, -99.64237260680365 24.37452278675631, -100.13013195219533 23.98554768862774 M-100.13013195219533 23.98554768862774 C-100.5229261864362 23.628822357856112, -100.91572042067708 23.272097027084484, -101.6249378440098 22.628004528078435 M-100.13013195219533 23.98554768862774 C-100.59800055141805 23.560641805938435, -101.0658691506408 23.135735923249133, -101.6249378440098 22.628004528078435 M-101.6249378440098 22.628004528078435 C-102.02225234139146 22.217744689404988, -102.41956683877312 21.807484850731544, -103.02969440787244 21.177478043231478 M-101.6249378440098 22.628004528078435 C-102.01387055774609 22.22639956917608, -102.40280327148236 21.824794610273724, -103.02969440787244 21.177478043231478 M-103.02969440787244 21.177478043231478 C-103.47143233983664 20.658587532745933, -103.91317027180085 20.13969702226039, -104.33862919774293 19.639928758550113 M-103.02969440787244 21.177478043231478 C-103.4507813043564 20.68284541409824, -103.87186820084035 20.188212784965003, -104.33862919774293 19.639928758550113 M-104.33862919774293 19.639928758550113 C-104.6402400634902 19.235797675763916, -104.94185092923745 18.831666592977722, -105.5463635198041 18.021674793848355 M-104.33862919774293 19.639928758550113 C-104.61523890153846 19.269296955126535, -104.89184860533398 18.898665151702957, -105.5463635198041 18.021674793848355 M-105.5463635198041 18.021674793848355 C-105.98521206836794 17.347485575918828, -106.42406061693178 16.6732963579893, -106.6479345346684 16.329365901781557 M-105.5463635198041 18.021674793848355 C-105.80214802784667 17.62872110173737, -106.05793253588924 17.235767409626384, -106.6479345346684 16.329365901781557 M-106.6479345346684 16.329365901781557 C-106.9156235443464 15.854056958646694, -107.18331255402443 15.378748015511832, -107.6388156507495 14.569956142586314 M-106.6479345346684 16.329365901781557 C-106.95891674363956 15.777185499389883, -107.26989895261075 15.22500509699821, -107.6388156507495 14.569956142586314 M-107.6388156507495 14.569956142586314 C-107.90284076916531 14.02170233496336, -108.16686588758111 13.473448527340405, -108.51493512499809 12.750675308355417 M-107.6388156507495 14.569956142586314 C-107.86647420617903 14.097218281124151, -108.09413276160856 13.624480419661989, -108.51493512499809 12.750675308355417 M-108.51493512499809 12.750675308355417 C-108.72380415865491 12.234764757014995, -108.93267319231175 11.718854205674573, -109.27269279456745 10.878999214271209 M-108.51493512499809 12.750675308355417 C-108.70299837443423 12.286155446292572, -108.89106162387037 11.821635584229726, -109.27269279456745 10.878999214271209 M-109.27269279456745 10.878999214271209 C-109.51495030188565 10.149358200720796, -109.75720780920386 9.41971718717038, -109.90897487065482 8.962618978877522 M-109.27269279456745 10.878999214271209 C-109.4033382736994 10.485515846656044, -109.53398375283136 10.09203247904088, -109.90897487065482 8.962618978877522 M-109.90897487065482 8.962618978877522 C-110.06203499200481 8.378934399493739, -110.21509511335482 7.795249820109955, -110.42116673372743 7.009409419623911 M-109.90897487065482 8.962618978877522 C-110.04363377183597 8.449106227136818, -110.17829267301713 7.935593475396114, -110.42116673372743 7.009409419623911 M-110.42116673372743 7.009409419623911 C-110.56301470725934 6.281050055117391, -110.70486268079125 5.552690690610872, -110.80716367755518 5.027396693551461 M-110.42116673372743 7.009409419623911 C-110.56302075588948 6.281018996680008, -110.70487477805153 5.552628573736105, -110.80716367755518 5.027396693551461 M-110.80716367755518 5.027396693551461 C-110.89790827294107 4.323599531285749, -110.98865286832695 3.6198023690200385, -111.06537955789975 3.024725316091999 M-110.80716367755518 5.027396693551461 C-110.89433391927591 4.351321512476769, -110.98150416099662 3.675246331402077, -111.06537955789975 3.024725316091999 M-111.06537955789975 3.024725316091999 C-111.1119901911687 2.298727079501988, -111.15860082443766 1.5727288429119775, -111.19475331032167 1.0096246935071416 M-111.06537955789975 3.024725316091999 C-111.10614826697196 2.389719764382554, -111.14691697604418 1.7547142126731088, -111.19475331032167 1.0096246935071416 M-111.19475331032167 1.0096246935071416 C-111.19475331032167 0.4143660501497808, -111.19475331032167 -0.18089259320758, -111.19475331032167 -1.0096246935071262 M-111.19475331032167 1.0096246935071416 C-111.19475331032167 0.22928007054991106, -111.19475331032167 -0.5510645524073194, -111.19475331032167 -1.0096246935071262 M-111.19475331032167 -1.0096246935071262 C-111.15726773746799 -1.5934927485130768, -111.1197821646143 -2.1773608035190275, -111.06537955789975 -3.024725316091956 M-111.19475331032167 -1.0096246935071262 C-111.16709605446016 -1.4404087780852746, -111.13943879859865 -1.8711928626634229, -111.06537955789975 -3.024725316091956 M-111.06537955789975 -3.024725316091956 C-110.98972614871089 -3.611478218305312, -110.91407273952204 -4.198231120518669, -110.80716367755518 -5.027396693551446 M-111.06537955789975 -3.024725316091956 C-111.0035994670115 -3.503879501162367, -110.94181937612325 -3.983033686232778, -110.80716367755518 -5.027396693551446 M-110.80716367755518 -5.027396693551446 C-110.72648840358235 -5.441647174676706, -110.64581312960954 -5.855897655801965, -110.42116673372745 -7.009409419623896 M-110.80716367755518 -5.027396693551446 C-110.67921351829344 -5.684393719084743, -110.55126335903171 -6.34139074461804, -110.42116673372745 -7.009409419623896 M-110.42116673372745 -7.009409419623896 C-110.27204577609665 -7.5780722605019974, -110.12292481846585 -8.146735101380099, -109.90897487065482 -8.962618978877506 M-110.42116673372745 -7.009409419623896 C-110.25240248944428 -7.65298062596178, -110.08363824516111 -8.296551832299663, -109.90897487065482 -8.962618978877506 M-109.90897487065482 -8.962618978877506 C-109.75055145232099 -9.439765073555101, -109.59212803398718 -9.916911168232696, -109.27269279456746 -10.878999214271168 M-109.90897487065482 -8.962618978877506 C-109.67709655755922 -9.660999513129433, -109.44521824446363 -10.359380047381359, -109.27269279456746 -10.878999214271168 M-109.27269279456746 -10.878999214271168 C-109.10405060167466 -11.295548691191378, -108.93540840878185 -11.712098168111586, -108.51493512499809 -12.750675308355401 M-109.27269279456746 -10.878999214271168 C-109.09988937613359 -11.305826998729641, -108.92708595769972 -11.732654783188115, -108.51493512499809 -12.750675308355401 M-108.51493512499809 -12.750675308355401 C-108.21739998378636 -13.36851339531371, -107.91986484257465 -13.98635148227202, -107.6388156507495 -14.5699561425863 M-108.51493512499809 -12.750675308355401 C-108.31639017870661 -13.162958137510953, -108.11784523241515 -13.575240966666504, -107.6388156507495 -14.5699561425863 M-107.6388156507495 -14.5699561425863 C-107.3261368553591 -15.125149005963337, -107.01345805996868 -15.680341869340376, -106.6479345346684 -16.329365901781546 M-107.6388156507495 -14.5699561425863 C-107.34898996375321 -15.084570997881428, -107.0591642767569 -15.599185853176557, -106.6479345346684 -16.329365901781546 M-106.6479345346684 -16.329365901781546 C-106.4092895854424 -16.695988628934327, -106.17064463621638 -17.062611356087107, -105.54636351980412 -18.021674793848344 M-106.6479345346684 -16.329365901781546 C-106.2234676226043 -16.981461064037326, -105.79900071054023 -17.633556226293106, -105.54636351980412 -18.021674793848344 M-105.54636351980412 -18.021674793848344 C-105.266703201674 -18.396394142563597, -104.98704288354388 -18.77111349127885, -104.33862919774295 -19.639928758550102 M-105.54636351980412 -18.021674793848344 C-105.28502664474215 -18.371842398152282, -105.02368976968017 -18.72201000245622, -104.33862919774295 -19.639928758550102 M-104.33862919774295 -19.639928758550102 C-104.03365820612119 -19.998165038650043, -103.72868721449943 -20.35640131874998, -103.02969440787246 -21.177478043231467 M-104.33862919774295 -19.639928758550102 C-103.95188026846374 -20.094226057518956, -103.56513133918453 -20.54852335648781, -103.02969440787246 -21.177478043231467 M-103.02969440787246 -21.177478043231467 C-102.49547272879568 -21.72910578729379, -101.96125104971888 -22.280733531356113, -101.62493784400984 -22.628004528078403 M-103.02969440787246 -21.177478043231467 C-102.49910035243566 -21.725359968052064, -101.96850629699885 -22.27324189287266, -101.62493784400984 -22.628004528078403 M-101.62493784400984 -22.628004528078403 C-101.1228202100971 -23.084014477893373, -100.62070257618436 -23.540024427708342, -100.13013195219536 -23.98554768862771 M-101.62493784400984 -22.628004528078403 C-101.16913955678643 -23.04194847277287, -100.71334126956305 -23.455892417467332, -100.13013195219536 -23.98554768862771 M-100.13013195219536 -23.98554768862771 C-99.75571965575469 -24.284131531509495, -99.38130735931402 -24.582715374391274, -98.55141921047331 -25.244529088840626 M-100.13013195219536 -23.98554768862771 C-99.65047124391315 -24.368064339175262, -99.17081053563093 -24.750580989722813, -98.55141921047331 -25.244529088840626 M-98.55141921047331 -25.244529088840626 C-97.90593139026647 -25.694793449499542, -97.26044357005962 -26.14505781015846, -96.8952868881323 -26.39977530409297 M-98.55141921047331 -25.244529088840626 C-98.04969382859794 -25.594510995895156, -97.54796844672258 -25.94449290294969, -96.8952868881323 -26.39977530409297 M-96.8952868881323 -26.39977530409297 C-96.33014386021682 -26.742368328764407, -95.76500083230135 -27.08496135343584, -95.16854038812404 -27.446539179886763 M-96.8952868881323 -26.39977530409297 C-96.35198904311115 -26.729125650517325, -95.80869119808999 -27.05847599694168, -95.16854038812404 -27.446539179886763 M-95.16854038812404 -27.446539179886763 C-94.80415516493008 -27.636638717427182, -94.4397699417361 -27.8267382549676, -93.37827528220309 -28.3805193389262 M-95.16854038812404 -27.446539179886763 C-94.58887847017806 -27.748948431188, -94.00921655223209 -28.05135768248924, -93.37827528220309 -28.3805193389262 M-93.37827528220309 -28.3805193389262 C-92.7692328184175 -28.650124371041294, -92.16019035463192 -28.91972940315639, -91.5318481537003 -29.19787785639968 M-93.37827528220309 -28.3805193389262 C-92.90252248018302 -28.591120991675034, -92.42676967816297 -28.801722644423865, -91.5318481537003 -29.19787785639968 M-91.5318481537003 -29.19787785639968 C-90.83510985538057 -29.454283990759567, -90.13837155706084 -29.710690125119452, -89.63684636774407 -29.895256030836055 M-91.5318481537003 -29.19787785639968 C-91.0040326597363 -29.39211883725137, -90.4762171657723 -29.586359818103066, -89.63684636774407 -29.895256030836055 M-89.63684636774407 -29.895256030836055 C-89.11103790350253 -30.051313222997994, -88.585229439261 -30.207370415159932, -87.70105689314951 -30.469788185729417 M-89.63684636774407 -29.895256030836055 C-89.24892578437567 -30.010388823743103, -88.86100520100726 -30.12552161665015, -87.70105689314951 -30.469788185729417 M-87.70105689314951 -30.469788185729417 C-86.9863880243278 -30.632906691387763, -86.27171915550608 -30.796025197046113, -85.73243430409325 -30.919113445218553 M-87.70105689314951 -30.469788185729417 C-87.19179624074546 -30.58602360640431, -86.68253558834141 -30.702259027079208, -85.73243430409325 -30.919113445218553 M-85.73243430409325 -30.919113445218553 C-84.98973208933526 -31.039187779558926, -84.24702987457728 -31.159262113899302, -83.73906809306196 -31.24138543543225 M-85.73243430409325 -30.919113445218553 C-85.28052753115001 -30.99217422767865, -84.82862075820677 -31.06523501013875, -83.73906809306196 -31.24138543543225 M-83.73906809306196 -31.24138543543225 C-83.30741946111081 -31.283026059823147, -82.87577082915966 -31.32466668421404, -81.72914942939246 -31.435279871635593 M-83.73906809306196 -31.24138543543225 C-83.30551737972146 -31.283209551327186, -82.87196666638098 -31.325033667222126, -81.72914942939246 -31.435279871635593 M-81.72914942939246 -31.435279871635593 C-80.96494446030582 -31.45978643755947, -80.20073949121917 -31.48429300348334, -79.71093750000001 -31.5 M-81.72914942939246 -31.435279871635593 C-81.01573437925688 -31.458157703715287, -80.3023193291213 -31.48103553579498, -79.71093750000001 -31.5 M-79.71093750000001 -31.5 C-79.71093750000001 -31.5, -79.71093750000001 -31.5, -79.7109375 -31.5 M-79.71093750000001 -31.5 C-79.71093750000001 -31.5, -79.7109375 -31.5, -79.7109375 -31.5" stroke="#9370DB" stroke-width="1.3" fill="none" stroke-dasharray="0 0" style=""/></g><g class="label" style="" transform="translate(-95.8359375, -24)"><rect/><foreignObject width="191.671875" height="48"><div xmlns="http://www.w3.org/1999/xhtml" style="display: table-cell; white-space: nowrap; line-height: 1.5; max-width: 200px; text-align: center;"><span class="nodeLabel"><p>🧑‍💻 Người dùng<br />(Trình duyệt: HTML/CSS/JS)</p></span></div></foreignObject></g></g><g class="node default" id="my-svg-flowchart-URL-1" data-look="classic" transform="translate(491.32701110839844, 82.04584693908691)"><rect class="basic label-container" style="" x="-87.625" y="-27" width="175.25" height="54"/><g class="label" style="" transform="translate(-57.625, -12)"><rect/><foreignObject width="115.25" height="24"><div xmlns="http://www.w3.org/1999/xhtml" style="display: table-cell; white-space: nowrap; line-height: 1.5; max-width: 200px; text-align: center;"><span class="nodeLabel"><p>urls.py (Routing)</p></span></div></foreignObject></g></g><g class="node default" id="my-svg-flowchart-View-2" data-look="classic" transform="translate(717.1473236083984, 135.0458469390869)"><rect class="basic label-container" style="" x="-88.1953125" y="-27" width="176.390625" height="54"/><g class="label" style="" transform="translate(-58.1953125, -12)"><rect/><foreignObject width="116.390625" height="24"><div xmlns="http://www.w3.org/1999/xhtml" style="display: table-cell; white-space: nowrap; line-height: 1.5; max-width: 200px; text-align: center;"><span class="nodeLabel"><p>View (Điều phối)</p></span></div></foreignObject></g></g><g class="node default" id="my-svg-flowchart-Service-3" data-look="classic" transform="translate(953.8270111083984, 135.0458469390869)"><rect class="basic label-container" style="" x="-98.484375" y="-27" width="196.96875" height="54"/><g class="label" style="" transform="translate(-68.484375, -12)"><rect/><foreignObject width="136.96875" height="24"><div xmlns="http://www.w3.org/1999/xhtml" style="display: table-cell; white-space: nowrap; line-height: 1.5; max-width: 200px; text-align: center;"><span class="nodeLabel"><p>Service (Nghiệp vụ)</p></span></div></foreignObject></g></g><g class="node default" id="my-svg-flowchart-ORM-4" data-look="classic" transform="translate(1204.4285736083984, 94.09169387817383)"><rect class="basic label-container" style="" x="-77.7265625" y="-27" width="155.453125" height="54"/><g class="label" style="" transform="translate(-47.7265625, -12)"><rect/><foreignObject width="95.453125" height="24"><div xmlns="http://www.w3.org/1999/xhtml" style="display: table-cell; white-space: nowrap; line-height: 1.5; max-width: 200px; text-align: center;"><span class="nodeLabel"><p>Model (ORM)</p></span></div></foreignObject></g></g><g class="node default" id="my-svg-flowchart-DB-5" data-look="classic" transform="translate(1424.9207611083984, 94.09169387817383)"><path d="M0,13.061127029608407 a68.375,13.061127029608407 0,0,0 136.75,0 a68.375,13.061127029608407 0,0,0 -136.75,0 l0,76.0611270296084 a68.375,13.061127029608407 0,0,0 136.75,0 l0,-76.0611270296084" class="basic label-container outer-path" style="" transform="translate(-68.375, -51.09169054441261)"/><g class="label" style="" transform="translate(-60.875, -14)"><rect/><foreignObject width="121.75" height="48"><div xmlns="http://www.w3.org/1999/xhtml" style="display: table-cell; white-space: nowrap; line-height: 1.5; max-width: 200px; text-align: center;"><span class="nodeLabel"><p>Database<br />(Postgres/SQLite)</p></span></div></foreignObject></g></g><g class="node default" id="my-svg-flowchart-SMTP-14" data-look="classic" transform="translate(1204.4285736083984, 295.0458469390869)"><rect class="basic label-container" style="" x="-85.796875" y="-39" width="171.59375" height="78"/><g class="label" style="" transform="translate(-55.796875, -24)"><rect/><foreignObject width="111.59375" height="48"><div xmlns="http://www.w3.org/1999/xhtml" style="display: table-cell; white-space: nowrap; line-height: 1.5; max-width: 200px; text-align: center;"><span class="nodeLabel"><p>📧 Gmail SMTP<br />(Gửi email)</p></span></div></foreignObject></g></g><g class="node default" id="my-svg-flowchart-Cloudinary-15" data-look="classic" transform="translate(1204.4285736083984, 423.0458469390869)"><rect class="basic label-container" style="" x="-81.1796875" y="-39" width="162.359375" height="78"/><g class="label" style="" transform="translate(-51.1796875, -24)"><rect/><foreignObject width="102.359375" height="48"><div xmlns="http://www.w3.org/1999/xhtml" style="display: table-cell; white-space: nowrap; line-height: 1.5; max-width: 200px; text-align: center;"><span class="nodeLabel"><p>☁️ Cloudinary<br />(Lưu file)</p></span></div></foreignObject></g></g><g class="node default" id="my-svg-flowchart-FaceAPI-16" data-look="classic" transform="translate(1204.4285736083984, 551.0458469390869)"><rect class="basic label-container" style="" x="-102.1171875" y="-39" width="204.234375" height="78"/><g class="label" style="" transform="translate(-72.1171875, -24)"><rect/><foreignObject width="144.234375" height="48"><div xmlns="http://www.w3.org/1999/xhtml" style="display: table-cell; white-space: nowrap; line-height: 1.5; max-width: 200px; text-align: center;"><span class="nodeLabel"><p>🌐 Remote Face API<br />(Nhận diện mặt)</p></span></div></foreignObject></g></g></g></g></g><defs><filter id="my-svg-drop-shadow" height="130%" width="130%"><feDropShadow dx="4" dy="4" stdDeviation="0" flood-opacity="0.06" flood-color="#000000"/></filter></defs><defs><filter id="my-svg-drop-shadow-small" height="150%" width="150%"><feDropShadow dx="2" dy="2" stdDeviation="0" flood-opacity="0.06" flood-color="#000000"/></filter></defs></svg>